{
.appVersion = "3227";
.formatVersion = 3;
classes = (
{
automatic = 1;
code = "A Aacute Abreve Abreveacute Abrevedotbelow Abrevegrave Abrevehookabove Abrevetilde Acircumflex Acircumflexacute Acircumflexdotbelow Acircumflexgrave Acircumflexhookabove Acircumflextilde Adieresis Adotbelow Agrave Ahookabove Aring Atilde AE B C Ccedilla D Dcroat Eth E Eacute Ecircumflex Ecircumflexacute Ecircumflexdotbelow Ecircumflexgrave Ecircumflexhookabove Ecircumflextilde Edieresis Edotbelow Egrave Ehookabove Etilde F G Gbreve H I Iacute Icircumflex Idieresis Idotaccent Idotbelow Igrave Ihookabove Itilde J K L M N Ntilde O Oacute Ocircumflex Ocircumflexacute Ocircumflexdotbelow Ocircumflexgrave Ocircumflexhookabove Ocircumflextilde Odieresis Odotbelow Ograve Ohookabove Ohorn Ohornacute Ohorndotbelow Ohorngrave Ohornhookabove Ohorntilde Oslash Otilde OE P Q R S Scaron Scedilla T U Uacute Ucircumflex Udieresis Udotbelow Ugrave Uhookabove Uhorn Uhornacute Uhorndotbelow Uhorngrave Uhornhookabove Uhorntilde Utilde V W X Y Yacute Ydieresis Ydotbelow Ygrave Yhookabove Ytilde Z Zcaron";
name = Uppercase;
},
{
automatic = 1;

glyphs = (
{
glyphname = A;
layers = (
{
anchors = (
{
name = bottom;
pos = (310,0);
},
{
name = ogonek;
pos = (582,0);
},
{
name = top;
pos = (310,710);
}
);
layerId = m01;
shapes = (
{
closed = 1;
nodes = (
(139,0,l),
(207,304,o),
(270,540,o),
(352,710,c),
(258,710,l),
(176,540,o),
(106,304,o),
(38,0,c)
);
},
{
closed = 1;
nodes = (
(514,304,o),
(444,540,o),
(362,710,c),
(268,710,l),
(350,540,o),
(413,304,o),
(481,0,c),
(582,0,l)
);
},
{
closed = 1;
nodes = (
(164,170,l),
(464,170,l),
(464,258,l),
(164,258,l)
);
}
);
width = 620;
}
);
unicode = 65;
},
{
glyphname = AE;
layers = (
{
layerId = m01;
shapes = (
{
closed = 1;
nodes = (
(111,0,l),
(169,277,o),
(232,539,o),
(313,710,c),
(225,710,l),
(143,540,o),
(80,298,o),
(14,0,c)
);
},
{
closed = 1;
nodes = (
(91,170,l),
(344,170,l),
(344,255,l),
(91,255,l)
);
},
{
closed = 1;
nodes = (
(300,0,l),
(385,0,l),
(385,710,l),
(300,710,l)
);
},
{
closed = 1;
nodes = (
(323,392,l),
(323,308,l),
(562,308,l),
(562,392,l)
);
},
{
closed = 1;
nodes = (
(247,710,l),
(247,626,l),
(586,626,l),
(586,710,l)
);
},
{
closed = 1;
nodes = (
(323,84,l),
(323,0,l),
(594,0,l),
(594,84,l)
);
}
);
width = 620;
},
{
associatedMasterId = m01;
layerId = "AF3D00E1-BEEE-45ED-A219-899C6E12BFD7";
name = "Nov 2, 23 at 16:32";
shapes = (
{
closed = 1;
nodes = (
(110,0,l),
(178,304,o),
(243,539,o),
(325,710,c),
(240,710,l),
(158,540,o),
(88,304,o),
(20,0,c)
);
},
{
closed = 1;
nodes = (
(97,173,l),
(350,173,l),
(350,253,l),
(97,253,l)
);
},
{
closed = 1;
nodes = (
(303,0,l),
(390,0,l),
(392,710,l),
(305,710,l)
);
},
{
closed = 1;
nodes = (
(329,388,l),
(329,308,l),
(568,308,l),
(568,388,l)
);
},
{
closed = 1;
nodes = (
(253,710,l),
(253,630,l),
(592,630,l),
(592,710,l)
);
},
{
closed = 1;
nodes = (
(329,80,l),
(329,0,l),
(600,0,l),
(600,80,l)
);
}
);
width = 620;
}
);
unicode = 198;
},
{
glyphname = B;
layers = (
{
anchors = (
{
name = bottom;
pos = (310,0);
},
{
name = center;
pos = (310,355);
},
{
name = top;
pos = (310,710);
}
);
layerId = m01;
shapes = (
{
closed = 1;
nodes = (
(70,0,l),
(168,0,l),
(168,710,l),
(70,710,l)
);
},
{
closed = 1;
nodes = (
(167,350,l),
(234,350,o),
(239,350,o),
(292,350,cs),
(418,350,o),
(527,418,o),
(527,532,cs),
(527,655,o),
(437,710,o),
(292,710,cs),
(252,710,o),
(241,710,o),
(167,710,c),
(167,622,l),
(242,622,o),
(250,622,o),
(292,622,cs),
(382,622,o),
(429,592,o),
(429,519,cs),
(429,443,o),
(382,413,o),
(292,413,cs),
(239,413,o),
(235,413,o),
(167,413,c)
);
},
{
closed = 1;
nodes = (
(167,0,l),
(234,0,o),
(239,0,o),
(292,0,cs),
(432,0,o),
(565,40,o),
(565,199,cs),
(565,342,o),
(422,386,o),
(292,386,cs),
(252,386,o),
(241,386,o),
(167,386,c),
(167,325,l),
(242,325,o),
(250,325,o),
(292,325,cs),
(384,325,o),
(467,306,o),
(467,206,cs),
(467,99,o),
(384,88,o),
(292,88,cs),
(239,88,o),
(235,88,o),
(167,88,c)
);
}
);
width = 620;
}
);
unicode = 66;
},
{
glyphname = C;
layers = (
{
anchors = (
{
name = bottom;
pos = (323,0);
},
{
name = top;
pos = (323,710);
}
);
layerId = m01;
shapes = (
{
closed = 1;
nodes = (
(441,-16,o),
(509,9,o),
(581,70,c),
(524,143,l),
(466,94,o),
(413,74,o),
(341,74,cs),
(211,74,o),
(134,177,o),
(134,352,cs),
(134,531,o),
(204,636,o),
(323,636,cs),
(402,636,o),
(451,598,o),
(488,525,c),
(569,565,l),
(519,675,o),
(445,726,o),
(321,726,cs),
(141,726,o),
(35,587,o),
(35,352,cs),
(35,121,o),
(149,-16,o),
(341,-16,cs)
);
}
);
width = 620;
}
);
unicode = 67;
},
{
glyphname = D;
layers = (
{
anchors = (
{
name = bottom;
pos = (310,0);
},
{
name = center;
pos = (310,355);
},
{
name = top;
pos = (310,710);
}
);
layerId = m01;
shapes = (
{
closed = 1;
nodes = (
(63,0,l),
(161,0,l),
(161,710,l),
(63,710,l)
);
},
{
closed = 1;
nodes = (
(160,0,l),
(184,0,o),
(236,0,o),
(260,0,cs),
(460,0,o),
(577,140,o),
(577,377,cs),
(577,624,o),
(428,710,o),
(266,710,cs),
(231,710,o),
(199,710,o),
(160,710,c),
(160,622,l),
(201,622,o),
(234,622,o),
(266,622,cs),
(395,622,o),
(479,535,o),
(479,377,cs),
(479,241,o),
(433,88,o),
(260,88,cs),
(240,88,o),
(186,88,o),
(160,88,c)
);
}
);
width = 620;
}
);
unicode = 68;
},
{
glyphname = Dcroat;
layers = (
{
layerId = m01;
shapes = (
{
closed = 1;
nodes = (
(93,0,l),
(191,0,l),
(191,710,l),
(93,710,l)
);
},
{
closed = 1;
nodes = (
(190,0,l),
(214,0,o),
(266,0,o),
(290,0,cs),
(483,0,o),
(600,140,o),
(600,377,cs),
(600,624,o),
(451,710,o),
(296,710,cs),
(261,710,o),
(229,710,o),
(190,710,c),
(190,622,l),
(231,622,o),
(264,622,o),
(296,622,cs),
(418,622,o),
(502,535,o),
(502,377,cs),
(502,241,o),
(456,88,o),
(290,88,cs),
(270,88,o),
(216,88,o),
(190,88,c)
);
},
{
closed = 1;
nodes = (
(16,305,l),
(347,305,l),
(347,391,l),
(16,391,l)
);
}
);
width = 620;
}
);
unicode = 272;
},
{
glyphname = Eth;
layers = (
{
layerId = m01;
shapes = (
{
closed = 1;
nodes = (
(93,0,l),
(191,0,l),
(191,710,l),
(93,710,l)
);
},
{
closed = 1;
nodes = (
(190,0,l),
(214,0,o),
(266,0,o),
(290,0,cs),
(483,0,o),
(600,140,o),
(600,377,cs),
(600,624,o),
(451,710,o),
(296,710,cs),
(261,710,o),
(229,710,o),
(190,710,c),
(190,622,l),
(231,622,o),
(264,622,o),
(296,622,cs),
(418,622,o),
(502,535,o),
(502,377,cs),
(502,241,o),
(456,88,o),
(290,88,cs),
(270,88,o),
(216,88,o),
(190,88,c)
);
},
{
closed = 1;
nodes = (
(16,305,l),
(347,305,l),
(347,391,l),
(16,391,l)
);
}
);
width = 620;
}
);
unicode = 208;
},
{
glyphname = E;
layers = (
{
anchors = (
{
name = bottom;
pos = (320,0);
},
{
name = ogonek;
pos = (558,10);
},
{
name = top;
pos = (320,710);
},
{
name = topleft;
pos = (92,710);
}
);
layerId = m01;
shapes = (
{
closed = 1;
nodes = (
(90,0,l),
(188,0,l),
(190,710,l),
(92,710,l)
);
},
{
closed = 1;
nodes = (
(116,414,l),
(116,326,l),
(513,326,l),
(513,414,l)
);
},
{
closed = 1;
nodes = (
(118,710,l),
(118,622,l),
(537,622,l),
(537,710,l)
);
},
{
closed = 1;
nodes = (
(116,88,l),
(116,0,l),
(545,0,l),
(545,88,l)
);
}
);
width = 620;
}
);
unicode = 69;
},
{
glyphname = F;
layers = (
{
anchors = (
{
name = bottom;
pos = (322,0);
},
{
name = top;
pos = (322,710);
}
);
layerId = m01;
shapes = (
{
closed = 1;
nodes = (
(92,0,l),
(190,0,l),
(190,710,l),
(92,710,l)
);
},
{
closed = 1;
nodes = (
(118,403,l),
(118,315,l),
(500,315,l),
(500,403,l)
);
},
{
closed = 1;
nodes = (
(118,710,l),
(118,622,l),
(544,622,l),
(544,710,l)
);
}
);
width = 620;
}
);
unicode = 70;
},
{
glyphname = G;
layers = (
{
anchors = (
{
name = bottom;
pos = (330,0);
},
{
name = top;
pos = (330,710);
}
);
layerId = m01;
shapes = (
{
closed = 1;
nodes = (
(319,252,l),
(477,252,l),
(477,64,l),
(575,64,l),
(575,340,l),
(319,340,l)
);
},
{
closed = 1;
nodes = (
(504,702,o),
(433,726,o),
(346,726,cs),
(145,726,o),
(40,587,o),
(40,352,cs),
(40,121,o),
(153,-16,o),
(346,-16,cs),
(440,-16,o),
(505,7,o),
(575,64,c),
(539,153,l),
(481,99,o),
(424,74,o),
(346,74,cs),
(217,74,o),
(138,179,o),
(138,352,cs),
(138,528,o),
(201,635,o),
(348,638,cs),
(394,639,o),
(459,630,o),
(507,596,c),
(552,667,l)
);
}
);
width = 620;
}
);
unicode = 71;
},
{
glyphname = H;
layers = (
{
anchors = (
{
name = bottom;
pos = (310,0);
},
{
name = center;
pos = (310,355);
},
{
name = top;
pos = (310,710);
},
{
name = topleft;
pos = (80,710);
}
);
layerId = m01;
shapes = (
{
closed = 1;
nodes = (
(80,0,l),
(178,0,l),
(178,710,l),
(80,710,l)
);
},
{
closed = 1;
nodes = (
(442,0,l),
(540,0,l),
(540,710,l),
(442,710,l)
);
},
{
closed = 1;
nodes = (
(97,414,l),
(97,326,l),
(511,326,l),
(511,414,l)
);
}
);
width = 620;
}
);
unicode = 72;
},
{
glyphname = I;
layers = (
{
anchors = (
{
name = bottom;
pos = (310,0);
},
{
name = ogonek;
pos = (530,0);
},
{
name = top;
pos = (310,710);
},
{
name = topleft;
pos = (95,710);
}
);
layerId = m01;
shapes = (
{
closed = 1;
nodes = (
(359,0,l),
(359,710,l),
(261,710,l),
(261,0,l)
);
},
{
closed = 1;
nodes = (
(525,710,l),
(95,710,l),
(95,622,l),
(525,622,l)
);
},
{
closed = 1;
nodes = (
(530,88,l),
(90,88,l),
(90,0,l),
(530,0,l)
);
}
);
width = 620;
}
);
unicode = 73;
},
{
glyphname = J;
layers = (
{
anchors = (
{
name = bottom;
pos = (321,-16);
},
{
name = top;
pos = (321,710);
}
);
layerId = m01;
shapes = (
{
closed = 1;
nodes = (
(430,208,l),
(430,104,o),
(373,73,o),
(292,73,cs),
(220,73,o),
(165,105,o),
(127,124,c),
(80,49,l),
(162,7,o),
(231,-16,o),
(319,-16,cs),
(413,-16,o),
(528,21,o),
(528,208,c)
);
},
{
closed = 1;
nodes = (
(180,622,l),
(528,622,l),
(528,710,l),
(180,710,l)
);
},
{
closed = 1;
nodes = (
(430,710,l),
(430,202,l),
(528,202,l),
(528,710,l)
);
}
);
width = 620;
}
);
unicode = 74;
},
{
glyphname = K;
layers = (
{
anchors = (
{
name = bottom;
pos = (305,0);
},
{
name = top;
pos = (305,710);
}
);
layerId = m01;
shapes = (
{
closed = 1;
nodes = (
(583,0,l),
(583,10,l),
(282,388,l),
(549,700,l),
(549,710,l),
(438,710,l),
(171,399,l),
(171,710,l),
(73,710,l),
(73,0,l),
(171,0,l),
(171,248,l),
(222,312,l),
(466,0,l)
);
}
);
width = 620;
}
);
unicode = 75;
},
{
glyphname = L;
layers = (
{
anchors = (
{
name = bottom;
pos = (320,0);
},
{
name = center;
pos = (320,355);
},
{
name = top;
pos = (320,710);
}
);
layerId = m01;
shapes = (
{
closed = 1;
nodes = (
(101,0,l),
(199,0,l),
(199,710,l),
(101,710,l)
);
},
{
closed = 1;
nodes = (
(117,88,l),
(117,0,l),
(539,0,l),
(539,88,l)
);
}
);
width = 620;
}
);
unicode = 76;
},
{
glyphname = M;
layers = (
{
anchors = (
{
name = bottom;
pos = (310,0);
},
{
name = top;
pos = (310,710);
}
);
layerId = m01;
name = Regular;
shapes = (
{
closed = 1;
nodes = (
(351,260,l),
(419,420,o),
(496,570,o),
(580,710,c),
(476,710,l),
(398,570,o),
(329,420,o),
(271,260,c)
);
},
{
closed = 1;
nodes = (
(33,0,l),
(131,0,l),
(131,710,l),
(33,710,l)
);
},
{
closed = 1;
nodes = (
(489,0,l),
(587,0,l),
(587,710,l),
(489,710,l)
);
},
{
closed = 1;
nodes = (
(291,420,o),
(222,570,o),
(144,710,c),
(40,710,l),
(124,570,o),
(201,420,o),
(269,260,c),
(349,260,l)
);
}
);
width = 620;
}
);
unicode = 77;
},
{
glyphname = N;
layers = (
{
anchors = (
{
name = bottom;
pos = (310,0);
},
{
name = top;
pos = (310,710);
}
);
layerId = m01;
name = Regular;
shapes = (
{
closed = 1;
nodes = (
(177,710,l),
(63,710,l),
(447,0,l),
(557,0,l)
);
},
{
closed = 1;
nodes = (
(56,0,l),
(154,0,l),
(154,710,l),
(56,710,l)
);
},
{
closed = 1;
nodes = (
(466,0,l),
(564,0,l),
(564,710,l),
(466,710,l)
);
}
);
width = 620;
}
);
unicode = 78;
},
{
glyphname = O;
layers = (
{
anchors = (
{
name = bottom;
pos = (310,0);
},
{
name = center;
pos = (310,355);
},
{
name = top;
pos = (310,710);
},
{
name = topleft;
pos = (40,710);
},
{
name = topright;
pos = (463,679);
}
);
layerId = m01;
shapes = (
{
closed = 1;
nodes = (
(509,-16,o),
(580,148,o),
(580,355,cs),
(580,562,o),
(509,726,o),
(310,726,cs),
(112,726,o),
(40,562,o),
(40,355,cs),
(40,148,o),
(112,-16,o),
(310,-16,cs)
);
},
{
closed = 1;
nodes = (
(172,73,o),
(139,205,o),
(139,355,cs),
(139,504,o),
(172,637,o),
(310,637,cs),
(448,637,o),
(481,504,o),
(481,355,cs),
(481,205,o),
(448,73,o),
(310,73,cs)
);
}
);
width = 620;
}
);
unicode = 79;
},
{
glyphname = Ohorn;
layers = (
{
anchors = (
{
name = bottom;
pos = (300,0);
},
{
name = center;
pos = (310,355);
},
{
name = top;
pos = (300,710);
},
{
name = topleft;
pos = (40,710);
},
{
name = topright;
pos = (453,679);
}
);
layerId = m01;
shapes = (
{
closed = 1;
nodes = (
(499,-16,o),
(570,148,o),
(570,355,cs),
(570,562,o),
(499,726,o),
(300,726,cs),
(102,726,o),
(30,562,o),
(30,355,cs),
(30,148,o),
(102,-16,o),
(300,-16,cs)
);
},
{
closed = 1;
nodes = (
(162,73,o),
(129,205,o),
(129,355,cs),
(129,504,o),
(162,637,o),
(300,637,cs),
(438,637,o),
(471,504,o),
(471,355,cs),
(471,205,o),
(438,73,o),
(300,73,cs)
);
},
{
pos = (211,-81);
ref = horncomb.case;
}
);
width = 620;
}
);
unicode = 416;
},
{
glyphname = Oslash;
layers = (
{
layerId = m01;
shapes = (
{
ref = O;
},
{
closed = 1;
nodes = (
(114,-86,l),
(598,790,l),
(598,796,l),
(506,796,l),
(22,-80,l),
(22,-86,l)
);
}
);
width = 620;
}
);
unicode = 216;
},
{
glyphname = OE;
layers = (
{
anchors = (
{
name = bottom;
pos = (310,0);
},
{
name = top;
pos = (310,710);
}
);
layerId = m01;
shapes = (
{
closed = 1;
nodes = (
(352,644,l),
(322,686,o),
(284,726,o),
(220,726,cs),
(69,726,o),
(17,558,o),
(20,354,cs),
(23,150,o),
(69,-16,o),
(220,-16,cs),
(281,-16,o),
(317,17,o),
(348,62,c),
(302,147,l),
(291,102,o),
(266,76,o),
(221,76,cs),
(142,76,o),
(115,208,o),
(115,355,cs),
(115,501,o),
(142,634,o),
(221,634,cs),
(265,634,o),
(288,611,o),
(299,572,c)
);
},
{
closed = 1;
nodes = (
(298,660,l),
(298,50,l),
(338,0,l),
(384,0,l),
(384,710,l),
(338,710,l)
);
},
{
closed = 1;
nodes = (
(348,710,l),
(347,626,l),
(585,626,l),
(585,710,l)
);
},
{
closed = 1;
nodes = (
(350,84,l),
(350,0,l),
(593,0,l),
(593,84,l)
);
},
{
closed = 1;
nodes = (
(325,392,l),
(325,308,l),
(564,308,l),
(564,392,l)
);
}
);
width = 620;
},
{
associatedMasterId = m01;
layerId = "573C6D2D-D2A3-4234-A56F-39422CA83880";
name = "Nov 2, 23 at 16:36";
shapes = (
{
closed = 1;
nodes = (
(290,0,l),
(377,0,l),
(379,710,l),
(292,710,l)
);
},
{
closed = 1;
nodes = (
(318,388,l),
(318,308,l),
(557,308,l),
(557,388,l)
);
},
{
closed = 1;
nodes = (
(272,710,l),
(272,630,l),
(581,630,l),
(581,710,l)
);
},
{
closed = 1;
nodes = (
(318,80,l),
(318,0,l),
(589,0,l),
(589,80,l)
);
},
{
closed = 1;
nodes = (
(356,659,l),
(326,701,o),
(282,726,o),
(224,726,cs),
(70,726,o),
(17,559,o),
(20,355,cs),
(23,151,o),
(70,-16,o),
(224,-16,cs),
(285,-16,o),
(328,10,o),
(359,55,c),
(304,145,l),
(290,100,o),
(265,76,o),
(224,76,cs),
(144,76,o),
(123,210,o),
(123,355,cs),
(123,499,o),
(144,634,o),
(224,634,cs),
(263,634,o),
(287,612,o),
(302,572,c)
);
}
);
width = 620;
}
);
unicode = 338;
},
{
glyphname = P;
layers = (
{
anchors = (
{
name = bottom;
pos = (295,0);
},
{
name = top;
pos = (295,710);
}
);
layerId = m01;
shapes = (
{
closed = 1;
nodes = (
(62,0,l),
(160,0,l),
(160,710,l),
(62,710,l)
);
},
{
closed = 1;
nodes = (
(159,262,l),
(226,262,o),
(282,262,o),
(335,262,cs),
(493,262,o),
(570,350,o),
(570,486,cs),
(570,622,o),
(497,710,o),
(335,710,cs),
(295,710,o),
(233,710,o),
(159,710,c),
(159,622,l),
(234,622,o),
(293,622,o),
(335,622,cs),
(429,622,o),
(474,568,o),
(474,486,cs),
(474,408,o),
(429,350,o),
(335,350,cs),
(282,350,o),
(227,350,o),
(159,350,c)
);
}
);
width = 620;
}
);
unicode = 80;
},
{
glyphname = Q;
layers = (
{
anchors = (
{
name = bottom;
pos = (306,0);
},
{
name = top;
pos = (306,710);
}
);
layerId = m01;
name = Regular;
shapes = (
{
closed = 1;
nodes = (
(487,-16,o),
(575,148,o),
(575,355,cs),
(575,562,o),
(505,726,o),
(306,726,cs),
(108,726,o),
(37,562,o),
(37,355,cs),
(37,148,o),
(108,-16,o),
(306,-16,cs)
);
},
{
closed = 1;
nodes = (
(168,73,o),
(135,205,o),
(135,355,cs),
(135,504,o),
(168,637,o),
(306,637,cs),
(444,637,o),
(477,504,o),
(477,355,cs),
(477,205,o),
(444,73,o),
(306,73,cs)
);
},
{
closed = 1;
nodes = (
(595,-19,l),
(466,159,ls),
(419,224,o),
(364,275,o),
(288,275,cs),
(208,275,o),
(147,230,o),
(107,187,c),
(160,127,l),
(184,158,o),
(230,198,o),
(282,198,cs),
(337,198,o),
(379,149,o),
(415,94,cs),
(526,-78,l)
);
}
);
width = 620;
}
);
unicode = 81;
},
{
glyphname = R;
layers = (
{
anchors = (
{
name = bottom;
pos = (294,0);
},
{
name = top;
pos = (294,710);
}
);
layerId = m01;
shapes = (
{
closed = 1;
nodes = (
(65,0,l),
(163,0,l),
(163,710,l),
(65,710,l)
);
},
{
closed = 1;
nodes = (
(162,282,l),
(209,282,o),
(265,282,o),
(318,282,cs),
(476,282,o),
(553,365,o),
(553,496,cs),
(553,632,o),
(480,710,o),
(318,710,cs),
(278,710,o),
(216,710,o),
(162,710,c),
(162,622,l),
(217,622,o),
(276,622,o),
(318,622,cs),
(412,622,o),
(457,578,o),
(457,496,cs),
(457,423,o),
(412,370,o),
(318,370,cs),
(265,370,o),
(210,370,o),
(162,370,c)
);
},
{
closed = 1;
nodes = (
(269,308,l),
(473,0,l),
(580,0,l),
(580,10,l),
(377,308,l)
);
}
);
width = 620;
}
);
unicode = 82;
},
{
glyphname = S;
layers = (
{
anchors = (
{
name = bottom;
pos = (320,0);
},
{
name = top;
pos = (320,710);
}
);
layerId = m01;
shapes = (
{
closed = 1;
nodes = (
(116,30,o),
(217,-16,o),
(324,-16,cs),
(488,-16,o),
(578,62,o),
(578,181,cs),
(578,401,o),
(175,382,o),
(175,531,cs),
(175,595,o),
(255,635,o),
(321,635,cs),
(387,635,o),
(436,616,o),
(491,563,c),
(557,624,l),
(498,689,o),
(411,726,o),
(321,726,cs),
(213,726,o),
(77,658,o),
(77,529,cs),
(77,302,o),
(479,325,o),
(479,181,cs),
(479,115,o),
(418,75,o),
(324,75,cs),
(248,75,o),
(170,107,o),
(113,160,c),
(50,92,l)
);
}
);
width = 620;
}
);
unicode = 83;
},
{
glyphname = T;
layers = (
{
anchors = (
{
name = bottom;
pos = (310,0);
},
{
name = center;
pos = (310,355);
},
{
name = top;
pos = (310,710);
}
);
layerId = m01;
shapes = (
{
closed = 1;
nodes = (
(359,0,l),
(359,710,l),
(261,710,l),
(261,0,l)
);
},
{
closed = 1;
nodes = (
(570,710,l),
(50,710,l),
(50,622,l),
(570,622,l)
);
}
);
width = 620;
}
);
unicode = 84;
},
{
glyphname = U;
layers = (
{
anchors = (
{
name = bottom;
pos = (310,-15);
},
{
name = top;
pos = (310,710);
},
{
name = topright;
pos = (507,710);
}
);
layerId = m01;
shapes = (
{
closed = 1;
nodes = (
(465,277,l),
(465,139,o),
(392,83,o),
(310,83,c),
(228,83,o),
(155,139,o),
(155,277,c),
(155,710,l),
(55,710,l),
(55,277,ls),
(55,55,o),
(193,-15,o),
(310,-15,c),
(427,-15,o),
(565,55,o),
(565,277,cs),
(565,710,l),
(465,710,l)
);
}
);
width = 620;
}
);
unicode = 85;
},
{
glyphname = Uhorn;
layers = (
{
anchors = (
{
name = bottom;
pos = (277,-15);
},
{
name = top;
pos = (277,710);
},
{
name = topright;
pos = (469,710);
}
);
layerId = m01;
shapes = (
{
closed = 1;
nodes = (
(415,277,l),
(415,139,o),
(351,82,o),
(277,82,c),
(203,82,o),
(140,139,o),
(140,277,c),
(140,710,l),
(40,710,l),
(40,277,ls),
(40,55,o),
(168,-15,o),
(277,-15,c),
(386,-15,o),
(515,55,o),
(515,277,cs),
(515,710,l),
(415,710,l)
);
},
{
pos = (226,-51);
ref = horncomb.case;
}
);
width = 620;
},
{
anchors = (
{
name = bottom;
pos = (275,-15);
},
{
name = top;
pos = (275,710);
},
{
name = topright;
pos = (471,710);
}
);
associatedMasterId = m01;
layerId = "19675045-AB8A-4912-A7DA-6332382CA994";
name = "Nov 11, 23 at 13:52";
shapes = (
{
closed = 1;
nodes = (
(430,277,l),
(430,139,o),
(357,83,o),
(275,83,c),
(193,83,o),
(120,139,o),
(120,277,c),
(120,710,l),
(20,710,l),
(20,277,ls),
(20,55,o),
(158,-15,o),
(275,-15,c),
(392,-15,o),
(530,55,o),
(530,277,cs),
(530,710,l),
(430,710,l)
);
},
{
pos = (230,-51);
ref = horncomb.case;
}
);
width = 620;
}
);
unicode = 431;
},
{
glyphname = V;
layers = (
{
anchors = (
{
name = bottom;
pos = (310,0);
},
{
name = top;
pos = (310,710);
}
);
layerId = m01;
shapes = (
{
closed = 1;
nodes = (
(106,406,o),
(176,170,o),
(258,0,c),
(352,0,l),
(270,170,o),
(207,406,o),
(139,710,c),
(38,710,l)
);
},
{
closed = 1;
nodes = (
(481,710,l),
(413,406,o),
(350,170,o),
(268,0,c),
(362,0,l),
(444,170,o),
(514,406,o),
(582,710,c)
);
}
);
width = 620;
}
);
unicode = 86;
},
{
glyphname = W;
layers = (
{
anchors = (
{
name = bottom;
pos = (310,0);
},
{
name = top;
pos = (310,710);
}
);
layerId = m01;
shapes = (
{
closed = 1;
nodes = (
(26,396,o),
(58,159,o),
(102,0,c),
(194,0,l),
(152,159,o),
(121,396,o),
(128,710,c),
(30,710,l)
);
},
{
closed = 1;
nodes = (
(267,473,l),
(142,0,l),
(233,0,l),
(350,473,l)
);
},
{
closed = 1;
nodes = (
(387,0,l),
(478,0,l),
(353,473,l),
(270,473,l)
);
},
{
closed = 1;
nodes = (
(492,710,l),
(496,396,o),
(468,159,o),
(426,0,c),
(518,0,l),
(562,159,o),
(591,396,o),
(590,710,c)
);
}
);
width = 620;
}
);
unicode = 87;
},
{
glyphname = X;
layers = (
{
anchors = (
{
name = bottom;
pos = (310,0);
},
{
name = top;
pos = (310,710);
}
);
layerId = m01;
shapes = (
{
closed = 1;
nodes = (
(459,710,l),
(258,343,l),
(364,343,l),
(565,700,l),
(565,710,l)
);
},
{
closed = 1;
nodes = (
(569,10,l),
(363,367,l),
(257,367,l),
(463,0,l),
(569,0,l)
);
},
{
closed = 1;
nodes = (
(51,700,l),
(257,343,l),
(363,343,l),
(157,710,l),
(51,710,l)
);
},
{
closed = 1;
nodes = (
(158,0,l),
(364,367,l),
(258,367,l),
(52,10,l),
(52,0,l)
);
}
);
width = 620;
}
);
unicode = 88;
},
{
glyphname = Y;
layers = (
{
anchors = (
{
name = bottom;
pos = (310,0);
},
{
name = top;
pos = (310,710);
},
{
name = topleft;
pos = (39,710);
}
);
layerId = m01;
shapes = (
{
closed = 1;
nodes = (
(39,700,l),
(260,283,l),
(359,283,l),
(148,710,l),
(39,710,l)
);
},
{
closed = 1;
nodes = (
(472,710,l),
(261,283,l),
(360,283,l),
(581,700,l),
(581,710,l)
);
},
{
closed = 1;
nodes = (
(261,0,l),
(359,0,l),
(359,290,l),
(261,290,l)
);
}
);
width = 620;
}
);
unicode = 89;
},
{
glyphname = Z;
layers = (
{
anchors = (
{
name = bottom;
pos = (304,0);
},
{
name = top;
pos = (304,710);
}
);
layerId = m01;
shapes = (
{
closed = 1;
nodes = (
(69,622,l),
(540,622,l),
(540,710,l),
(69,710,l)
);
},
{
closed = 1;
nodes = (
(63,0,l),
(557,0,l),
(557,88,l),
(63,88,l)
);
},
{
closed = 1;
nodes = (
(180,88,l),
(540,622,l),
(423,622,l),
(63,88,l)
);
}
);
width = 620;
}
);
unicode = 90;
},
{
glyphname = a;
layers = (
{
anchors = (
{
name = bottom;
pos = (310,0);
},
{
name = ogonek;
pos = (563,-8);
},
{
name = top;
pos = (310,550);
}
);
layerId = m01;
shapes = (
{
closed = 1;
nodes = (
(508,413,ls),
(508,554,o),
(383,566,o),
(310,566,cs),
(239,566,o),
(156,546,o),
(87,512,c),
(134,437,l),
(193,462,o),
(252,477,o),
(293,477,cs),
(398,477,o),
(410,437,o),
(410,361,cs),
(410,347,l),
(291,352,o),
(70,340,o),
(70,156,cs),
(70,38,o),
(170,-16,o),
(255,-16,cs),
(344,-16,o),
(396,13,o),
(429,49,c),
(449,9,o),
(486,-11,o),
(563,-8,c),
(563,73,l),
(520,75,o),
(508,95,o),
(508,131,cs)
);
},
{
closed = 1;
nodes = (
(158,269,o),
(303,276,o),
(410,268,c),
(410,156,l),
(387,114,o),
(346,74,o),
(264,74,cs),
(209,74,o),
(158,106,o),
(158,161,cs)
);
}
);
width = 620;
}
);
unicode = 97;
},
{
glyphname = atilde;
layers = (
{
layerId = m01;
name = Regular;
shapes = (
{
ref = a;
},
{
ref = tildecomb;
}
);
visible = 1;
width = 620;
},
{
associatedMasterId = m01;
layerId = "E7CB78D3-BBF3-4B0B-9D88-DF4553597346";
name = "Oct 31, 23 at 15:17";
shapes = (
{
ref = a;
},
{
closed = 1;
nodes = (
(231,815,o),
(212,810,o),
(110,692,c),
(158,652,l),
(233,735,o),
(226,736,o),
(293,676,cs),
(365,612,o),
(398,597,o),
(502,718,c),
(454,758,l),
(379,677,o),
(380,681,o),
(323,732,cs)
);
},
{
closed = 1;
nodes = (
(381,601,o),
(400,606,o),
(502,724,c),
(454,764,l),
(379,681,o),
(386,680,o),
(319,740,cs),
(247,804,o),
(214,819,o),
(110,698,c),
(158,658,l),
(233,739,o),
(232,735,o),
(289,684,cs)
);
}
);
width = 620;
}
);
unicode = 227;
},
{
glyphname = ae;
layers = (
{
anchors = (
{
name = bottom;
pos = (310,0);
},
{
name = top;
pos = (310,550);
}
);
layerId = m01;
shapes = (
{
closed = 1;
nodes = (
(329,405,ls),
(328,536,o),
(263,560,o),
(223,566,cs),
(170,574,o),
(103,544,o),
(44,505,c),
(92,437,l),
(139,468,o),
(184,486,o),
(216,480,cs),
(261,471,o),
(258,406,o),
(258,334,c),
(152,340,o),
(28,293,o),
(28,145,cs),
(28,29,o),
(106,-16,o),
(164,-16,cs),
(241,-16,o),
(285,34,o),
(306,101,c),
(314,118,o),
(322,135,o),
(330,152,c)
);
},
{
closed = 1;
nodes = (
(108,208,o),
(153,264,o),
(259,257,c),
(259,156,l),
(252,109,o),
(221,67,o),
(178,67,cs),
(139,67,o),
(108,99,o),
(108,145,cs)
);
},
{
closed = 1;
nodes = (
(477,-16,o),
(523,-8,o),
(577,41,c),
(532,104,l),
(498,75,o),
(470,64,o),
(441,64,cs),
(370,64,o),
(332,143,o),
(336,239,c),
(580,239,l),
(609,404,o),
(560,566,o),
(429,566,cs),
(333,566,o),
(260,465,o),
(260,273,cs),
(260,124,o),
(310,-16,o),
(441,-16,cs)
);
},
{
closed = 1;
nodes = (
(336,420,o),
(375,485,o),
(428,485,cs),
(487,485,o),
(521,403,o),
(513,312,c),
(335,312,l)
);
}
);
width = 620;
},
{
associatedMasterId = m01;
layerId = "27681FE3-AB0E-4D36-8DCB-7E9A97BD7CD7";
name = "Oct 31, 23 at 15:48";
shapes = (
{
closed = 1;
nodes = (
(359,405,ls),
(359,536,o),
(280,561,o),
(234,566,cs),
(174,572,o),
(106,545,o),
(39,508,c),
(88,437,l),
(142,468,o),
(190,482,o),
(227,477,cs),
(277,470,o),
(274,419,o),
(274,347,c),
(156,353,o),
(16,315,o),
(16,156,cs),
(16,39,o),
(100,-16,o),
(172,-16,cs),
(220,-16,o),
(263,8,o),
(293,49,c),
(313,9,o),
(333,-11,o),
(410,-8,c),
(410,73,l),
(367,75,o),
(359,95,o),
(359,131,cs)
);
},
{
closed = 1;
nodes = (
(104,225,o),
(140,270,o),
(274,264,c),
(274,156,l),
(258,109,o),
(218,74,o),
(180,74,cs),
(135,74,o),
(104,109,o),
(104,156,cs)
);
}
);
width = 620;
},
{
associatedMasterId = m01;
layerId = "B78FCA28-D4A9-46E6-B69A-BEF86A202E0F";
name = ae;
shapes = (
{
closed = 1;
nodes = (
(359,405,ls),
(359,536,o),
(280,561,o),
(234,566,cs),
(174,572,o),
(106,545,o),
(39,508,c),
(88,437,l),
(142,468,o),
(190,482,o),
(227,477,cs),
(277,470,o),
(274,419,o),
(274,347,c),
(156,353,o),
(16,315,o),
(16,156,cs),
(16,39,o),
(100,-16,o),
(172,-16,cs),
(220,-16,o),
(263,8,o),
(293,49,c),
(313,9,o),
(333,-11,o),
(410,-8,c),
(410,73,l),
(367,75,o),
(359,95,o),
(359,131,cs)
);
},
{
closed = 1;
nodes = (
(104,225,o),
(140,270,o),
(274,264,c),
(274,156,l),
(258,109,o),
(218,74,o),
(180,74,cs),
(135,74,o),
(104,109,o),
(104,156,cs)
);
},
{
closed = 1;
nodes = (
(542,-16,o),
(581,-8,o),
(646,37,c),
(608,105,l),
(570,73,o),
(529,64,o),
(500,64,cs),
(422,64,o),
(378,129,o),
(368,222,c),
(656,222,l),
(687,390,o),
(620,566,o),
(479,566,cs),
(373,566,o),
(280,465,o),
(280,273,cs),
(280,88,o),
(366,-16,o),
(490,-16,cs)
);
},
{
closed = 1;
nodes = (
(360,406,o),
(415,485,o),
(477,485,cs),
(550,485,o),
(594,385,o),
(588,298,c),
(359,298,l)
);
}
);
width = 620;
},
{
associatedMasterId = m01;
layerId = "065CD0AB-08DF-4440-AA44-F3D160B1D802";
name = "Nov 2, 23 at 16:22";
shapes = (
{
closed = 1;
nodes = (
(331,405,ls),
(330,536,o),
(265,560,o),
(225,566,cs),
(172,574,o),
(105,544,o),
(46,505,c),
(96,437,l),
(144,468,o),
(186,483,o),
(218,477,cs),
(261,469,o),
(260,404,o),
(260,332,c),
(164,339,o),
(33,296,o),
(33,145,cs),
(33,28,o),
(108,-16,o),
(166,-16,cs),
(242,-16,o),
(288,37,o),
(308,101,c),
(316,118,o),
(324,135,o),
(332,152,c)
);
},
{
closed = 1;
nodes = (
(111,212,o),
(151,262,o),
(261,255,c),
(261,156,l),
(254,109,o),
(224,68,o),
(177,68,cs),
(138,68,o),
(111,98,o),
(111,145,cs)
);
},
{
closed = 1;
nodes = (
(476,-16,o),
(522,-8,o),
(576,41,c),
(533,102,l),
(499,73,o),
(469,64,o),
(440,64,cs),
(366,64,o),
(333,157,o),
(336,239,c),
(578,239,l),
(609,405,o),
(552,566,o),
(426,566,cs),
(333,566,o),
(262,465,o),
(262,273,cs),
(262,98,o),
(320,-16,o),
(440,-16,cs)
);
},
{
closed = 1;
nodes = (
(333,420,o),
(372,486,o),
(425,486,cs),
(484,486,o),
(522,403,o),
(514,312,c),
(332,312,l)
);
}
);
width = 620;
}
);
unicode = 230;
},
{
glyphname = b;
layers = (
{
anchors = (
{
name = bottom;
pos = (310,0);
},
{
name = top;
pos = (310,750);
}
);
layerId = m01;
name = Regular;
shapes = (
{
closed = 1;
nodes = (
(207,750,l),
(112,750,l),
(112,-8,l),
(207,-8,l)
);
},
{
closed = 1;
nodes = (
(489,-16,o),
(562,121,o),
(562,271,cs),
(562,419,o),
(490,558,o),
(347,558,cs),
(211,558,o),
(141,399,o),
(141,271,cs),
(141,131,o),
(214,-16,o),
(347,-16,cs)
);
},
{
closed = 1;
nodes = (
(242,71,o),
(186,174,o),
(186,271,cs),
(186,356,o),
(241,470,o),
(336,470,cs),
(435,470,o),
(468,361,o),
(468,271,cs),
(468,179,o),
(435,71,o),
(336,71,cs)
);
},
{
closed = 1;
nodes = (
(20,692,l),
(207,660,l),
(207,750,l),
(20,750,l)
);
}
);
width = 620;
}
);
unicode = 98;
},
{
glyphname = c;
layers = (
{
anchors = (
{
name = bottom;
pos = (310,0);
},
{
name = top;
pos = (310,550);
}
);
layerId = m01;
name = Regular;
shapes = (
{
closed = 1;
nodes = (
(417,-15,o),
(490,14,o),
(544,62,c),
(494,133,l),
(448,95,o),
(399,71,o),
(337,71,cs),
(225,71,o),
(161,146,o),
(161,273,cs),
(161,402,o),
(223,478,o),
(329,478,cs),
(382,478,o),
(427,451,o),
(451,405,c),
(527,440,l),
(491,519,o),
(417,566,o),
(329,566,cs),
(164,566,o),
(66,457,o),
(66,273,cs),
(66,88,o),
(167,-18,o),
(337,-16,cs)
);
}
);
width = 620;
}
);
unicode = 99;
},
{
glyphname = ccedilla;
layers = (
{
layerId = m01;
name = Regular;
shapes = (
{
ref = c;
},
{
ref = cedillacomb;
}
);
width = 620;
},
{
associatedMasterId = m01;
layerId = "351AEAC9-8865-4244-8E16-A6EC4482FC8A";
name = "Nov 2, 23 at 15:59";
shapes = (
{
ref = c;
},
{
closed = 1;
nodes = (
(289,-96,l),
(334,-96,o),
(374,-102,o),
(374,-126,cs),
(374,-151,o),
(342,-158,o),
(307,-158,cs),
(270,-158,o),
(236,-143,o),
(211,-129,c),
(183,-180,l),
(215,-201,o),
(261,-216,o),
(307,-216,cs),
(383,-216,o),
(436,-183,o),
(436,-124,cs),
(436,-87,o),
(400,-46,o),
(317,-46,c),
(268,-45,l),
(268,-96,l)
);
},
{
closed = 1;
nodes = (
(309,51,l),
(228,-90,l),
(228,-96,l),
(289,-96,l),
(382,51,l)
);
}
);
width = 620;
}
);
unicode = 231;
},
{
glyphname = d;
layers = (
{
anchors = (
{
name = bottom;
pos = (310,0);
},
{
name = top;
pos = (310,750);
},
{
name = topright;
pos = (504,750);
}
);
layerId = m01;
name = Regular;
shapes = (
{
closed = 1;
nodes = (
(504,750,l),
(409,750,l),
(409,4,l),
(504,46,l)
);
},
{
closed = 1;
nodes = (
(446,106,l),
(408,80,o),
(369,70,o),
(318,70,cs),
(226,70,o),
(155,150,o),
(155,273,cs),
(155,396,o),
(204,470,o),
(312,470,cs),
(366,470,o),
(420,434,o),
(428,392,c),
(471,392,l),
(464,481,o),
(392,558,o),
(292,558,cs),
(168,558,o),
(60,456,o),
(60,273,cs),
(60,100,o),
(179,-17,o),
(318,-17,cs),
(390,-17,o),
(450,13,o),
(496,43,c)
);
},
{
closed = 1;
nodes = (
(416,70,l),
(435,16,o),
(478,-12,o),
(568,-8,c),
(568,73,l),
(525,75,o),
(504,95,o),
(504,131,c)
);
}
);
width = 620;
}
);
unicode = 100;
},
{
glyphname = dcroat;
layers = (
{
anchors = (
{
name = bottom;
pos = (300,0);
},
{
name = center;
pos = (300,275);
},
{
name = top;
pos = (300,750);
},
{
name = topright;
pos = (494,750);
}
);
layerId = m01;
shapes = (
{
closed = 1;
nodes = (
(494,750,l),
(399,750,l),
(399,4,l),
(494,46,l)
);
},
{
closed = 1;
nodes = (
(436,106,l),
(398,80,o),
(359,70,o),
(308,70,cs),
(217,70,o),
(145,147,o),
(145,267,cs),
(145,387,o),
(197,458,o),
(302,458,cs),
(352,458,o),
(410,422,o),
(418,380,c),
(461,380,l),
(454,469,o),
(377,546,o),
(282,546,cs),
(161,546,o),
(50,447,o),
(50,267,cs),
(50,97,o),
(170,-17,o),
(308,-17,cs),
(380,-17,o),
(440,13,o),
(486,43,c)
);
},
{
closed = 1;
nodes = (
(406,70,l),
(425,16,o),
(468,-12,o),
(558,-8,c),
(558,73,l),
(515,75,o),
(494,95,o),
(494,131,c)
);
},
{
closed = 1;
nodes = (
(254,603,l),
(580,603,l),
(580,677,l),
(254,677,l)
);
}
);
width = 620;
},
{
associatedMasterId = m01;
layerId = "9CDD7849-394E-4BDB-8A0A-FAF93BA83CDF";
name = "Nov 11, 23 at 19:50";
shapes = (
{
pos = (-10,0);
ref = d;
},
{
closed = 1;
nodes = (
(259,606,l),
(580,606,l),
(580,683,l),
(259,683,l)
);
}
);
visible = 1;
width = 620;
},
{
anchors = (
{
name = bottom;
pos = (300,0);
},
{
name = center;
pos = (300,275);
},
{
name = top;
pos = (300,750);
},
{
name = topright;
pos = (494,750);
}
);
associatedMasterId = m01;
layerId = "D10D7003-9F93-4FEE-8793-E147A6220152";
name = "Nov 11, 23 at 19:56";
shapes = (
{
closed = 1;
nodes = (
(494,750,l),
(399,750,l),
(399,4,l),
(494,46,l)
);
},
{
closed = 1;
nodes = (
(436,106,l),
(398,80,o),
(359,70,o),
(308,70,cs),
(217,70,o),
(145,147,o),
(145,267,cs),
(145,387,o),
(197,458,o),
(302,458,cs),
(352,458,o),
(410,422,o),
(418,380,c),
(461,380,l),
(454,469,o),
(377,546,o),
(282,546,cs),
(161,546,o),
(50,447,o),
(50,267,cs),
(50,97,o),
(170,-17,o),
(308,-17,cs),
(380,-17,o),
(440,13,o),
(486,43,c)
);
},
{
closed = 1;
nodes = (
(406,70,l),
(425,16,o),
(468,-12,o),
(558,-8,c),
(558,73,l),
(515,75,o),
(494,95,o),
(494,131,c)
);
},
{
closed = 1;
nodes = (
(254,609,l),
(580,609,l),
(580,683,l),
(254,683,l)
);
}
);
width = 620;
}
);
unicode = 273;
},
{
glyphname = eth;
layers = (
{
anchors = (
{
name = bottom;
pos = (310,0);
},
{
name = top;
pos = (310,750);
}
);
layerId = m01;
shapes = (
{
closed = 1;
nodes = (
(433,130,o),
(378,67,o),
(300,67,cs),
(214,67,o),
(167,130,o),
(167,208,cs),
(167,303,o),
(214,369,o),
(300,369,cs),
(378,369,o),
(433,303,o),
(433,208,cs)
);
},
{
closed = 1;
nodes = (
(72,79,o),
(163,-16,o),
(301,-16,cs),
(490,-16,o),
(550,157,o),
(534,322,cs),
(521,459,o),
(459,623,o),
(202,766,c),
(157,691,l),
(320,604,o),
(422,484,o),
(437,388,c),
(409,424,o),
(354,455,o),
(288,455,cs),
(160,455,o),
(72,348,o),
(72,208,cs)
);
},
{
closed = 1;
nodes = (
(200,491,l),
(483,695,l),
(439,755,l),
(157,550,l)
);
}
);
width = 620;
},
{
associatedMasterId = m01;
layerId = "021A9127-9D7B-435B-9152-73FF0843D522";
name = "Nov 2, 23 at 13:08";
shapes = (
{
closed = 1;
nodes = (
(442,138,o),
(391,65,o),
(308,65,cs),
(222,65,o),
(175,136,o),
(175,212,cs),
(175,288,o),
(213,369,o),
(301,369,cs),
(394,369,o),
(442,297,o),
(442,218,cs)
);
},
{
closed = 1;
nodes = (
(80,84,o),
(167,-16,o),
(305,-16,cs),
(490,-16,o),
(555,158,o),
(539,322,cs),
(526,457,o),
(463,623,o),
(215,766,c),
(168,693,l),
(320,618,o),
(424,490,o),
(439,392,c),
(407,428,o),
(350,449,o),
(298,449,cs),
(158,450,o),
(80,338,o),
(80,211,cs)
);
},
{
closed = 1;
nodes = (
(210,491,l),
(216,491,l),
(434,681,l),
(433,766,l),
(426,766,l),
(210,576,l)
);
}
);
width = 620;
},
{
associatedMasterId = m01;
layerId = "51BEAAA1-C5C1-4356-85AA-B0C753791B76";
name = "Nov 2, 23 at 13:11";
shapes = (
{
closed = 1;
nodes = (
(442,138,o),
(391,65,o),
(308,65,cs),
(222,65,o),
(175,136,o),
(175,212,cs),
(175,288,o),
(213,369,o),
(301,369,cs),
(394,369,o),
(442,297,o),
(442,218,cs)
);
},
{
closed = 1;
nodes = (
(80,84,o),
(167,-16,o),
(305,-16,cs),
(490,-16,o),
(555,158,o),
(539,322,cs),
(526,457,o),
(463,623,o),
(215,766,c),
(168,693,l),
(320,618,o),
(424,490,o),
(439,392,c),
(407,428,o),
(350,449,o),
(298,449,cs),
(158,450,o),
(80,338,o),
(80,211,cs)
);
},
{
closed = 1;
nodes = (
(252,517,l),
(464,744,l),
(464,750,l),
(373,750,l),
(161,523,l),
(161,517,l)
);
}
);
width = 620;
},
{
associatedMasterId = m01;
layerId = "F4B55A44-4DD8-472C-BD27-73865E288F8F";
name = "Nov 2, 23 at 13:37";
shapes = (
{
closed = 1;
nodes = (
(442,138,o),
(391,65,o),
(308,65,cs),
(222,65,o),
(175,136,o),
(175,212,cs),
(175,288,o),
(213,369,o),
(301,369,cs),
(394,369,o),
(442,297,o),
(442,218,cs)
);
},
{
closed = 1;
nodes = (
(80,84,o),
(167,-16,o),
(305,-16,cs),
(490,-16,o),
(554,158,o),
(539,322,cs),
(526,460,o),
(464,623,o),
(207,766,c),
(162,693,l),
(319,618,o),
(424,490,o),
(439,392,c),
(407,428,o),
(350,449,o),
(298,449,cs),
(158,450,o),
(80,338,o),
(80,211,cs)
);
},
{
closed = 1;
nodes = (
(226,490,l),
(472,713,l),
(425,766,l),
(179,544,l)
);
}
);
width = 620;
},
{
associatedMasterId = m01;
layerId = "EF1F5CB3-77E5-4DB1-A60A-A37D46C56CAC";
name = "Nov 5, 23 at 15:14";
shapes = (
{
closed = 1;
nodes = (
(438,123,o),
(382,65,o),
(310,65,cs),
(220,65,o),
(175,128,o),
(175,207,cs),
(175,290,o),
(220,359,o),
(303,359,cs),
(382,359,o),
(438,295,o),
(438,213,cs)
);
},
{
closed = 1;
nodes = (
(80,79,o),
(168,-16,o),
(306,-16,cs),
(492,-16,o),
(554,158,o),
(539,322,cs),
(526,460,o),
(464,623,o),
(207,766,c),
(162,693,l),
(319,618,o),
(431,479,o),
(441,382,c),
(409,418,o),
(350,439,o),
(298,439,cs),
(158,440,o),
(80,333,o),
(80,206,cs)
);
},
{
closed = 1;
nodes = (
(226,490,l),
(472,713,l),
(425,766,l),
(179,544,l)
);
}
);
width = 620;
}
);
unicode = 240;
},
{
glyphname = e;
layers = (
{
anchors = (
{
name = bottom;
pos = (310,0);
},
{
name = ogonek;
pos = (558,10);
},
{
name = top;
pos = (310,550);
}
);
layerId = m01;
name = Regular;
shapes = (
{
closed = 1;
nodes = (
(380,-16,o),
(439,-11,o),
(528,30,c),
(495,106,l),
(428,76,o),
(368,70,o),
(338,70,cs),
(247,70,o),
(170,109,o),
(156,218,c),
(537,218,l),
(581,379,o),
(507,566,o),
(313,566,cs),
(157,566,o),
(58,461,o),
(58,273,cs),
(58,87,o),
(169,-16,o),
(328,-16,cs)
);
},
{
closed = 1;
nodes = (
(152,396,o),
(210,478,o),
(310,478,cs),
(414,478,o),
(470,396,o),
(462,303,c),
(152,303,l)
);
}
);
width = 620;
}
);
unicode = 101;
},
{
glyphname = f;
layers = (
{
anchors = (
{
name = bottom;
pos = (310,-200);
},
{
name = top;
pos = (310,750);
}
);
layerId = m01;
name = Regular;
shapes = (
{
closed = 1;
nodes = (
(64,401,l),
(537,401,l),
(537,489,l),
(64,489,l)
);
},
{
closed = 1;
nodes = (
(344,637,o),
(359,678,o),
(444,678,cs),
(479,678,o),
(527,663,o),
(567,639,c),
(610,713,l),
(555,746,o),
(489,766,o),
(427,766,cs),
(374,766,o),
(251,762,o),
(251,604,cs),
(251,587,o),
(251,588,o),
(251,571,c),
(251,376,o),
(251,172,o),
(251,-23,cs),
(251,-64,o),
(241,-110,o),
(168,-110,cs),
(68,-110,l),
(68,-200,l),
(219,-200,ls),
(329,-200,o),
(344,-113,o),
(344,-23,cs),
(344,561,ls)
);
}
);
width = 620;
}
);
unicode = 102;
},
{
glyphname = g;
layers = (
{
anchors = (
{
name = bottom;
pos = (310,-200);
},
{
name = top;
pos = (310,550);
}
);
layerId = m01;
name = Regular;
shapes = (
{
closed = 1;
nodes = (
(226,265,o),
(175,302,o),
(176,368,cs),
(177,423,o),
(222,479,o),
(302,479,cs),
(382,479,o),
(425,423,o),
(426,368,cs),
(427,302,o),
(383,265,o),
(302,265,cs)
);
},
{
closed = 1;
nodes = (
(404,483,l),
(528,483,o),
(564,534,o),
(564,641,c),
(459,641,l),
(459,584,o),
(451,536,o),
(404,536,c)
);
},
{
closed = 1;
nodes = (
(54,-85,l),
(105,-178,o),
(194,-216,o),
(310,-216,cs),
(481,-216,o),
(564,-140,o),
(564,-33,cs),
(564,55,o),
(495,114,o),
(329,114,cs),
(321,114,o),
(307,114,o),
(299,114,cs),
(245,114,o),
(183,116,o),
(183,144,cs),
(183,168,o),
(229,179,o),
(289,182,cs),
(415,188,o),
(521,235,o),
(522,368,cs),
(523,483,o),
(428,566,o),
(302,566,cs),
(174,566,o),
(80,482,o),
(80,368,cs),
(80,297,o),
(119,243,o),
(175,214,c),
(138,205,o),
(85,178,o),
(85,129,cs),
(85,77,o),
(146,29,o),
(284,29,cs),
(339,29,ls),
(442,29,o),
(470,2,o),
(470,-37,cs),
(470,-90,o),
(426,-133,o),
(308,-133,cs),
(236,-133,o),
(168,-114,o),
(128,-45,c)
);
}
);
width = 620;
},
{
associatedMasterId = m01;
layerId = "08411037-C265-4F8D-82B3-7CF53E33401F";
name = "May 14, 23 13:39";
shapes = (
{
closed = 1;
nodes = (
(226,265,o),
(175,302,o),
(176,368,cs),
(177,423,o),
(222,479,o),
(302,479,cs),
(382,479,o),
(425,423,o),
(426,368,cs),
(427,302,o),
(383,265,o),
(302,265,cs)
);
},
{
closed = 1;
nodes = (
(404,483,l),
(528,483,o),
(564,534,o),
(564,641,c),
(459,641,l),
(459,584,o),
(451,536,o),
(404,536,c)
);
},
{
closed = 1;
nodes = (
(54,-85,l),
(105,-178,o),
(194,-216,o),
(310,-216,cs),
(481,-216,o),
(564,-140,o),
(564,-33,cs),
(564,55,o),
(495,116,o),
(329,114,cs),
(321,114,o),
(304,114,o),
(296,114,cs),
(251,114,o),
(212,119,o),
(212,145,cs),
(212,167,o),
(246,178,o),
(296,182,cs),
(424,192,o),
(522,235,o),
(522,368,cs),
(522,483,o),
(428,566,o),
(302,566,cs),
(174,566,o),
(80,482,o),
(80,368,cs),
(80,301,o),
(116,250,o),
(170,214,c),
(141,197,o),
(115,163,o),
(115,132,cs),
(115,89,o),
(147,29,o),
(284,29,cs),
(339,29,ls),
(442,29,o),
(470,2,o),
(470,-37,cs),
(470,-90,o),
(426,-133,o),
(308,-133,cs),
(236,-133,o),
(168,-114,o),
(128,-45,c)
);
}
);
width = 620;
},
{
associatedMasterId = m01;
layerId = "8FFCA4E8-5506-441E-AD81-E8FB740652CE";
name = "Sep 16, 23 15:47";
shapes = (
{
closed = 1;
nodes = (
(226,265,o),
(175,302,o),
(176,368,cs),
(177,423,o),
(222,479,o),
(302,479,cs),
(382,479,o),
(425,423,o),
(426,368,cs),
(427,302,o),
(383,265,o),
(302,265,cs)
);
},
{
closed = 1;
nodes = (
(404,483,l),
(528,483,o),
(564,534,o),
(564,641,c),
(459,641,l),
(459,584,o),
(451,536,o),
(404,536,c)
);
},
{
closed = 1;
nodes = (
(54,-85,l),
(105,-178,o),
(194,-216,o),
(310,-216,cs),
(481,-216,o),
(564,-140,o),
(564,-33,cs),
(564,55,o),
(495,116,o),
(329,114,cs),
(321,114,o),
(308,114,o),
(300,114,cs),
(246,113,o),
(213,119,o),
(213,145,cs),
(213,167,o),
(241,178,o),
(307,183,cs),
(424,191,o),
(522,232,o),
(522,368,cs),
(522,483,o),
(428,566,o),
(302,566,cs),
(174,566,o),
(80,482,o),
(80,368,cs),
(80,297,o),
(119,243,o),
(175,214,c),
(139,195,o),
(115,169,o),
(115,130,cs),
(115,95,o),
(151,29,o),
(284,29,cs),
(339,29,ls),
(442,29,o),
(470,2,o),
(470,-37,cs),
(470,-90,o),
(426,-133,o),
(308,-133,cs),
(236,-133,o),
(168,-114,o),
(128,-45,c)
);
}
);
width = 620;
}
);
unicode = 103;
},
{
glyphname = h;
layers = (
{
anchors = (
{
name = bottom;
pos = (310,0);
},
{
name = top;
pos = (310,750);
}
);
layerId = m01;
name = Regular;
shapes = (
{
closed = 1;
nodes = (
(114,0,l),
(209,0,l),
(209,750,l),
(114,700,l)
);
},
{
closed = 1;
nodes = (
(196,372,l),
(265,426,o),
(319,447,o),
(366,447,cs),
(419,447,o),
(445,416,o),
(445,339,cs),
(445,219,o),
(445,120,o),
(445,0,c),
(544,0,l),
(544,129,o),
(544,236,o),
(544,365,cs),
(544,499,o),
(480,543,o),
(399,544,cs),
(328,545,o),
(255,509,o),
(196,466,c)
);
},
{
closed = 1;
nodes = (
(22,692,l),
(209,660,l),
(209,750,l),
(22,750,l)
);
}
);
width = 620;
}
);
unicode = 104;
},
{
glyphname = idotless;
layers = (
{
anchors = (
{
name = bottom;
pos = (295,0);
},
{
name = ogonek;
pos = (533,0);
},
{
name = top;
pos = (295,550);
}
);
layerId = m01;
name = Regular;
shapes = (
{
closed = 1;
nodes = (
(139,421,l),
(372,421,l),
(372,509,l),
(139,509,l)
);
},
{
closed = 1;
nodes = (
(274,509,l),
(274,0,l),
(372,0,l),
(372,509,l)
);
},
{
closed = 1;
nodes = (
(85,0,l),
(533,0,l),
(533,88,l),
(85,88,l)
);
}
);
width = 620;
}
);
unicode = 305;
},
{
glyphname = jdotless;
layers = (
{
anchors = (
{
name = bottom;
pos = (340,-200);
},
{
name = top;
pos = (340,550);
}
);
layerId = m01;
shapes = (
{
closed = 1;
nodes = (
(141,425,l),
(465,425,l),
(465,513,l),
(141,513,l)
);
},
{
closed = 1;
nodes = (
(367,513,l),
(367,7,ls),
(367,-76,o),
(363,-110,o),
(286,-110,cs),
(83,-110,l),
(83,-200,l),
(307,-200,ls),
(458,-200,o),
(465,-129,o),
(465,7,cs),
(465,513,l)
);
}
);
width = 620;
}
);
unicode = 567;
},
{
glyphname = k;
layers = (
{
anchors = (
{
name = bottom;
pos = (310,0);
},
{
name = top;
pos = (310,750);
}
);
layerId = m01;
name = Regular;
shapes = (
{
closed = 1;
nodes = (
(575,0,l),
(575,10,l),
(318,314,l),
(532,540,l),
(532,550,l),
(418,550,l),
(193,312,l),
(193,750,l),
(95,750,l),
(95,0,l),
(193,0,l),
(193,181,l),
(257,249,l),
(464,0,l)
);
}
);
width = 620;
}
);
unicode = 107;
},
{
glyphname = l;
layers = (
{
anchors = (
{
name = bottom;
pos = (300,0);
},
{
name = top;
pos = (300,750);
}
);
layerId = m01;
name = Regular;
shapes = (
{
closed = 1;
nodes = (
(212,177,ls),
(212,87,o),
(232,0,o),
(342,0,cs),
(509,0,l),
(509,90,l),
(391,90,ls),
(318,90,o),
(310,136,o),
(310,177,cs),
(310,750,l),
(212,700,l)
);
},
{
closed = 1;
nodes = (
(93,693,l),
(310,655,l),
(310,750,l),
(93,750,l)
);
}
);
width = 620;
},
{
anchors = (
{
name = bottom;
pos = (300,0);
},
{
name = top;
pos = (300,750);
}
);
associatedMasterId = m01;
layerId = "961E1B1E-C1D6-44C2-949E-4B390BA0C986";
name = "Nov 29, 23 at 10:52";
shapes = (
{
closed = 1;
nodes = (
(212,177,ls),
(212,87,o),
(232,0,o),
(342,0,cs),
(405,0,l),
(405,90,l),
(391,90,ls),
(318,90,o),
(310,136,o),
(310,177,cs),
(310,750,l),
(212,700,l)
);
},
{
closed = 1;
nodes = (
(93,693,l),
(310,655,l),
(310,750,l),
(93,750,l)
);
}
);
width = 620;
},
{
anchors = (
{
name = bottom;
pos = (300,0);
},
{
name = top;
pos = (300,750);
}
);
associatedMasterId = m01;
layerId = "6C494861-9C6C-4D88-AD0C-F0A81631296B";
name = "Nov 28, 23 at 4:57PM";
shapes = (
{
closed = 1;
nodes = (
(212,177,ls),
(212,87,o),
(232,0,o),
(342,0,cs),
(509,0,l),
(509,90,l),
(391,90,ls),
(318,90,o),
(310,136,o),
(310,177,cs),
(310,750,l),
(212,700,l)
);
},
{
closed = 1;
nodes = (
(100,693,l),
(310,655,l),
(310,750,l),
(100,750,l)
);
}
);
width = 620;
},
{
anchors = (
{
name = bottom;
pos = (300,0);
},
{
name = top;
pos = (300,750);
}
);
associatedMasterId = m01;
layerId = "0368107A-1456-44A1-B26F-69A05A4CE9B2";
name = "Nov 28, 23 at 4:56PM";
shapes = (
{
closed = 1;
nodes = (
(212,177,ls),
(212,87,o),
(232,0,o),
(342,0,cs),
(408,0,l),
(408,90,l),
(391,90,ls),
(318,90,o),
(310,136,o),
(310,177,cs),
(310,750,l),
(212,700,l)
);
},
{
closed = 1;
nodes = (
(100,693,l),
(310,655,l),
(310,750,l),
(100,750,l)
);
}
);
width = 620;
}
);
unicode = 108;
},
{
glyphname = m;
layers = (
{
anchors = (
{
name = bottom;
pos = (310,0);
},
{
name = top;
pos = (310,550);
}
);
associatedMasterId = m01;
layerId = "A8448305-33B5-4E89-A9D1-EACE54140581";
name = "Dec 3, 23 at 10:08";
shapes = (
{
closed = 1;
nodes = (
(26,359,o),
(29,164,o),
(39,0,c),
(134,0,l),
(126,144,o),
(119,297,o),
(126,432,c),
(152,468,o),
(189,489,o),
(214,489,cs),
(248,489,o),
(264,465,o),
(264,422,cs),
(262,0,l),
(359,0,l),
(357,448,ls),
(357,522,o),
(309,566,o),
(248,566,cs),
(206,566,o),
(161,540,o),
(125,502,c),
(118,554,l),
(36,554,l)
);
},
{
closed = 1;
nodes = (
(327,400,l),
(355,435,o),
(395,489,o),
(445,489,cs),
(487,489,o),
(491,460,o),
(494,418,cs),
(501,303,o),
(495,141,o),
(487,0,c),
(584,0,l),
(593,152,o),
(594,304,o),
(586,450,cs),
(582,523,o),
(536,566,o),
(474,566,cs),
(423,566,o),
(362,524,o),
(327,474,c)
);
}
);
width = 620;
},
{
anchors = (
{
name = bottom;
pos = (310,0);
},
{
name = top;
pos = (310,550);
}
);
layerId = m01;
name = Regular;
shapes = (
{
closed = 1;
nodes = (
(34,359,o),
(37,164,o),
(47,0,c),
(140,0,l),
(133,146,o),
(127,297,o),
(134,432,c),
(160,468,o),
(191,489,o),
(216,489,cs),
(249,489,o),
(265,465,o),
(265,422,cs),
(264,0,l),
(358,0,l),
(357,448,ls),
(357,515,o),
(320,566,o),
(253,566,cs),
(211,566,o),
(169,540,o),
(133,502,c),
(126,554,l),
(44,554,l)
);
},
{
closed = 1;
nodes = (
(328,392,l),
(352,435,o),
(395,489,o),
(436,489,cs),
(475,489,o),
(484,460,o),
(486,418,cs),
(492,305,o),
(489,143,o),
(482,0,c),
(575,0,l),
(584,152,o),
(585,304,o),
(577,450,cs),
(573,522,o),
(530,566,o),
(465,566,cs),
(415,566,o),
(363,526,o),
(328,476,c)
);
}
);
width = 620;
},
{
anchors = (
{
name = bottom;
pos = (310,0);
},
{
name = top;
pos = (310,550);
}
);
associatedMasterId = m01;
layerId = "CA120B53-3DCB-4C2D-82B3-C2678D5C035E";
name = "Dec 3, 23 at 10:16";
shapes = (
{
closed = 1;
nodes = (
(31,359,o),
(34,164,o),
(44,0,c),
(138,0,l),
(131,146,o),
(124,297,o),
(131,432,c),
(157,468,o),
(191,489,o),
(216,489,cs),
(249,489,o),
(265,465,o),
(265,422,cs),
(263,0,l),
(359,0,l),
(357,448,ls),
(357,515,o),
(320,566,o),
(253,566,cs),
(211,566,o),
(166,540,o),
(130,502,c),
(123,554,l),
(41,554,l)
);
},
{
closed = 1;
nodes = (
(328,392,l),
(352,435,o),
(397,489,o),
(439,489,cs),
(478,489,o),
(487,460,o),
(489,418,cs),
(495,305,o),
(491,143,o),
(484,0,c),
(578,0,l),
(587,152,o),
(588,304,o),
(580,450,cs),
(576,522,o),
(533,566,o),
(468,566,cs),
(418,566,o),
(363,526,o),
(328,476,c)
);
}
);
width = 620;
}
);
unicode = 109;
},
{
glyphname = n;
layers = (
{
anchors = (
{
name = bottom;
pos = (310,0);
},
{
name = top;
pos = (310,550);
}
);
layerId = m01;
shapes = (
{
closed = 1;
nodes = (
(87,0,l),
(183,0,l),
(183,394,l),
(252,448,o),
(306,470,o),
(353,470,cs),
(406,470,o),
(432,438,o),
(432,361,cs),
(432,241,o),
(432,120,o),
(432,0,c),
(531,0,l),
(531,129,o),
(531,248,o),
(531,377,cs),
(531,515,o),
(463,565,o),
(387,566,cs),
(319,567,o),
(240,532,o),
(182,487,c),
(173,554,l),
(87,554,l)
);
}
);
width = 620;
}
);
unicode = 110;
},
{
glyphname = o;
layers = (
{
anchors = (
{
name = bottom;
pos = (310,0);
},
{
name = center;
pos = (310,275);
},
{
name = ogonek;
pos = (558,10);
},
{
name = top;
pos = (310,550);
},
{
name = topright;
pos = (450,523);
}
);
layerId = m01;
shapes = (
{
closed = 1;
nodes = (
(469,-16,o),
(555,100,o),
(555,275,cs),
(555,450,o),
(470,566,o),
(310,566,cs),
(151,566,o),
(65,450,o),
(65,275,cs),
(65,100,o),
(151,-16,o),
(310,-16,cs)
);
},
{
closed = 1;
nodes = (
(201,71,o),
(160,158,o),
(160,275,cs),
(160,392,o),
(201,478,o),
(310,478,cs),
(419,478,o),
(460,392,o),
(460,275,cs),
(460,158,o),
(419,71,o),
(310,71,cs)
);
}
);
width = 620;
}
);
unicode = 111;
},
{
glyphname = oslash;
layers = (
{
layerId = m01;
shapes = (
{
ref = o;
},
{
closed = 1;
nodes = (
(124,-86,l),
(588,631,l),
(588,637,l),
(496,637,l),
(32,-80,l),
(32,-86,l)
);
}
);
width = 620;
},
{
associatedMasterId = m01;
layerId = "D893B254-7D46-46F1-AC15-920F4EF9107C";
name = "Nov 1, 23 at 21:20";
shapes = (
{
ref = o;
},
{
closed = 1;
nodes = (
(116,-46,l),
(596,590,l),
(596,596,l),
(504,596,l),
(24,-40,l),
(24,-46,l)
);
}
);
width = 620;
}
);
unicode = 248;
},
{
glyphname = oe;
layers = (
{
anchors = (
{
name = bottom;
pos = (310,0);
},
{
name = top;
pos = (310,550);
}
);
layerId = m01;
shapes = (
{
closed = 1;
nodes = (
(309,-16,o),
(344,128,o),
(344,275,cs),
(344,421,o),
(309,566,o),
(184,566,cs),
(54,566,o),
(18,423,o),
(18,275,cs),
(18,126,o),
(54,-16,o),
(184,-16,cs)
);
},
{
closed = 1;
nodes = (
(105,66,o),
(97,206,o),
(97,276,cs),
(97,345,o),
(104,485,o),
(184,485,cs),
(259,485,o),
(266,345,o),
(266,276,cs),
(266,206,o),
(259,66,o),
(184,66,cs)
);
},
{
closed = 1;
nodes = (
(487,-16,o),
(533,-8,o),
(587,41,c),
(542,104,l),
(508,75,o),
(480,64,o),
(451,64,cs),
(380,64,o),
(342,143,o),
(346,239,c),
(590,239,l),
(620,405,o),
(569,566,o),
(438,566,cs),
(342,566,o),
(270,465,o),
(270,273,cs),
(270,124,o),
(320,-16,o),
(451,-16,cs)
);
},
{
closed = 1;
nodes = (
(346,420,o),
(384,485,o),
(438,485,cs),
(496,485,o),
(531,403,o),
(523,312,c),
(345,312,l)
);
}
);
width = 620;
},
{
associatedMasterId = m01;
layerId = "BCEE0FD1-6D7C-4919-A94D-113B4C5B97DE";
name = "Nov 2, 23 at 16:28";
shapes = (
{
closed = 1;
nodes = (
(308,-16,o),
(344,128,o),
(344,275,cs),
(344,421,o),
(309,566,o),
(183,566,cs),
(56,566,o),
(20,421,o),
(20,275,cs),
(20,128,o),
(56,-16,o),
(183,-16,cs)
);
},
{
closed = 1;
nodes = (
(101,61,o),
(96,205,o),
(96,275,cs),
(96,345,o),
(101,488,o),
(183,488,cs),
(265,488,o),
(271,345,o),
(271,275,cs),
(271,205,o),
(265,61,o),
(183,61,cs)
);
},
{
closed = 1;
nodes = (
(489,-16,o),
(535,-8,o),
(589,41,c),
(546,102,l),
(512,73,o),
(482,64,o),
(453,64,cs),
(379,64,o),
(345,157,o),
(348,239,c),
(592,239,l),
(623,405,o),
(565,566,o),
(439,566,cs),
(346,566,o),
(275,465,o),
(275,273,cs),
(275,98,o),
(333,-16,o),
(453,-16,cs)
);
},
{
closed = 1;
nodes = (
(345,420,o),
(385,486,o),
(438,486,cs),
(497,486,o),
(535,403,o),
(527,312,c),
(344,312,l)
);
}
);
width = 620;
}
);
unicode = 339;
},
{
glyphname = p;
layers = (
{
anchors = (
{
name = bottom;
pos = (310,0);
},
{
name = top;
pos = (310,550);
}
);
layerId = m01;
shapes = (
{
closed = 1;
nodes = (
(200,566,o),
(122,399,o),
(122,284,cs),
(122,169,o),
(143,-16,o),
(311,-16,cs),
(437,-16,o),
(554,110,o),
(566,280,cs),
(578,457,o),
(488,566,o),
(358,566,cs)
);
},
{
closed = 1;
nodes = (
(444,479,o),
(477,397,o),
(468,280,cs),
(458,153,o),
(398,72,o),
(306,72,cs),
(209,72,o),
(187,184,o),
(187,280,cs),
(187,385,o),
(246,479,o),
(348,479,cs)
);
},
{
closed = 1;
nodes = (
(115,-197,l),
(209,-197,l),
(209,502,l),
(199,558,l),
(115,558,l)
);
},
{
closed = 1;
nodes = (
(22,500,l),
(209,468,l),
(209,502,l),
(199,558,l),
(22,558,l)
);
}
);
width = 620;
}
);
unicode = 112;
},
{
glyphname = q;
layers = (
{
anchors = (
{
name = bottom;
pos = (310,0);
},
{
name = top;
pos = (310,550);
}
);
layerId = m01;
name = Regular;
shapes = (
{
closed = 1;
nodes = (
(413,493,l),
(413,-23,l),
(508,-23,l),
(508,558,l),
(423,558,l)
);
},
{
closed = 1;
nodes = (
(130,566,o),
(57,429,o),
(57,279,cs),
(57,131,o),
(129,-8,o),
(272,-8,cs),
(408,-8,o),
(478,151,o),
(478,279,cs),
(478,419,o),
(415,566,o),
(272,566,cs)
);
},
{
closed = 1;
nodes = (
(377,479,o),
(433,376,o),
(433,279,cs),
(433,194,o),
(378,80,o),
(283,80,cs),
(184,80,o),
(151,189,o),
(151,279,cs),
(151,371,o),
(184,479,o),
(283,479,cs)
);
},
{
closed = 1;
nodes = (
(413,-126,o),
(433,-200,o),
(543,-200,cs),
(605,-200,l),
(605,-112,l),
(519,-112,o),
(508,-102,o),
(508,-23,c),
(413,-23,l)
);
}
);
width = 620;
}
);
unicode = 113;
},
{
glyphname = r;
layers = (
{
anchors = (
{
name = bottom;
pos = (310,0);
},
{
name = top;
pos = (310,550);
}
);
layerId = m01;
name = Regular;
shapes = (
{
closed = 1;
nodes = (
(88,558,l),
(88,500,l),
(179,484,l),
(179,0,l),
(277,0,l),
(277,388,l),
(274,484,l),
(264,558,l)
);
},
{
closed = 1;
nodes = (
(67,0,l),
(488,0,l),
(488,88,l),
(67,88,l)
);
},
{
closed = 1;
nodes = (
(573,493,l),
(547,539,o),
(494,565,o),
(437,566,cs),
(358,567,o),
(292,505,o),
(234,447,c),
(234,349,l),
(302,418,o),
(356,474,o),
(413,474,cs),
(447,474,o),
(481,461,o),
(503,434,c)
);
}
);
width = 620;
}
);
unicode = 114;
},
{
glyphname = s;
layers = (
{
anchors = (
{
name = bottom;
pos = (308,0);
},
{
name = top;
pos = (308,550);
}
);
layerId = m01;
shapes = (
{
closed = 1;
nodes = (
(140,22,o),
(229,-15,o),
(319,-15,cs),
(458,-15,o),
(536,47,o),
(536,142,cs),
(536,314,o),
(199,324,o),
(203,411,cs),
(205,450,o),
(261,477,o),
(320,477,cs),
(374,477,o),
(415,456,o),
(460,422,c),
(520,486,l),
(460,537,o),
(403,565,o),
(320,565,cs),
(225,565,o),
(105,510,o),
(105,409,cs),
(105,241,o),
(438,258,o),
(438,141,cs),
(438,101,o),
(397,73,o),
(319,73,cs),
(260,73,o),
(197,101,o),
(144,137,c),
(83,70,l)
);
}
);
width = 620;
}
);
unicode = 115;
},
{
glyphname = germandbls;
layers = (
{
layerId = m01;
shapes = (
{
closed = 1;
nodes = (
(495,351,cs),
(435,387,o),
(356,395,o),
(355,426,cs),
(354,458,o),
(438,476,o),
(469,569,cs),
(498,655,o),
(428,766,o),
(288,766,cs),
(198,766,o),
(64,730,o),
(64,535,cs),
(64,0,l),
(161,0,l),
(161,515,ls),
(161,638,o),
(220,675,o),
(297,669,cs),
(377,663,o),
(392,592,o),
(348,543,cs),
(322,514,o),
(249,478,o),
(249,415,cs),
(249,361,o),
(314,332,o),
(396,303,cs),
(482,273,o),
(489,199,o),
(467,158,cs),
(439,106,o),
(372,67,o),
(249,115,c),
(224,19,l),
(352,-27,o),
(479,-21,o),
(551,99,cs),
(588,161,o),
(600,288,o)
);
}
);
width = 620;
},
{
associatedMasterId = m01;
layerId = "2B549CB2-E144-4085-A1F3-07A2B812B625";
name = "Nov 2, 23 at 11:05";
shapes = (
{
closed = 1;
nodes = (
(100,0,l),
(198,0,l),
(198,710,l),
(100,710,l)
);
},
{
closed = 1;
nodes = (
(409,11,o),
(475,41,o),
(517,81,cs),
(589,148,o),
(587,266,o),
(484,319,cs),
(413,356,o),
(353,375,o),
(353,418,cs),
(353,468,o),
(437,488,o),
(481,562,cs),
(531,647,o),
(478,743,o),
(342,748,cs),
(252,752,o),
(151,733,o),
(100,710,c),
(156,641,l),
(224,665,o),
(291,673,o),
(341,667,cs),
(421,657,o),
(438,603,o),
(331,537,cs),
(287,510,o),
(257,467,o),
(257,421,cs),
(257,350,o),
(295,312,o),
(396,267,cs),
(496,222,o),
(477,162,o),
(439,131,cs),
(417,113,o),
(366,91,o),
(277,85,c),
(302,0,l)
);
}
);
width = 620;
},
{
associatedMasterId = m01;
layerId = "7601A89F-95C5-4FFC-A619-80F0E507032C";
name = "Nov 2, 23 at 11:34";
shapes = (
{
closed = 1;
nodes = (
(68,0,l),
(166,0,l),
(166,520,ls),
(166,631,o),
(220,679,o),
(301,668,cs),
(370,659,o),
(393,593,o),
(352,543,cs),
(315,498,o),
(256,472,o),
(245,416,cs),
(233,357,o),
(265,302,o),
(379,262,cs),
(461,233,o),
(475,162,o),
(434,114,cs),
(394,68,o),
(322,79,o),
(249,106,c),
(228,15,l),
(347,-28,o),
(447,-27,o),
(510,47,cs),
(562,108,o),
(594,267,o),
(445,332,cs),
(376,362,o),
(342,377,o),
(349,410,cs),
(356,443,o),
(441,467,o),
(471,569,cs),
(494,647,o),
(439,766,o),
(292,766,cs),
(202,766,o),
(68,730,o),
(68,535,cs)
);
}
);
width = 620;
}
);
unicode = 223;
},
{
glyphname = t;
layers = (
{
anchors = (
{
name = bottom;
pos = (310,0);
},
{
name = center;
pos = (310,275);
},
{
name = top;
pos = (310,550);
}
);
layerId = m01;
name = Regular;
shapes = (
{
closed = 1;
nodes = (
(71,462,l),
(529,462,l),
(529,550,l),
(71,550,l)
);
},
{
closed = 1;
nodes = (
(225,679,l),
(225,177,ls),
(225,87,o),
(245,0,o),
(353,0,cs),
(526,0,l),
(526,90,l),
(404,90,ls),
(331,90,o),
(323,136,o),
(323,177,cs),
(323,679,l)
);
}
);
width = 620;
}
);
unicode = 116;
},
{
glyphname = u;
layers = (
{
anchors = (
{
name = bottom;
pos = (310,0);
},
{
name = ogonek;
pos = (576,-8);
},
{
name = top;
pos = (310,550);
},
{
name = topright;
pos = (468,550);
}
);
layerId = m01;
shapes = (
{
closed = 1;
nodes = (
(452,16,o),
(487,-12,o),
(576,-8,c),
(576,73,l),
(533,75,o),
(519,95,o),
(519,131,cs),
(519,550,l),
(423,550,l),
(423,70,l),
(433,70,l)
);
},
{
closed = 1;
nodes = (
(77,206,ls),
(77,42,o),
(146,-15,o),
(237,-16,cs),
(310,-17,o),
(382,25,o),
(442,74,c),
(442,167,l),
(370,103,o),
(317,81,o),
(266,81,cs),
(188,81,o),
(176,155,o),
(176,257,cs),
(176,550,l),
(77,550,l)
);
}
);
width = 620;
},
{
anchors = (
{
name = bottom;
pos = (310,0);
},
{
name = ogonek;
pos = (576,-8);
},
{
name = top;
pos = (310,550);
},
{
name = topright;
pos = (519,550);
}
);
associatedMasterId = m01;
layerId = "C4F92744-B4CA-4972-98C4-85F90FF86507";
name = "Nov 11, 23 at 9:21";
shapes = (
{
closed = 1;
nodes = (
(452,16,o),
(487,-12,o),
(576,-8,c),
(576,73,l),
(533,75,o),
(519,95,o),
(519,131,cs),
(519,550,l),
(423,550,l),
(423,70,l),
(433,70,l)
);
},
{
closed = 1;
nodes = (
(77,206,ls),
(77,42,o),
(146,-15,o),
(237,-16,cs),
(310,-17,o),
(382,25,o),
(442,74,c),
(442,167,l),
(370,103,o),
(317,81,o),
(266,81,cs),
(188,81,o),
(176,155,o),
(176,257,cs),
(176,550,l),
(77,550,l)
);
}
);
width = 620;
}
);
unicode = 117;
},
{
glyphname = uhorn;
layers = (
{
anchors = (
{
name = bottom;
pos = (279,0);
},
{
name = top;
pos = (279,550);
},
{
name = topright;
pos = (439,550);
}
);
layerId = m01;
shapes = (
{
closed = 1;
nodes = (
(423,16,o),
(458,-12,o),
(547,-8,c),
(547,73,l),
(504,75,o),
(490,95,o),
(490,131,cs),
(490,550,l),
(394,550,l),
(394,70,l),
(404,70,l)
);
},
{
closed = 1;
nodes = (
(48,206,ls),
(48,42,o),
(117,-15,o),
(208,-16,cs),
(281,-17,o),
(353,25,o),
(413,74,c),
(413,167,l),
(341,103,o),
(288,81,o),
(237,81,cs),
(159,81,o),
(147,155,o),
(147,257,cs),
(147,550,l),
(48,550,l)
);
},
{
pos = (198,0);
ref = horncomb;
}
);
width = 620;
}
);
unicode = 432;
},
{
glyphname = v;
layers = (
{
anchors = (
{
name = bottom;
pos = (310,0);
},
{
name = top;
pos = (310,550);
}
);
layerId = m01;
name = Regular;
shapes = (
{
closed = 1;
nodes = (
(126,267,o),
(179,132,o),
(255,0,c),
(356,0,l),
(280,132,o),
(228,267,o),
(160,550,c),
(57,550,l)
);
},
{
closed = 1;
nodes = (
(460,550,l),
(392,267,o),
(340,132,o),
(264,0,c),
(365,0,l),
(441,132,o),
(494,267,o),
(563,550,c)
);
}
);
width = 620;
}
);
unicode = 118;
},
{
glyphname = w;
layers = (
{
anchors = (
{
name = bottom;
pos = (310,0);
},
{
name = top;
pos = (310,550);
}
);
layerId = m01;
shapes = (
{
closed = 1;
nodes = (
(48,307,o),
(72,123,o),
(111,0,c),
(199,0,l),
(162,123,o),
(142,307,o),
(137,550,c),
(41,550,l)
);
},
{
closed = 1;
nodes = (
(269,377,l),
(145,0,l),
(231,0,l),
(343,377,l)
);
},
{
closed = 1;
nodes = (
(389,0,l),
(475,0,l),
(351,377,l),
(277,377,l)
);
},
{
closed = 1;
nodes = (
(483,550,l),
(478,307,o),
(458,123,o),
(421,0,c),
(509,0,l),
(548,123,o),
(572,307,o),
(579,550,c)
);
}
);
width = 620;
}
);
unicode = 119;
},
{
glyphname = x;
layers = (
{
anchors = (
{
name = bottom;
pos = (310,0);
},
{
name = top;
pos = (310,550);
}
);
layerId = m01;
shapes = (
{
closed = 1;
nodes = (
(184,0,l),
(372,310,l),
(267,310,l),
(81,10,l),
(81,0,l)
);
},
{
closed = 1;
nodes = (
(189,550,l),
(86,550,l),
(86,540,l),
(272,240,l),
(377,240,l)
);
},
{
closed = 1;
nodes = (
(539,10,l),
(350,310,l),
(245,310,l),
(436,0,l),
(539,0,l)
);
},
{
closed = 1;
nodes = (
(345,240,l),
(534,540,l),
(534,550,l),
(431,550,l),
(240,240,l)
);
}
);
width = 620;
}
);
unicode = 120;
},
{
glyphname = y;
layers = (
{
anchors = (
{
name = bottom;
pos = (330,-214);
},
{
name = top;
pos = (330,550);
}
);
layerId = m01;
name = Regular;
shapes = (
{
closed = 1;
nodes = (
(128,222,ls),
(127,62,o),
(202,1,o),
(293,0,cs),
(385,-1,o),
(434,49,o),
(492,107,c),
(492,198,l),
(413,134,o),
(373,96,o),
(311,96,cs),
(234,96,o),
(226,171,o),
(226,273,cs),
(226,545,l),
(131,545,l)
);
},
{
closed = 1;
nodes = (
(441,-100,o),
(374,-125,o),
(301,-125,cs),
(171,-125,l),
(171,-215,l),
(352,-215,ls),
(462,-215,o),
(539,-153,o),
(539,-23,cs),
(539,550,l),
(441,550,l),
(441,-23,ls)
);
},
{
closed = 1;
nodes = (
(47,477,l),
(225,451,l),
(225,545,l),
(47,545,l)
);
}
);
width = 620;
}
);
unicode = 121;
},
{
glyphname = ydotbelow;
layers = (
{
anchors = (
{
name = bottom;
pos = (330,-414);
},
{
name = top;
pos = (305,550);
}
);
layerId = m01;
shapes = (
{
closed = 1;
nodes = (
(103,222,ls),
(102,62,o),
(177,1,o),
(268,0,cs),
(360,-1,o),
(409,49,o),
(467,107,c),
(467,198,l),
(388,134,o),
(348,96,o),
(286,96,cs),
(209,96,o),
(201,171,o),
(201,273,cs),
(201,545,l),
(106,545,l)
);
},
{
closed = 1;
nodes = (
(22,477,l),
(200,451,l),
(200,545,l),
(22,545,l)
);
},
{
closed = 1;
nodes = (
(199,-216,o),
(234,-181,o),
(234,-136,cs),
(234,-92,o),
(199,-56,o),
(154,-56,cs),
(111,-56,o),
(74,-92,o),
(74,-136,cs),
(74,-181,o),
(111,-216,o),
(154,-216,cs)
);
},
{
closed = 1;
nodes = (
(277,-187,l),
(306,-187,ls),
(419,-187,o),
(514,-145,o),
(514,-15,cs),
(514,550,l),
(416,550,l),
(416,-15,ls),
(416,-92,o),
(350,-100,o),
(277,-100,c)
);
}
);
width = 620;
}
);
unicode = 7925;
},
{
glyphname = z;
layers = (
{
anchors = (
{
name = bottom;
pos = (310,0);
},
{
name = top;
pos = (310,550);
}
);
layerId = m01;
shapes = (
{
closed = 1;
nodes = (
(91,462,l),
(519,462,l),
(519,550,l),
(91,550,l)
);
},
{
closed = 1;
nodes = (
(85,0,l),
(535,0,l),
(535,88,l),
(85,88,l)
);
},
{
closed = 1;
nodes = (
(211,88,l),
(519,462,l),
(393,462,l),
(85,88,l)
);
}
);
width = 620;
}
);
unicode = 122;
},
{
glyphname = i.both;
layers = (
{
anchors = (
{
name = bottom;
pos = (295,0);
},
{
name = ogonek;
pos = (462,0);
},
{
name = top;
pos = (295,766);
}
);
layerId = m01;
shapes = (
{
closed = 1;
nodes = (
(186,421,l),
(372,421,l),
(372,509,l),
(186,509,l)
);
},
{
closed = 1;
nodes = (
(274,509,l),
(274,0,l),
(372,0,l),
(372,509,l)
);
},
{
closed = 1;
nodes = (
(142,0,l),
(462,0,l),
(462,88,l),
(142,88,l)
);
},
{
closed = 1;
nodes = (
(340,606,o),
(375,641,o),
(375,686,cs),
(375,730,o),
(340,766,o),
(295,766,cs),
(252,766,o),
(215,730,o),
(215,686,cs),
(215,641,o),
(252,606,o),
(295,606,cs)
);
}
);
width = 620;
}
);
},
{
glyphname = l.both;
layers = (
{
anchors = (
{
name = bottom;
pos = (300,0);
},
{
name = top;
pos = (300,750);
}
);
layerId = m01;
shapes = (
{
closed = 1;
nodes = (
(212,177,ls),
(212,87,o),
(232,0,o),
(342,0,cs),
(433,0,l),
(433,90,l),
(380,90,ls),
(307,90,o),
(310,136,o),
(310,177,cs),
(310,750,l),
(212,700,l)
);
},
{
closed = 1;
nodes = (
(110,691,l),
(310,655,l),
(310,750,l),
(110,750,l)
);
}
);
width = 620;
}
);
},
{
glyphname = m.both;
layers = (
{
associatedMasterId = m01;
layerId = "7C0115E2-2487-4AEA-93DA-7E2E0335EDB5";
name = "Nov 21, 23 at 14:02";
shapes = (
{
closed = 1;
nodes = (
(-3,359,o),
(0,164,o),
(9,0,c),
(108,0,l),
(98,144,o),
(92,297,o),
(96,432,c),
(122,468,o),
(174,489,o),
(199,489,cs),
(233,489,o),
(263,465,o),
(263,422,cs),
(263,0,l),
(359,0,l),
(357,448,ls),
(357,518,o),
(294,566,o),
(233,566,cs),
(191,566,o),
(131,540,o),
(95,502,c),
(88,554,l),
(6,554,l)
);
},
{
closed = 1;
nodes = (
(326,401,l),
(351,437,o),
(406,489,o),
(456,489,cs),
(498,489,o),
(521,460,o),
(522,418,cs),
(526,303,o),
(523,141,o),
(516,0,c),
(612,0,l),
(621,152,o),
(622,304,o),
(614,450,cs),
(610,523,o),
(547,566,o),
(485,566,cs),
(434,566,o),
(361,528,o),
(326,478,c)
);
}
);
width = 620;
},
{
associatedMasterId = m01;
layerId = "FFA18B22-471C-4753-BD34-27F55135F8B9";
name = "Nov 21, 23 at 14:04";
shapes = (
{
closed = 1;
nodes = (
(-24,359,o),
(-21,164,o),
(-12,0,c),
(83,0,l),
(76,144,o),
(69,292,o),
(75,427,c),
(100,460,o),
(148,489,o),
(194,489,cs),
(240,489,o),
(262,464,o),
(262,407,cs),
(261,0,l),
(358,0,l),
(357,448,ls),
(357,518,o),
(294,566,o),
(226,566,cs),
(166,566,o),
(114,538,o),
(74,502,c),
(67,554,l),
(-15,554,l)
);
},
{
closed = 1;
nodes = (
(326,389,l),
(353,435,o),
(415,489,o),
(466,489,cs),
(512,489,o),
(540,460,o),
(542,418,cs),
(548,303,o),
(543,141,o),
(536,0,c),
(633,0,l),
(641,152,o),
(642,304,o),
(635,450,cs),
(631,523,o),
(577,566,o),
(495,566,cs),
(437,566,o),
(368,528,o),
(326,478,c)
);
}
);
width = 620;
},
{
layerId = m01;
name = Regular;
shapes = (
{
closed = 1;
nodes = (
(-26,359,o),
(-23,164,o),
(-14,0,c),
(81,0,l),
(74,144,o),
(67,287,o),
(73,423,c),
(100,456,o),
(150,489,o),
(193,489,cs),
(234,489,o),
(262,464,o),
(262,413,cs),
(261,0,l),
(358,0,l),
(357,427,l),
(379,455,o),
(432,489,o),
(469,489,cs),
(518,489,o),
(542,459,o),
(544,413,cs),
(549,303,o),
(545,141,o),
(538,0,c),
(635,0,l),
(643,152,o),
(645,304,o),
(637,450,cs),
(633,522,o),
(578,566,o),
(501,566,cs),
(450,566,o),
(385,537,o),
(345,501,c),
(324,541,o),
(274,566,o),
(224,566,cs),
(164,566,o),
(112,539,o),
(72,501,c),
(65,554,l),
(-17,554,l)
);
}
);
width = 620;
},
{
associatedMasterId = m01;
layerId = "5C3A2F23-F22A-41C3-B4D7-CB17ADC05E6B";
name = "Dec 3, 23 at 10:18";
shapes = (
{
closed = 1;
nodes = (
(-24,359,o),
(-21,164,o),
(-12,0,c),
(83,0,l),
(76,144,o),
(69,287,o),
(75,423,c),
(102,456,o),
(152,489,o),
(195,489,cs),
(236,489,o),
(262,464,o),
(262,413,cs),
(261,0,l),
(358,0,l),
(357,427,l),
(380,455,o),
(430,489,o),
(466,489,cs),
(515,489,o),
(540,459,o),
(542,413,cs),
(547,303,o),
(543,141,o),
(536,0,c),
(633,0,l),
(641,152,o),
(643,304,o),
(635,450,cs),
(631,522,o),
(576,566,o),
(499,566,cs),
(448,566,o),
(385,537,o),
(345,501,c),
(324,541,o),
(276,566,o),
(226,566,cs),
(166,566,o),
(114,539,o),
(74,501,c),
(67,554,l),
(-15,554,l)
);
}
);
width = 620;
}
);
},
{
glyphname = t.both;
layers = (
{
layerId = m01;
shapes = (
{
closed = 1;
nodes = (
(122,462,l),
(466,462,l),
(466,550,l),
(122,550,l)
);
},
{
closed = 1;
nodes = (
(225,679,l),
(225,177,ls),
(225,87,o),
(245,0,o),
(353,0,cs),
(463,0,l),
(463,90,l),
(404,90,ls),
(331,90,o),
(323,136,o),
(323,177,cs),
(323,679,l)
);
}
);
width = 620;
}
);
},
{
glyphname = i.left;
layers = (
{
anchors = (
{
name = bottom;
pos = (295,0);
},
{
name = ogonek;
pos = (463,0);
},
{
name = top;
pos = (295,766);
}
);
layerId = m01;
shapes = (
{
closed = 1;
nodes = (
(139,421,l),
(372,421,l),
(372,509,l),
(139,509,l)
);
},
{
closed = 1;
nodes = (
(274,509,l),
(274,0,l),
(372,0,l),
(372,509,l)
);
},
{
closed = 1;
nodes = (
(85,0,l),
(462,0,l),
(462,88,l),
(85,88,l)
);
},
{
closed = 1;
nodes = (
(340,606,o),
(375,641,o),
(375,686,cs),
(375,730,o),
(340,766,o),
(295,766,cs),
(252,766,o),
(215,730,o),
(215,686,cs),
(215,641,o),
(252,606,o),
(295,606,cs)
);
}
);
width = 620;
}
);
},
{
glyphname = l.left;
layers = (
{
anchors = (
{
name = bottom;
pos = (300,0);
},
{
name = top;
pos = (300,750);
}
);
layerId = m01;
shapes = (
{
closed = 1;
nodes = (
(212,177,ls),
(212,87,o),
(232,0,o),
(342,0,cs),
(433,0,l),
(433,90,l),
(391,90,ls),
(318,90,o),
(310,136,o),
(310,177,cs),
(310,750,l),
(212,700,l)
);
},
{
closed = 1;
nodes = (
(93,693,l),
(310,655,l),
(310,750,l),
(93,750,l)
);
}
);
width = 620;
}
);
},
{
glyphname = m.left;
layers = (
{
associatedMasterId = m01;
layerId = "98F31FE7-AB28-49D5-B6FC-097DA63F3CB6";
name = "Nov 21, 23 at 13:40";
shapes = (
{
closed = 1;
nodes = (
(-3,359,o),
(0,164,o),
(10,0,c),
(104,0,l),
(97,144,o),
(91,297,o),
(97,432,c),
(123,468,o),
(163,489,o),
(188,489,cs),
(222,489,o),
(247,465,o),
(247,422,cs),
(245,0,l),
(342,0,l),
(340,448,ls),
(340,518,o),
(283,566,o),
(222,566,cs),
(180,566,o),
(132,540,o),
(96,502,c),
(89,554,l),
(7,554,l)
);
},
{
closed = 1;
nodes = (
(309,401,l),
(334,437,o),
(381,489,o),
(431,489,cs),
(473,489,o),
(486,460,o),
(488,418,cs),
(494,303,o),
(489,141,o),
(482,0,c),
(578,0,l),
(587,152,o),
(588,304,o),
(580,450,cs),
(576,523,o),
(522,566,o),
(460,566,cs),
(409,566,o),
(344,528,o),
(309,478,c)
);
}
);
width = 620;
},
{
associatedMasterId = m01;
layerId = "434F5512-5ACC-4129-8C70-7CA27C3E2A9E";
name = "Nov 21, 23 at 14:17";
shapes = (
{
closed = 1;
nodes = (
(-24,359,o),
(-21,164,o),
(-11,0,c),
(83,0,l),
(76,144,o),
(70,291,o),
(76,426,c),
(102,462,o),
(141,487,o),
(166,487,cs),
(200,487,o),
(236,463,o),
(236,420,cs),
(234,0,l),
(331,0,l),
(329,448,ls),
(329,518,o),
(261,566,o),
(200,566,cs),
(158,566,o),
(111,543,o),
(75,505,c),
(68,554,l),
(-14,554,l)
);
},
{
closed = 1;
nodes = (
(299,397,l),
(324,433,o),
(371,489,o),
(421,489,cs),
(463,489,o),
(486,460,o),
(488,418,cs),
(494,303,o),
(484,141,o),
(477,0,c),
(578,0,l),
(587,152,o),
(588,304,o),
(580,450,cs),
(576,523,o),
(512,566,o),
(450,566,cs),
(399,566,o),
(334,531,o),
(299,481,c)
);
}
);
width = 620;
},
{
layerId = m01;
name = Regular;
shapes = (
{
closed = 1;
nodes = (
(-26,359,o),
(-23,164,o),
(-14,0,c),
(81,0,l),
(74,144,o),
(67,288,o),
(73,427,c),
(91,453,o),
(135,488,o),
(170,488,cs),
(211,488,o),
(232,458,o),
(232,410,cs),
(231,0,l),
(327,0,l),
(326,427,l),
(344,451,o),
(381,488,o),
(419,488,cs),
(465,488,o),
(481,459,o),
(483,410,cs),
(487,300,o),
(484,141,o),
(477,0,c),
(574,0,l),
(582,152,o),
(585,304,o),
(576,450,cs),
(572,518,o),
(521,566,o),
(453,566,cs),
(405,566,o),
(352,536,o),
(312,500,c),
(292,539,o),
(253,566,o),
(204,566,cs),
(150,566,o),
(103,531,o),
(72,501,c),
(65,554,l),
(-17,554,l)
);
}
);
width = 620;
}
);
},
{
glyphname = t.left;
layers = (
{
layerId = m01;
shapes = (
{
closed = 1;
nodes = (
(71,462,l),
(466,462,l),
(466,550,l),
(71,550,l)
);
},
{
closed = 1;
nodes = (
(225,679,l),
(225,177,ls),
(225,87,o),
(245,0,o),
(353,0,cs),
(463,0,l),
(463,90,l),
(404,90,ls),
(331,90,o),
(323,136,o),
(323,177,cs),
(323,679,l)
);
}
);
width = 620;
}
);
},
{
glyphname = i.right;
layers = (
{
anchors = (
{
name = bottom;
pos = (295,0);
},
{
name = ogonek;
pos = (533,0);
},
{
name = top;
pos = (295,766);
}
);
layerId = m01;
shapes = (
{
closed = 1;
nodes = (
(186,421,l),
(372,421,l),
(372,509,l),
(186,509,l)
);
},
{
closed = 1;
nodes = (
(274,509,l),
(274,0,l),
(372,0,l),
(372,509,l)
);
},
{
closed = 1;
nodes = (
(142,0,l),
(533,0,l),
(533,88,l),
(142,88,l)
);
},
{
closed = 1;
nodes = (
(340,606,o),
(375,641,o),
(375,686,cs),
(375,730,o),
(340,766,o),
(295,766,cs),
(252,766,o),
(215,730,o),
(215,686,cs),
(215,641,o),
(252,606,o),
(295,606,cs)
);
}
);
width = 620;
}
);
},
{
glyphname = l.right;
layers = (
{
anchors = (
{
name = bottom;
pos = (300,0);
},
{
name = top;
pos = (300,750);
}
);
layerId = m01;
shapes = (
{
closed = 1;
nodes = (
(212,177,ls),
(212,87,o),
(232,0,o),
(342,0,cs),
(509,0,l),
(509,90,l),
(391,90,ls),
(318,90,o),
(310,136,o),
(310,177,cs),
(310,750,l),
(212,700,l)
);
},
{
closed = 1;
nodes = (
(110,691,l),
(310,655,l),
(310,750,l),
(110,750,l)
);
}
);
width = 620;
}
);
},
{
glyphname = m.right;
layers = (
{
layerId = m01;
shapes = (
{
closed = 1;
nodes = (
(34,359,o),
(37,164,o),
(46,0,c),
(141,0,l),
(134,144,o),
(127,288,o),
(133,427,c),
(151,453,o),
(195,488,o),
(230,488,cs),
(271,488,o),
(292,458,o),
(292,410,cs),
(291,0,l),
(387,0,l),
(386,427,l),
(404,451,o),
(441,488,o),
(479,488,cs),
(525,488,o),
(541,459,o),
(543,410,cs),
(547,300,o),
(544,141,o),
(537,0,c),
(634,0,l),
(642,152,o),
(645,304,o),
(636,450,cs),
(632,518,o),
(581,566,o),
(513,566,cs),
(465,566,o),
(412,536,o),
(372,500,c),
(352,539,o),
(313,566,o),
(264,566,cs),
(210,566,o),
(163,531,o),
(132,501,c),
(125,554,l),
(43,554,l)
);
}
);
width = 620;
},
{
associatedMasterId = m01;
layerId = "B81155D1-6F2F-47C7-887B-6B441F874A34";
name = "Nov 21, 23 at 13:40";
shapes = (
{
closed = 1;
nodes = (
(31,359,o),
(34,164,o),
(44,0,c),
(138,0,l),
(131,144,o),
(125,297,o),
(131,432,c),
(157,468,o),
(197,489,o),
(222,489,cs),
(256,489,o),
(281,465,o),
(281,422,cs),
(279,0,l),
(376,0,l),
(374,448,ls),
(374,518,o),
(317,566,o),
(256,566,cs),
(214,566,o),
(166,540,o),
(130,502,c),
(123,554,l),
(41,554,l)
);
},
{
closed = 1;
nodes = (
(343,401,l),
(368,437,o),
(415,489,o),
(465,489,cs),
(507,489,o),
(520,460,o),
(522,418,cs),
(528,303,o),
(523,141,o),
(516,0,c),
(612,0,l),
(621,152,o),
(622,304,o),
(614,450,cs),
(610,523,o),
(556,566,o),
(494,566,cs),
(443,566,o),
(378,528,o),
(343,478,c)
);
}
);
width = 620;
},
{
associatedMasterId = m01;
layerId = "1F81AFAB-B38D-4DAF-8012-59FB1D4B0527";
name = "Nov 21, 23 at 14:18";
shapes = (
{
closed = 1;
nodes = (
(31,359,o),
(34,164,o),
(44,0,c),
(138,0,l),
(131,144,o),
(125,291,o),
(131,426,c),
(157,462,o),
(201,487,o),
(226,487,cs),
(260,487,o),
(291,463,o),
(291,420,cs),
(289,0,l),
(386,0,l),
(384,448,ls),
(384,518,o),
(321,566,o),
(260,566,cs),
(223,566,o),
(166,543,o),
(130,505,c),
(123,554,l),
(41,554,l)
);
},
{
closed = 1;
nodes = (
(354,395,l),
(379,431,o),
(431,487,o),
(481,487,cs),
(523,487,o),
(541,458,o),
(543,416,cs),
(549,301,o),
(544,141,o),
(537,0,c),
(633,0,l),
(642,152,o),
(643,304,o),
(635,450,cs),
(631,523,o),
(572,566,o),
(510,566,cs),
(459,566,o),
(389,531,o),
(354,481,c)
);
}
);
width = 620;
}
);
},
{
glyphname = t.right;
layers = (
{
layerId = m01;
shapes = (
{
closed = 1;
nodes = (
(122,462,l),
(529,462,l),
(529,550,l),
(122,550,l)
);
},
{
closed = 1;
nodes = (
(225,679,l),
(225,177,ls),
(225,87,o),
(245,0,o),
(353,0,cs),
(526,0,l),
(526,90,l),
(404,90,ls),
(331,90,o),
(323,136,o),
(323,177,cs),
(323,679,l)
);
}
);
width = 620;
}
);
},
{
glyphname = zero;
layers = (
{
layerId = m01;
shapes = (
{
closed = 1;
nodes = (
(510,-16,o),
(565,143,o),
(565,355,cs),
(565,567,o),
(510,726,o),
(312,726,cs),
(115,726,o),
(55,567,o),
(55,355,cs),
(55,143,o),
(115,-16,o),
(312,-16,cs)
);
},
{
closed = 1;
nodes = (
(172,73,o),
(153,195,o),
(153,356,cs),
(153,516,o),
(172,637,o),
(312,637,cs),
(452,637,o),
(467,516,o),
(467,356,cs),
(467,195,o),
(452,73,o),
(312,73,cs)
);
},
{
closed = 1;
nodes = (
(209,108,l),
(495,603,l),
(415,602,l),
(129,108,l)
);
}
);
width = 620;
}
);
unicode = 48;
},
{
glyphname = one;
layers = (
{
layerId = m01;
shapes = (
{
closed = 1;
nodes = (
(275,0,l),
(375,0,l),
(375,710,l),
(298,710,l),
(275,640,l)
);
},
{
closed = 1;
nodes = (
(91,88,l),
(91,0,l),
(544,0,l),
(544,88,l)
);
},
{
closed = 1;
nodes = (
(251,642,o),
(164,591,o),
(84,574,c),
(125,483,l),
(221,506,o),
(298,556,o),
(354,629,c),
(298,710,l)
);
}
);
width = 620;
}
);
unicode = 49;
},
{
glyphname = two;
layers = (
{
layerId = m01;
name = Regular;
shapes = (
{
closed = 1;
nodes = (
(96,0,l),
(554,0,l),
(554,88,l),
(96,88,l)
);
},
{
closed = 1;
nodes = (
(138,566,l),
(189,608,o),
(249,635,o),
(305,635,cs),
(386,635,o),
(435,578,o),
(435,508,cs),
(435,409,o),
(345,339,o),
(272,266,cs),
(96,88,l),
(232,88,l),
(401,266,ls),
(463,332,o),
(533,392,o),
(533,518,cs),
(533,633,o),
(447,724,o),
(323,724,cs),
(227,724,o),
(147,687,o),
(84,630,c)
);
}
);
width = 620;
}
);
unicode = 50;
},
{
glyphname = three;
layers = (
{
layerId = m01;
shapes = (
{
closed = 1;
nodes = (
(534,71,o),
(448,-16,o),
(313,-16,cs),
(209,-16,o),
(147,10,o),
(76,59,c),
(126,133,l),
(171,99,o),
(224,72,o),
(294,72,cs),
(389,72,o),
(436,129,o),
(436,195,cs),
(436,265,o),
(376,319,o),
(278,319,cs),
(258,319,o),
(247,319,o),
(224,319,c),
(224,405,l),
(249,405,o),
(260,405,o),
(280,405,cs),
(376,405,o),
(421,457,o),
(421,530,cs),
(421,600,o),
(366,636,o),
(299,636,cs),
(249,636,o),
(194,611,o),
(151,568,c),
(86,630,l),
(146,691,o),
(224,724,o),
(311,724,cs),
(430,724,o),
(519,650,o),
(519,537,cs),
(519,466,o),
(485,402,o),
(423,365,c),
(486,337,o),
(534,272,o),
(534,195,cs)
);
}
);
width = 620;
}
);
unicode = 51;
},
{
glyphname = four;
layers = (
{
layerId = m01;
shapes = (
{
closed = 1;
nodes = (
(369,0,l),
(467,0,l),
(467,505,l),
(369,505,l)
);
},
{
closed = 1;
nodes = (
(170,523,o),
(117,383,o),
(73,246,c),
(180,246,l),
(217,381,o),
(270,516,o),
(360,700,c),
(360,710,l),
(259,710,l)
);
},
{
closed = 1;
nodes = (
(73,246,l),
(73,158,l),
(557,158,l),
(557,246,l)
);
}
);
width = 620;
}
);
unicode = 52;
},
{
glyphname = five;
layers = (
{
layerId = m01;
name = Regular;
shapes = (
{
closed = 1;
nodes = (
(236,350,o),
(278,363,o),
(318,363,cs),
(391,363,o),
(439,306,o),
(439,223,cs),
(439,128,o),
(378,72,o),
(303,72,cs),
(237,72,o),
(193,92,o),
(148,135,c),
(83,73,l),
(158,9,o),
(222,-16,o),
(309,-16,cs),
(445,-16,o),
(536,81,o),
(536,223,cs),
(536,358,o),
(445,450,o),
(338,450,cs),
(282,450,o),
(233,431,o),
(200,400,c),
(200,330,l)
);
},
{
closed = 1;
nodes = (
(112,622,l),
(502,622,l),
(502,710,l),
(112,710,l)
);
},
{
closed = 1;
nodes = (
(112,710,l),
(112,330,l),
(200,330,l),
(200,710,l)
);
}
);
width = 620;
}
);
unicode = 53;
},
{
glyphname = six;
layers = (
{
layerId = m01;
name = Regular;
shapes = (
{
closed = 1;
nodes = (
(83,90,o),
(173,-15,o),
(318,-15,cs),
(459,-15,o),
(550,80,o),
(550,205,cs),
(550,334,o),
(456,428,o),
(345,428,cs),
(290,428,o),
(244,410,o),
(207,377,c),
(238,476,o),
(299,567,o),
(397,657,c),
(329,726,l),
(166,574,o),
(83,395,o),
(83,239,cs)
);
},
{
closed = 1;
nodes = (
(397,340,o),
(452,284,o),
(452,206,cs),
(452,130,o),
(397,73,o),
(318,73,cs),
(240,73,o),
(185,127,o),
(185,206,cs),
(185,286,o),
(240,340,o),
(318,340,cs)
);
}
);
width = 620;
}
);
unicode = 54;
},
{
glyphname = seven;
layers = (
{
layerId = m01;
shapes = (
{
closed = 1;
nodes = (
(76,646,l),
(550,646,l),
(550,710,l),
(76,710,l)
);
},
{
closed = 1;
nodes = (
(440,646,l),
(356,386,o),
(272,211,o),
(246,0,c),
(353,0,l),
(379,211,o),
(466,390,o),
(550,646,c)
);
},
{
closed = 1;
nodes = (
(76,646,l),
(76,486,l),
(174,486,l),
(174,646,l)
);
},
{
closed = 1;
nodes = (
(163,622,l),
(445,622,l),
(445,710,l),
(163,710,l)
);
}
);
width = 620;
}
);
unicode = 55;
},
{
glyphname = eight;
layers = (
{
layerId = m01;
shapes = (
{
closed = 1;
nodes = (
(422,-16,o),
(550,37,o),
(550,192,cs),
(550,280,o),
(488,346,o),
(421,367,c),
(483,399,o),
(526,445,o),
(526,538,cs),
(526,625,o),
(463,725,o),
(307,725,cs),
(151,725,o),
(88,625,o),
(88,538,cs),
(88,445,o),
(131,399,o),
(193,367,c),
(126,346,o),
(64,280,o),
(64,192,cs),
(64,37,o),
(192,-16,o),
(307,-16,cs)
);
},
{
closed = 1;
nodes = (
(162,266,o),
(221,318,o),
(307,318,cs),
(393,318,o),
(452,266,o),
(452,196,cs),
(452,119,o),
(402,72,o),
(307,72,cs),
(212,72,o),
(162,119,o),
(162,196,cs)
);
},
{
closed = 1;
nodes = (
(185,575,o),
(213,637,o),
(307,637,cs),
(401,637,o),
(431,575,o),
(431,527,cs),
(431,458,o),
(383,413,o),
(308,413,cs),
(233,413,o),
(185,458,o),
(185,527,cs)
);
}
);
width = 620;
}
);
unicode = 56;
},
{
glyphname = nine;
layers = (
{
layerId = m01;
shapes = (
{
closed = 1;
nodes = (
(70,382,o),
(162,283,o),
(282,283,cs),
(355,283,o),
(409,310,o),
(441,362,c),
(423,266,o),
(314,134,o),
(204,54,c),
(269,-15,l),
(440,122,o),
(537,274,o),
(537,463,cs),
(537,628,o),
(441,726,o),
(302,726,cs),
(154,726,o),
(70,631,o),
(70,506,cs)
);
},
{
closed = 1;
nodes = (
(221,371,o),
(166,425,o),
(166,505,cs),
(166,584,o),
(221,638,o),
(299,638,cs),
(378,638,o),
(433,581,o),
(433,505,cs),
(433,427,o),
(378,371,o),
(299,371,cs)
);
}
);
width = 620;
}
);
unicode = 57;
},
{
glyphname = hyphen_greater;
layers = (
{
layerId = m01;
shapes = (
{
closed = 1;
nodes = (
(-490,349,l),
(-490,261,l),
(162,261,l),
(162,349,l)
);
},
{
closed = 1;
nodes = (
(36,532,l),
(490,262,l),
(490,358,l),
(46,632,l),
(36,632,l)
);
},
{
closed = 1;
nodes = (
(46,-24,l),
(490,255,l),
(490,351,l),
(36,76,l),
(36,-24,l)
);
}
);
width = 620;
}
);
},
{
glyphname = bracketleft_bar;
layers = (
{
layerId = m01;
shapes = (
{
closed = 1;
nodes = (
(-320,-120,l),
(-225,-120,l),
(-225,750,l),
(-320,750,l)
);
},
{
closed = 1;
nodes = (
(-296,750,l),
(-296,665,l),
(34,665,l),
(34,750,l)
);
},
{
closed = 1;
nodes = (
(-296,-35,l),
(-296,-120,l),
(34,-120,l),
(34,-35,l)
);
},
{
closed = 1;
nodes = (
(175,750,l),
(175,-120,l),
(270,-120,l),
(270,750,l)
);
}
);
width = 620;
}
);
},
{
glyphname = period_equal;
layers = (
{
layerId = m01;
shapes = (
{
closed = 1;
nodes = (
(-50,247,l),
(-50,159,l),
(440,159,l),
(440,247,l)
);
},
{
closed = 1;
nodes = (
(-50,447,l),
(-50,359,l),
(440,359,l),
(440,447,l)
);
},
{
closed = 1;
nodes = (
(-260,-19,o),
(-223,18,o),
(-223,64,cs),
(-223,110,o),
(-260,147,o),
(-306,147,cs),
(-352,147,o),
(-389,110,o),
(-389,64,cs),
(-389,18,o),
(-352,-19,o),
(-306,-19,cs)
);
}
);
width = 620;
},
{
associatedMasterId = m01;
layerId = "F8EE5931-9AF8-4D47-A6BA-1649FC4913F5";
name = "Sep 29, 23 15:57";
shapes = (
{
closed = 1;
nodes = (
(-262,-16,o),
(-226,20,o),
(-226,64,cs),
(-226,108,o),
(-262,144,o),
(-306,144,cs),
(-350,144,o),
(-386,108,o),
(-386,64,cs),
(-386,20,o),
(-350,-16,o),
(-306,-16,cs)
);
},
{
closed = 1;
nodes = (
(-50,247,l),
(-50,159,l),
(440,159,l),
(440,247,l)
);
},
{
closed = 1;
nodes = (
(-50,447,l),
(-50,359,l),
(440,359,l),
(440,447,l)
);
}
);
width = 620;
}
);
},
{
glyphname = colon_colon;
layers = (
{
layerId = m01;
shapes = (
{
closed = 1;
nodes = (
(-157,0,o),
(-123,34,o),
(-123,75,cs),
(-123,116,o),
(-157,150,o),
(-198,150,cs),
(-239,150,o),
(-273,116,o),
(-273,75,cs),
(-273,34,o),
(-239,0,o),
(-198,0,cs)
);
},
{
closed = 1;
nodes = (
(-157,397,o),
(-123,431,o),
(-123,472,cs),
(-123,513,o),
(-157,547,o),
(-198,547,cs),
(-239,547,o),
(-273,513,o),
(-273,472,cs),
(-273,431,o),
(-239,397,o),
(-198,397,cs)
);
},
{
closed = 1;
nodes = (
(239,0,o),
(273,34,o),
(273,75,cs),
(273,116,o),
(239,150,o),
(198,150,cs),
(157,150,o),
(123,116,o),
(123,75,cs),
(123,34,o),
(157,0,o),
(198,0,cs)
);
},
{
closed = 1;
nodes = (
(239,397,o),
(273,431,o),
(273,472,cs),
(273,513,o),
(239,547,o),
(198,547,cs),
(157,547,o),
(123,513,o),
(123,472,cs),
(123,431,o),
(157,397,o),
(198,397,cs)
);
}
);
width = 620;
}
);
},
{
glyphname = colon_colon_colon;
layers = (
{
layerId = m01;
shapes = (
{
closed = 1;
nodes = (
(-709,0,o),
(-675,34,o),
(-675,75,cs),
(-675,116,o),
(-709,150,o),
(-750,150,cs),
(-791,150,o),
(-825,116,o),
(-825,75,cs),
(-825,34,o),
(-791,0,o),
(-750,0,cs)
);
},
{
closed = 1;
nodes = (
(-709,397,o),
(-675,431,o),
(-675,472,cs),
(-675,513,o),
(-709,547,o),
(-750,547,cs),
(-791,547,o),
(-825,513,o),
(-825,472,cs),
(-825,431,o),
(-791,397,o),
(-750,397,cs)
);
},
{
closed = 1;
nodes = (
(-269,0,o),
(-235,34,o),
(-235,75,cs),
(-235,116,o),
(-269,150,o),
(-310,150,cs),
(-351,150,o),
(-385,116,o),
(-385,75,cs),
(-385,34,o),
(-351,0,o),
(-310,0,cs)
);
},
{
closed = 1;
nodes = (
(-269,397,o),
(-235,431,o),
(-235,472,cs),
(-235,513,o),
(-269,547,o),
(-310,547,cs),
(-351,547,o),
(-385,513,o),
(-385,472,cs),
(-385,431,o),
(-351,397,o),
(-310,397,cs)
);
},
{
closed = 1;
nodes = (
(171,0,o),
(205,34,o),
(205,75,cs),
(205,116,o),
(171,150,o),
(130,150,cs),
(89,150,o),
(55,116,o),
(55,75,cs),
(55,34,o),
(89,0,o),
(130,0,cs)
);
},
{
closed = 1;
nodes = (
(171,397,o),
(205,431,o),
(205,472,cs),
(205,513,o),
(171,547,o),
(130,547,cs),
(89,547,o),
(55,513,o),
(55,472,cs),
(55,431,o),
(89,397,o),
(130,397,cs)
);
}
);
width = 620;
}
);
},
{
glyphname = colon_equal;
layers = (
{
layerId = m01;
shapes = (
{
closed = 1;
nodes = (
(-270,97,o),
(-236,131,o),
(-236,172,cs),
(-236,213,o),
(-270,247,o),
(-311,247,cs),
(-352,247,o),
(-386,213,o),
(-386,172,cs),
(-386,131,o),
(-352,97,o),
(-311,97,cs)
);
},
{
closed = 1;
nodes = (
(-270,359,o),
(-236,393,o),
(-236,434,cs),
(-236,475,o),
(-270,509,o),
(-311,509,cs),
(-352,509,o),
(-386,475,o),
(-386,434,cs),
(-386,393,o),
(-352,359,o),
(-311,359,cs)
);
},
{
closed = 1;
nodes = (
(-50,247,l),
(-50,159,l),
(440,159,l),
(440,247,l)
);
},
{
closed = 1;
nodes = (
(-50,447,l),
(-50,359,l),
(440,359,l),
(440,447,l)
);
}
);
width = 620;
}
);
},
{
glyphname = colon_greater_colon;
layers = (
{
layerId = m01;
shapes = (
{
closed = 1;
nodes = (
(-532,488,l),
(-62,263,l),
(-62,356,l),
(-522,587,l),
(-532,587,l)
);
},
{
closed = 1;
nodes = (
(-522,21,l),
(-62,257,l),
(-62,350,l),
(-532,120,l),
(-532,21,l)
);
},
{
closed = 1;
nodes = (
(262,30,o),
(296,64,o),
(296,105,cs),
(296,146,o),
(262,180,o),
(221,180,cs),
(180,180,o),
(146,146,o),
(146,105,cs),
(146,64,o),
(180,30,o),
(221,30,cs)
);
},
{
closed = 1;
nodes = (
(262,427,o),
(296,461,o),
(296,502,cs),
(296,543,o),
(262,577,o),
(221,577,cs),
(180,577,o),
(146,543,o),
(146,502,cs),
(146,461,o),
(180,427,o),
(221,427,cs)
);
},
{
closed = 1;
nodes = (
(-805,30,o),
(-771,64,o),
(-771,105,cs),
(-771,146,o),
(-805,180,o),
(-846,180,cs),
(-887,180,o),
(-921,146,o),
(-921,105,cs),
(-921,64,o),
(-887,30,o),
(-846,30,cs)
);
},
{
closed = 1;
nodes = (
(-805,427,o),
(-771,461,o),
(-771,502,cs),
(-771,543,o),
(-805,577,o),
(-846,577,cs),
(-887,577,o),
(-921,543,o),
(-921,502,cs),
(-921,461,o),
(-887,427,o),
(-846,427,cs)
);
}
);
width = 620;
}
);
},
{
glyphname = colon_less_colon;
layers = (
{
layerId = m01;
shapes = (
{
closed = 1;
nodes = (
(-98,587,l),
(-558,356,l),
(-558,263,l),
(-88,488,l),
(-88,587,l)
);
},
{
closed = 1;
nodes = (
(-88,120,l),
(-558,350,l),
(-558,257,l),
(-98,21,l),
(-88,21,l)
);
},
{
closed = 1;
nodes = (
(-800,30,o),
(-766,64,o),
(-766,105,cs),
(-766,146,o),
(-800,180,o),
(-841,180,cs),
(-882,180,o),
(-916,146,o),
(-916,105,cs),
(-916,64,o),
(-882,30,o),
(-841,30,cs)
);
},
{
closed = 1;
nodes = (
(-800,427,o),
(-766,461,o),
(-766,502,cs),
(-766,543,o),
(-800,577,o),
(-841,577,cs),
(-882,577,o),
(-916,543,o),
(-916,502,cs),
(-916,461,o),
(-882,427,o),
(-841,427,cs)
);
},
{
closed = 1;
nodes = (
(267,30,o),
(301,64,o),
(301,105,cs),
(301,146,o),
(267,180,o),
(226,180,cs),
(185,180,o),
(151,146,o),
(151,105,cs),
(151,64,o),
(185,30,o),
(226,30,cs)
);
},
{
closed = 1;
nodes = (
(267,427,o),
(301,461,o),
(301,502,cs),
(301,543,o),
(267,577,o),
(226,577,cs),
(185,577,o),
(151,543,o),
(151,502,cs),
(151,461,o),
(185,427,o),
(226,427,cs)
);
}
);
width = 620;
}
);
},
{
glyphname = exclam_equal;
layers = (
{
layerId = m01;
shapes = (
{
closed = 1;
nodes = (
(-50,247,l),
(-50,159,l),
(440,159,l),
(440,247,l)
);
},
{
closed = 1;
nodes = (
(-50,447,l),
(-50,359,l),
(440,359,l),
(440,447,l)
);
},
{
closed = 1;
nodes = (
(-276,-27,o),
(-241,8,o),
(-241,49,cs),
(-241,90,o),
(-276,125,o),
(-317,125,cs),
(-358,125,o),
(-393,90,o),
(-393,49,cs),
(-393,8,o),
(-358,-27,o),
(-317,-27,cs)
);
},
{
closed = 1;
nodes = (
(-392,560,o),
(-372,375,o),
(-364,210,c),
(-270,210,l),
(-262,375,o),
(-242,560,o),
(-235,725,c),
(-399,725,l)
);
}
);
width = 620;
},
{
associatedMasterId = m01;
layerId = "7974997A-06AC-43CB-99CD-549FCCD0712B";
name = "Sep 29, 23 15:57";
shapes = (
{
closed = 1;
nodes = (
(-276,-16,o),
(-242,18,o),
(-242,59,cs),
(-242,100,o),
(-276,134,o),
(-317,134,cs),
(-358,134,o),
(-392,100,o),
(-392,59,cs),
(-392,18,o),
(-358,-16,o),
(-317,-16,cs)
);
},
{
closed = 1;
nodes = (
(-389,545,o),
(-374,375,o),
(-366,210,c),
(-268,210,l),
(-260,375,o),
(-245,545,o),
(-238,710,c),
(-396,710,l)
);
},
{
closed = 1;
nodes = (
(-50,247,l),
(-50,159,l),
(440,159,l),
(440,247,l)
);
},
{
closed = 1;
nodes = (
(-50,447,l),
(-50,359,l),
(440,359,l),
(440,447,l)
);
}
);
width = 620;
}
);
},
{
glyphname = exclam_equal_equal;
layers = (
{
layerId = m01;
shapes = (
{
closed = 1;
nodes = (
(-670,247,l),
(-670,159,l),
(-180,159,l),
(-180,247,l)
);
},
{
closed = 1;
nodes = (
(-670,447,l),
(-670,359,l),
(-180,359,l),
(-180,447,l)
);
},
{
closed = 1;
nodes = (
(-100,247,l),
(-100,159,l),
(390,159,l),
(390,247,l)
);
},
{
closed = 1;
nodes = (
(-100,447,l),
(-100,359,l),
(390,359,l),
(390,447,l)
);
},
{
closed = 1;
nodes = (
(-860,-27,o),
(-825,8,o),
(-825,49,cs),
(-825,90,o),
(-860,125,o),
(-901,125,cs),
(-942,125,o),
(-977,90,o),
(-977,49,cs),
(-977,8,o),
(-942,-27,o),
(-901,-27,cs)
);
},
{
closed = 1;
nodes = (
(-976,560,o),
(-956,375,o),
(-948,210,c),
(-854,210,l),
(-846,375,o),
(-826,560,o),
(-819,725,c),
(-983,725,l)
);
}
);
width = 620;
},
{
associatedMasterId = m01;
layerId = "DA36F6AE-9BC8-4D50-A485-F968888B188D";
name = "Sep 29, 23 15:57";
shapes = (
{
closed = 1;
nodes = (
(-670,247,l),
(-670,159,l),
(-180,159,l),
(-180,247,l)
);
},
{
closed = 1;
nodes = (
(-670,447,l),
(-670,359,l),
(-180,359,l),
(-180,447,l)
);
},
{
closed = 1;
nodes = (
(-100,247,l),
(-100,159,l),
(390,159,l),
(390,247,l)
);
},
{
closed = 1;
nodes = (
(-100,447,l),
(-100,359,l),
(390,359,l),
(390,447,l)
);
},
{
closed = 1;
nodes = (
(-860,-16,o),
(-826,18,o),
(-826,59,cs),
(-826,100,o),
(-860,134,o),
(-901,134,cs),
(-942,134,o),
(-976,100,o),
(-976,59,cs),
(-976,18,o),
(-942,-16,o),
(-901,-16,cs)
);
},
{
closed = 1;
nodes = (
(-973,540,o),
(-958,375,o),
(-950,210,c),
(-852,210,l),
(-844,375,o),
(-829,540,o),
(-822,705,c),
(-980,705,l)
);
}
);
width = 620;
}
);
},
{
glyphname = question_question;
layers = (
{
layerId = m01;
shapes = (
{
closed = 1;
nodes = (
(-256,210,l),
(-157,210,l),
(-157,235,l),
(-256,229,l)
);
},
{
closed = 1;
nodes = (
(-381,534,l),
(-341,578,o),
(-277,629,o),
(-195,628,cs),
(-86,627,o),
(-46,572,o),
(-46,521,cs),
(-46,419,o),
(-256,430,o),
(-256,229,c),
(-157,235,l),
(-157,359,o),
(54,352,o),
(54,523,cs),
(54,629,o),
(-36,725,o),
(-198,726,cs),
(-306,727,o),
(-395,665,o),
(-454,598,c)
);
},
{
closed = 1;
nodes = (
(144,210,l),
(243,210,l),
(243,235,l),
(144,229,l)
);
},
{
closed = 1;
nodes = (
(19,534,l),
(59,578,o),
(123,629,o),
(205,628,cs),
(314,627,o),
(354,572,o),
(354,521,cs),
(354,419,o),
(144,430,o),
(144,229,c),
(243,235,l),
(243,359,o),
(454,352,o),
(454,523,cs),
(454,629,o),
(364,725,o),
(202,726,cs),
(94,727,o),
(5,665,o),
(-54,598,c)
);
},
{
closed = 1;
nodes = (
(-160,-27,o),
(-125,8,o),
(-125,49,cs),
(-125,90,o),
(-160,125,o),
(-201,125,cs),
(-242,125,o),
(-277,90,o),
(-277,49,cs),
(-277,8,o),
(-242,-27,o),
(-201,-27,cs)
);
},
{
closed = 1;
nodes = (
(241,-27,o),
(276,8,o),
(276,49,cs),
(276,90,o),
(241,125,o),
(200,125,cs),
(159,125,o),
(124,90,o),
(124,49,cs),
(124,8,o),
(159,-27,o),
(200,-27,cs)
);
}
);
width = 620;
},
{
associatedMasterId = m01;
layerId = "D89E1641-C7CE-4696-946D-F6293D163B2A";
name = "Sep 29, 23 15:57";
shapes = (
{
closed = 1;
nodes = (
(-159,-16,o),
(-125,18,o),
(-125,59,cs),
(-125,100,o),
(-159,134,o),
(-200,134,cs),
(-241,134,o),
(-275,100,o),
(-275,59,cs),
(-275,18,o),
(-241,-16,o),
(-200,-16,cs)
);
},
{
closed = 1;
nodes = (
(-256,210,l),
(-157,210,l),
(-157,235,l),
(-256,229,l)
);
},
{
closed = 1;
nodes = (
(-381,534,l),
(-341,578,o),
(-277,629,o),
(-195,628,cs),
(-86,627,o),
(-46,572,o),
(-46,521,cs),
(-46,419,o),
(-256,430,o),
(-256,229,c),
(-157,235,l),
(-157,359,o),
(54,352,o),
(54,523,cs),
(54,629,o),
(-36,725,o),
(-198,726,cs),
(-306,727,o),
(-395,665,o),
(-454,598,c)
);
},
{
closed = 1;
nodes = (
(241,-16,o),
(275,18,o),
(275,59,cs),
(275,100,o),
(241,134,o),
(200,134,cs),
(159,134,o),
(125,100,o),
(125,59,cs),
(125,18,o),
(159,-16,o),
(200,-16,cs)
);
},
{
closed = 1;
nodes = (
(144,210,l),
(243,210,l),
(243,235,l),
(144,229,l)
);
},
{
closed = 1;
nodes = (
(19,534,l),
(59,578,o),
(123,629,o),
(205,628,cs),
(314,627,o),
(354,572,o),
(354,521,cs),
(354,419,o),
(144,430,o),
(144,229,c),
(243,235,l),
(243,359,o),
(454,352,o),
(454,523,cs),
(454,629,o),
(364,725,o),
(202,726,cs),
(94,727,o),
(5,665,o),
(-54,598,c)
);
}
);
width = 620;
}
);
},
{
glyphname = asterisk_asterisk;
layers = (
{
layerId = m01;
shapes = (
{
closed = 1;
nodes = (
(-299,292,l),
(-243,292,l),
(-221,534,l),
(-321,534,l)
);
},
{
closed = 1;
nodes = (
(-279,317,l),
(-261,263,l),
(-27,317,l),
(-57,411,l)
);
},
{
closed = 1;
nodes = (
(-515,317,l),
(-281,263,l),
(-263,317,l),
(-485,411,l)
);
},
{
closed = 1;
nodes = (
(-373,58,l),
(-247,275,l),
(-293,309,l),
(-455,117,l)
);
},
{
closed = 1;
nodes = (
(-248,309,l),
(-294,275,l),
(-168,58,l),
(-86,117,l)
);
},
{
closed = 1;
nodes = (
(243,292,l),
(299,292,l),
(321,534,l),
(221,534,l)
);
},
{
closed = 1;
nodes = (
(263,317,l),
(281,263,l),
(515,317,l),
(485,411,l)
);
},
{
closed = 1;
nodes = (
(27,317,l),
(261,263,l),
(279,317,l),
(57,411,l)
);
},
{
closed = 1;
nodes = (
(169,58,l),
(295,275,l),
(249,309,l),
(87,117,l)
);
},
{
closed = 1;
nodes = (
(294,309,l),
(248,275,l),
(374,58,l),
(456,117,l)
);
}
);
width = 620;
}
);
},
{
glyphname = asterisk_asterisk_asterisk;
layers = (
{
layerId = m01;
shapes = (
{
closed = 1;
nodes = (
(-846,292,l),
(-790,292,l),
(-768,534,l),
(-868,534,l)
);
},
{
closed = 1;
nodes = (
(-826,317,l),
(-808,263,l),
(-574,317,l),
(-604,411,l)
);
},
{
closed = 1;
nodes = (
(-1062,317,l),
(-828,263,l),
(-810,317,l),
(-1032,411,l)
);
},
{
closed = 1;
nodes = (
(-920,58,l),
(-794,275,l),
(-840,309,l),
(-1002,117,l)
);
},
{
closed = 1;
nodes = (
(-795,309,l),
(-841,275,l),
(-715,58,l),
(-633,117,l)
);
},
{
closed = 1;
nodes = (
(-338,462,l),
(-282,462,l),
(-260,704,l),
(-360,704,l)
);
},
{
closed = 1;
nodes = (
(-318,487,l),
(-300,433,l),
(-66,487,l),
(-96,581,l)
);
},
{
closed = 1;
nodes = (
(-554,487,l),
(-320,433,l),
(-302,487,l),
(-524,581,l)
);
},
{
closed = 1;
nodes = (
(-412,228,l),
(-286,445,l),
(-332,479,l),
(-494,287,l)
);
},
{
closed = 1;
nodes = (
(-287,479,l),
(-333,445,l),
(-207,228,l),
(-125,287,l)
);
},
{
closed = 1;
nodes = (
(170,292,l),
(226,292,l),
(248,534,l),
(148,534,l)
);
},
{
closed = 1;
nodes = (
(190,317,l),
(208,263,l),
(442,317,l),
(412,411,l)
);
},
{
closed = 1;
nodes = (
(-46,317,l),
(188,263,l),
(206,317,l),
(-16,411,l)
);
},
{
closed = 1;
nodes = (
(96,58,l),
(222,275,l),
(176,309,l),
(14,117,l)
);
},
{
closed = 1;
nodes = (
(221,309,l),
(175,275,l),
(301,58,l),
(383,117,l)
);
}
);
width = 620;
}
);
},
{
glyphname = asterisk_greater;
layers = (
{
layerId = m01;
shapes = (
{
closed = 1;
nodes = (
(52,498,l),
(472,263,l),
(472,356,l),
(62,597,l),
(52,597,l)
);
},
{
closed = 1;
nodes = (
(62,11,l),
(472,257,l),
(472,350,l),
(52,110,l),
(52,11,l)
);
},
{
closed = 1;
nodes = (
(-259,292,l),
(-203,292,l),
(-181,534,l),
(-281,534,l)
);
},
{
closed = 1;
nodes = (
(-239,317,l),
(-221,263,l),
(13,317,l),
(-17,411,l)
);
},
{
closed = 1;
nodes = (
(-475,317,l),
(-241,263,l),
(-223,317,l),
(-445,411,l)
);
},
{
closed = 1;
nodes = (
(-353,58,l),
(-207,275,l),
(-253,309,l),
(-415,117,l)
);
},
{
closed = 1;
nodes = (
(-208,309,l),
(-254,275,l),
(-148,58,l),
(-46,117,l)
);
}
);
width = 620;
}
);
},
{
glyphname = numbersign_equal;
layers = (
{
layerId = m01;
shapes = (
{
closed = 1;
nodes = (
(75,247,l),
(75,159,l),
(440,159,l),
(440,247,l)
);
},
{
closed = 1;
nodes = (
(75,447,l),
(75,359,l),
(440,359,l),
(440,447,l)
);
},
{
closed = 1;
nodes = (
(-500,244,l),
(-500,157,l),
(-38,157,l),
(-38,244,l)
);
},
{
closed = 1;
nodes = (
(-434,550,l),
(-434,463,l),
(24,463,l),
(24,550,l)
);
},
{
closed = 1;
nodes = (
(-199,710,l),
(-289,710,l),
(-461,0,l),
(-371,0,l)
);
},
{
closed = 1;
nodes = (
(-5,710,l),
(-95,710,l),
(-267,0,l),
(-177,0,l)
);
}
);
width = 620;
}
);
},
{
glyphname = slash_slash;
layers = (
{
layerId = m01;
shapes = (
{
closed = 1;
nodes = (
(-408,-110,l),
(-408,-120,l),
(-307,-120,l),
(-42,740,l),
(-42,750,l),
(-143,750,l)
);
},
{
closed = 1;
nodes = (
(24,-110,l),
(24,-120,l),
(125,-120,l),
(390,740,l),
(390,750,l),
(289,750,l)
);
}
);
width = 620;
}
);
},
{
glyphname = slash_slash_slash;
layers = (
{
layerId = m01;
shapes = (
{
closed = 1;
nodes = (
(-970,-110,l),
(-970,-120,l),
(-869,-120,l),
(-604,740,l),
(-604,750,l),
(-705,750,l)
);
},
{
closed = 1;
nodes = (
(-498,-110,l),
(-498,-120,l),
(-397,-120,l),
(-132,740,l),
(-132,750,l),
(-233,750,l)
);
},
{
closed = 1;
nodes = (
(-26,-110,l),
(-26,-120,l),
(75,-120,l),
(340,740,l),
(340,750,l),
(239,750,l)
);
}
);
width = 620;
}
);
},
{
glyphname = period;
layers = (
{
layerId = m01;
shapes = (
{
closed = 1;
nodes = (
(356,-19,o),
(393,18,o),
(393,64,cs),
(393,110,o),
(356,147,o),
(310,147,cs),
(264,147,o),
(227,110,o),
(227,64,cs),
(227,18,o),
(264,-19,o),
(310,-19,cs)
);
}
);
width = 620;
},
{
associatedMasterId = m01;
layerId = "24900A11-2A1F-4E78-851E-4B5F1104249A";
name = "Sep 29, 23 15:56";
shapes = (
{
closed = 1;
nodes = (
(354,-16,o),
(390,20,o),
(390,64,cs),
(390,108,o),
(354,144,o),
(310,144,cs),
(266,144,o),
(230,108,o),
(230,64,cs),
(230,20,o),
(266,-16,o),
(310,-16,cs)
);
}
);
width = 620;
}
);
unicode = 46;
},
{
glyphname = comma;
layers = (
{
layerId = m01;
name = Regular;
shapes = (
{
closed = 1;
nodes = (
(167,-193,l),
(228,-193,l),
(371,39,l),
(253,39,l)
);
},
{
closed = 1;
nodes = (
(347,0,o),
(380,34,o),
(380,76,cs),
(380,116,o),
(347,151,o),
(307,151,cs),
(264,151,o),
(230,116,o),
(230,76,cs),
(230,34,o),
(264,0,o),
(307,0,cs)
);
}
);
width = 620;
},
{
associatedMasterId = m01;
layerId = "7819E1C2-DED2-46D0-A24B-5CD4438561EB";
name = "Sep 29, 23 15:56";
shapes = (
{
closed = 1;
nodes = (
(195,-169,l),
(256,-169,l),
(371,39,l),
(253,39,l)
);
},
{
closed = 1;
nodes = (
(347,0,o),
(380,34,o),
(380,76,cs),
(380,116,o),
(347,151,o),
(307,151,cs),
(264,151,o),
(230,116,o),
(230,76,cs),
(230,34,o),
(264,0,o),
(307,0,cs)
);
}
);
width = 620;
}
);
unicode = 44;
},
{
glyphname = colon;
layers = (
{
layerId = m01;
shapes = (
{
closed = 1;
nodes = (
(351,0,o),
(385,34,o),
(385,75,cs),
(385,116,o),
(351,150,o),
(310,150,cs),
(269,150,o),
(235,116,o),
(235,75,cs),
(235,34,o),
(269,0,o),
(310,0,cs)
);
},
{
closed = 1;
nodes = (
(351,397,o),
(385,431,o),
(385,472,cs),
(385,513,o),
(351,547,o),
(310,547,cs),
(269,547,o),
(235,513,o),
(235,472,cs),
(235,431,o),
(269,397,o),
(310,397,cs)
);
}
);
width = 620;
}
);
unicode = 58;
},
{
glyphname = semicolon;
layers = (
{
layerId = m01;
name = Regular;
shapes = (
{
closed = 1;
nodes = (
(361,400,o),
(395,434,o),
(395,475,cs),
(395,516,o),
(361,550,o),
(320,550,cs),
(279,550,o),
(245,516,o),
(245,475,cs),
(245,434,o),
(279,400,o),
(320,400,cs)
);
},
{
closed = 1;
nodes = (
(182,-193,l),
(243,-193,l),
(386,39,l),
(268,39,l)
);
},
{
closed = 1;
nodes = (
(362,0,o),
(395,34,o),
(395,76,cs),
(395,116,o),
(362,151,o),
(322,151,cs),
(279,151,o),
(245,116,o),
(245,76,cs),
(245,34,o),
(279,0,o),
(322,0,cs)
);
}
);
width = 620;
},
{
associatedMasterId = m01;
layerId = "8AD5BB38-C427-43AA-A01C-3A37CA85798C";
name = "Sep 29, 23 15:56";
shapes = (
{
closed = 1;
nodes = (
(361,400,o),
(395,434,o),
(395,475,cs),
(395,516,o),
(361,550,o),
(320,550,cs),
(279,550,o),
(245,516,o),
(245,475,cs),
(245,434,o),
(279,400,o),
(320,400,cs)
);
},
{
closed = 1;
nodes = (
(202,-179,l),
(263,-179,l),
(386,39,l),
(266,39,l)
);
},
{
closed = 1;
nodes = (
(362,0,o),
(395,34,o),
(395,76,cs),
(395,116,o),
(362,151,o),
(322,151,cs),
(279,151,o),
(245,116,o),
(245,76,cs),
(245,34,o),
(279,0,o),
(322,0,cs)
);
}
);
width = 620;
}
);
unicode = 59;
},
{
glyphname = exclam;
layers = (
{
layerId = m01;
shapes = (
{
closed = 1;
nodes = (
(351,-27,o),
(386,8,o),
(386,49,cs),
(386,90,o),
(351,125,o),
(310,125,cs),
(269,125,o),
(234,90,o),
(234,49,cs),
(234,8,o),
(269,-27,o),
(310,-27,cs)
);
},
{
closed = 1;
nodes = (
(235,560,o),
(255,375,o),
(263,210,c),
(357,210,l),
(365,375,o),
(385,560,o),
(392,725,c),
(228,725,l)
);
}
);
width = 620;
},
{
associatedMasterId = m01;
layerId = "4C98C485-FAEB-45D6-BAF6-20F030C0E0C5";
name = "Sep 29, 23 15:56";
shapes = (
{
closed = 1;
nodes = (
(351,-16,o),
(385,18,o),
(385,59,cs),
(385,100,o),
(351,134,o),
(310,134,cs),
(269,134,o),
(235,100,o),
(235,59,cs),
(235,18,o),
(269,-16,o),
(310,-16,cs)
);
},
{
closed = 1;
nodes = (
(238,540,o),
(253,375,o),
(261,210,c),
(359,210,l),
(367,375,o),
(382,540,o),
(389,705,c),
(231,705,l)
);
}
);
width = 620;
}
);
unicode = 33;
},
{
glyphname = exclamdown;
layers = (
{
layerId = m01;
shapes = (
{
closed = 1;
nodes = (
(269,552,o),
(234,517,o),
(234,476,cs),
(234,435,o),
(269,400,o),
(310,400,cs),
(351,400,o),
(386,435,o),
(386,476,cs),
(386,517,o),
(351,552,o),
(310,552,cs)
);
},
{
closed = 1;
nodes = (
(392,-200,l),
(385,-35,o),
(365,150,o),
(357,315,c),
(263,315,l),
(255,150,o),
(235,-35,o),
(228,-200,c)
);
}
);
width = 620;
}
);
unicode = 161;
},
{
glyphname = question;
layers = (
{
layerId = m01;
shapes = (
{
closed = 1;
nodes = (
(356,210,l),
(356,235,ls),
(356,359,o),
(574,348,o),
(574,523,cs),
(574,629,o),
(471,726,o),
(305,726,cs),
(198,726,o),
(105,665,o),
(46,598,c),
(117,535,l),
(157,579,o),
(216,628,o),
(308,628,cs),
(422,628,o),
(474,572,o),
(474,521,cs),
(474,415,o),
(257,430,o),
(257,229,cs),
(257,210,l)
);
},
{
closed = 1;
nodes = (
(354,-27,o),
(389,8,o),
(389,49,cs),
(389,90,o),
(354,125,o),
(313,125,cs),
(272,125,o),
(237,90,o),
(237,49,cs),
(237,8,o),
(272,-27,o),
(313,-27,cs)
);
}
);
width = 620;
},
{
associatedMasterId = m01;
layerId = "A3B44F55-CACD-4B75-B28F-C0DEEC85BE52";
name = "Sep 29, 23 15:55";
shapes = (
{
closed = 1;
nodes = (
(354,-16,o),
(388,18,o),
(388,59,cs),
(388,100,o),
(354,134,o),
(313,134,cs),
(272,134,o),
(238,100,o),
(238,59,cs),
(238,18,o),
(272,-16,o),
(313,-16,cs)
);
},
{
closed = 1;
nodes = (
(257,210,l),
(356,210,l),
(356,235,l),
(257,229,l)
);
},
{
closed = 1;
nodes = (
(117,535,l),
(157,579,o),
(216,628,o),
(308,628,cs),
(422,628,o),
(474,572,o),
(474,521,cs),
(474,415,o),
(257,430,o),
(257,229,c),
(356,235,l),
(356,359,o),
(574,348,o),
(574,523,cs),
(574,629,o),
(471,726,o),
(305,726,cs),
(198,726,o),
(105,665,o),
(46,598,c)
);
}
);
width = 620;
}
);
unicode = 63;
},
{
glyphname = questiondown;
layers = (
{
layerId = m01;
shapes = (
{
closed = 1;
nodes = (
(264,300,l),
(264,275,ls),
(264,151,o),
(46,162,o),
(46,-13,cs),
(46,-119,o),
(149,-216,o),
(315,-216,cs),
(422,-216,o),
(515,-155,o),
(574,-88,c),
(503,-25,l),
(463,-69,o),
(404,-118,o),
(312,-118,cs),
(198,-118,o),
(146,-62,o),
(146,-11,cs),
(146,95,o),
(363,80,o),
(363,281,cs),
(363,300,l)
);
},
{
closed = 1;
nodes = (
(266,537,o),
(231,502,o),
(231,461,cs),
(231,420,o),
(266,385,o),
(307,385,cs),
(348,385,o),
(383,420,o),
(383,461,cs),
(383,502,o),
(348,537,o),
(307,537,cs)
);
}
);
width = 620;
}
);
unicode = 191;
},
{
glyphname = asterisk;
layers = (
{
layerId = m01;
shapes = (
{
closed = 1;
nodes = (
(282,292,l),
(338,292,l),
(360,534,l),
(260,534,l)
);
},
{
closed = 1;
nodes = (
(302,317,l),
(320,263,l),
(554,317,l),
(524,411,l)
);
},
{
closed = 1;
nodes = (
(66,317,l),
(300,263,l),
(318,317,l),
(96,411,l)
);
},
{
closed = 1;
nodes = (
(208,58,l),
(334,275,l),
(288,309,l),
(126,117,l)
);
},
{
closed = 1;
nodes = (
(333,309,l),
(287,275,l),
(413,58,l),
(495,117,l)
);
}
);
width = 620;
}
);
unicode = 42;
},
{
glyphname = numbersign;
layers = (
{
layerId = m01;
shapes = (
{
closed = 1;
nodes = (
(46,244,l),
(46,157,l),
(508,157,l),
(508,244,l)
);
},
{
closed = 1;
nodes = (
(112,550,l),
(112,463,l),
(570,463,l),
(570,550,l)
);
},
{
closed = 1;
nodes = (
(347,710,l),
(257,710,l),
(85,0,l),
(175,0,l)
);
},
{
closed = 1;
nodes = (
(541,710,l),
(451,710,l),
(279,0,l),
(369,0,l)
);
}
);
width = 620;
}
);
unicode = 35;
},
{
glyphname = slash;
layers = (
{
layerId = m01;
shapes = (
{
closed = 1;
nodes = (
(107,-110,l),
(107,-120,l),
(208,-120,l),
(473,740,l),
(473,750,l),
(372,750,l)
);
}
);
width = 620;
}
);
unicode = 47;
},
{
glyphname = backslash;
layers = (
{
layerId = m01;
shapes = (
{
closed = 1;
nodes = (
(137,750,l),
(137,740,l),
(402,-120,l),
(503,-120,l),
(503,-110,l),
(238,750,l)
);
}
);
width = 620;
}
);
unicode = 92;
},
{
glyphname = hyphen;
layers = (
{
layerId = m01;
shapes = (
{
closed = 1;
nodes = (
(105,350,l),
(105,264,l),
(515,264,l),
(515,350,l)
);
}
);
width = 620;
}
);
unicode = 45;
},
{
glyphname = underscore;
layers = (
{
layerId = m01;
shapes = (
{
closed = 1;
nodes = (
(67,0,l),
(67,-86,l),
(553,-86,l),
(553,0,l)
);
}
);
width = 620;
}
);
unicode = 95;
},
{
glyphname = parenleft;
layers = (
{
layerId = m01;
shapes = (
{
closed = 1;
nodes = (
(460,-51,l),
(315,24,o),
(229,159,o),
(229,311,cs),
(229,463,o),
(314,598,o),
(460,673,c),
(417,760,l),
(239,668,o),
(125,507,o),
(125,311,cs),
(125,115,o),
(239,-46,o),
(417,-138,c)
);
}
);
width = 620;
},
{
associatedMasterId = m01;
layerId = "EAE24CAD-B02F-4CA0-8470-B6E79A6A0472";
name = "Sep 29, 23 15:55";
shapes = (
{
closed = 1;
nodes = (
(86,534,o),
(86,96,o),
(350,-120,c),
(455,-120,l),
(453,-110,l),
(187,101,o),
(187,529,o),
(453,740,c),
(455,750,l),
(350,750,l)
);
}
);
width = 620;
}
);
unicode = 40;
},
{
glyphname = parenright;
layers = (
{
layerId = m01;
shapes = (
{
closed = 1;
nodes = (
(381,-46,o),
(495,115,o),
(495,311,cs),
(495,507,o),
(381,668,o),
(203,760,c),
(160,673,l),
(306,598,o),
(391,463,o),
(391,311,cs),
(391,159,o),
(305,24,o),
(160,-51,c),
(203,-138,l)
);
}
);
width = 620;
},
{
associatedMasterId = m01;
layerId = "BA05E055-9C11-41E7-B3F1-48F3C81CDDCB";
name = "Sep 29, 23 15:55";
shapes = (
{
closed = 1;
nodes = (
(165,750,l),
(167,740,l),
(433,529,o),
(433,101,o),
(167,-110,c),
(165,-120,l),
(270,-120,l),
(534,96,o),
(534,534,o),
(270,750,c)
);
}
);
width = 620;
}
);
unicode = 41;
},
{
glyphname = braceleft;
layers = (
{
layerId = m01;
shapes = (
{
closed = 1;
nodes = (
(80,273,l),
(140,273,ls),
(197,273,o),
(254,213,o),
(254,166,cs),
(254,108,o),
(208,72,o),
(208,1,cs),
(208,-58,o),
(237,-101,o),
(307,-116,cs),
(345,-124,o),
(416,-133,o),
(454,-135,c),
(454,-45,l),
(422,-43,o),
(356,-40,o),
(329,-28,cs),
(309,-19,o),
(291,-4,o),
(291,16,cs),
(291,62,o),
(336,98,o),
(336,169,cs),
(336,226,o),
(279,287,o),
(234,315,c),
(279,343,o),
(336,404,o),
(336,461,cs),
(336,532,o),
(291,568,o),
(291,614,cs),
(291,634,o),
(309,649,o),
(329,658,cs),
(356,670,o),
(422,673,o),
(454,675,c),
(454,765,l),
(416,763,o),
(345,754,o),
(307,746,cs),
(237,731,o),
(208,688,o),
(208,629,cs),
(208,558,o),
(254,522,o),
(254,464,cs),
(254,417,o),
(197,357,o),
(140,357,cs),
(80,357,l)
);
}
);
width = 620;
},
{
associatedMasterId = m01;
layerId = "2C01EF6A-059F-4019-A0F8-330684C22FC1";
name = "Sep 29, 23 15:54";
shapes = (
{
closed = 1;
nodes = (
(96,275,l),
(166,275,ls),
(223,275,o),
(237,216,o),
(237,169,cs),
(237,111,o),
(218,82,o),
(218,11,cs),
(218,-48,o),
(246,-94,o),
(316,-109,cs),
(354,-117,o),
(402,-122,o),
(440,-124,c),
(440,-36,l),
(408,-34,o),
(367,-27,o),
(339,-18,cs),
(319,-12,o),
(306,11,o),
(306,31,cs),
(306,77,o),
(321,93,o),
(321,171,cs),
(321,228,o),
(292,282,o),
(250,315,c),
(292,348,o),
(321,402,o),
(321,459,cs),
(321,537,o),
(306,553,o),
(306,599,cs),
(306,619,o),
(319,642,o),
(339,648,cs),
(367,657,o),
(408,664,o),
(440,666,c),
(440,754,l),
(402,752,o),
(354,747,o),
(316,739,cs),
(246,724,o),
(218,678,o),
(218,619,cs),
(218,548,o),
(237,519,o),
(237,461,cs),
(237,414,o),
(223,355,o),
(166,355,cs),
(96,355,l)
);
}
);
width = 620;
}
);
unicode = 123;
},
{
glyphname = braceright;
layers = (
{
layerId = m01;
shapes = (
{
closed = 1;
nodes = (
(480,357,ls),
(423,357,o),
(366,417,o),
(366,464,cs),
(366,522,o),
(412,558,o),
(412,629,cs),
(412,688,o),
(383,731,o),
(313,746,cs),
(275,754,o),
(204,763,o),
(166,765,c),
(166,675,l),
(198,673,o),
(264,670,o),
(291,658,cs),
(311,649,o),
(329,634,o),
(329,614,cs),
(329,568,o),
(284,532,o),
(284,461,cs),
(284,404,o),
(341,343,o),
(386,315,c),
(341,287,o),
(284,226,o),
(284,169,cs),
(284,98,o),
(329,62,o),
(329,16,cs),
(329,-4,o),
(311,-19,o),
(291,-28,cs),
(264,-40,o),
(198,-43,o),
(166,-45,c),
(166,-135,l),
(204,-133,o),
(275,-124,o),
(313,-116,cs),
(383,-101,o),
(412,-58,o),
(412,1,cs),
(412,72,o),
(366,108,o),
(366,166,cs),
(366,213,o),
(423,273,o),
(480,273,cs),
(540,273,l),
(540,357,l)
);
}
);
width = 620;
},
{
associatedMasterId = m01;
layerId = "7E8CF38A-F0CD-4830-ABE0-99530CD0FA02";
name = "Sep 29, 23 15:54";
shapes = (
{
closed = 1;
nodes = (
(454,355,ls),
(397,355,o),
(383,414,o),
(383,461,cs),
(383,519,o),
(402,548,o),
(402,619,cs),
(402,678,o),
(374,724,o),
(304,739,cs),
(266,747,o),
(218,752,o),
(180,754,c),
(180,666,l),
(212,664,o),
(253,657,o),
(281,648,cs),
(301,642,o),
(314,619,o),
(314,599,cs),
(314,553,o),
(299,537,o),
(299,459,cs),
(299,402,o),
(328,348,o),
(370,315,c),
(328,282,o),
(299,228,o),
(299,171,cs),
(299,93,o),
(314,77,o),
(314,31,cs),
(314,11,o),
(301,-12,o),
(281,-18,cs),
(253,-27,o),
(212,-34,o),
(180,-36,c),
(180,-124,l),
(218,-122,o),
(266,-117,o),
(304,-109,cs),
(374,-94,o),
(402,-48,o),
(402,11,cs),
(402,82,o),
(383,111,o),
(383,169,cs),
(383,216,o),
(397,275,o),
(454,275,cs),
(524,275,l),
(524,355,l)
);
}
);
width = 620;
}
);
unicode = 125;
},
{
glyphname = bracketleft;
layers = (
{
layerId = m01;
shapes = (
{
closed = 1;
nodes = (
(191,-120,l),
(286,-120,l),
(286,750,l),
(191,750,l)
);
},
{
closed = 1;
nodes = (
(215,750,l),
(215,665,l),
(470,665,l),
(470,750,l)
);
},
{
closed = 1;
nodes = (
(215,-35,l),
(215,-120,l),
(470,-120,l),
(470,-35,l)
);
}
);
width = 620;
},
{
associatedMasterId = m01;
layerId = "03B1F2B1-52A8-4030-9CCA-68D82D1E6069";
name = "Sep 29, 23 15:54";
shapes = (
{
closed = 1;
nodes = (
(196,-120,l),
(291,-120,l),
(291,750,l),
(196,750,l)
);
},
{
closed = 1;
nodes = (
(220,750,l),
(220,665,l),
(440,665,l),
(440,750,l)
);
},
{
closed = 1;
nodes = (
(220,-35,l),
(220,-120,l),
(440,-120,l),
(440,-35,l)
);
}
);
width = 620;
}
);
unicode = 91;
},
{
glyphname = bracketright;
layers = (
{
layerId = m01;
shapes = (
{
closed = 1;
nodes = (
(334,750,l),
(334,-120,l),
(429,-120,l),
(429,750,l)
);
},
{
closed = 1;
nodes = (
(150,665,l),
(405,665,l),
(405,750,l),
(150,750,l)
);
},
{
closed = 1;
nodes = (
(150,-120,l),
(405,-120,l),
(405,-35,l),
(150,-35,l)
);
}
);
width = 620;
},
{
associatedMasterId = m01;
layerId = "1AAA1FCF-D10A-4F5E-8C76-FD8756F69519";
name = "Sep 29, 23 15:54";
shapes = (
{
closed = 1;
nodes = (
(329,750,l),
(329,-120,l),
(424,-120,l),
(424,750,l)
);
},
{
closed = 1;
nodes = (
(180,665,l),
(400,665,l),
(400,750,l),
(180,750,l)
);
},
{
closed = 1;
nodes = (
(180,-120,l),
(400,-120,l),
(400,-35,l),
(180,-35,l)
);
}
);
width = 620;
}
);
unicode = 93;
},
{
glyphname = quotedblleft;
layers = (
{
layerId = m01;
shapes = (
{
closed = 1;
nodes = (
(479,710,l),
(423,710,l),
(342,542,l),
(437,542,l)
);
},
{
closed = 1;
nodes = (
(364,578,o),
(334,547,o),
(334,508,cs),
(334,472,o),
(364,440,o),
(400,440,cs),
(440,440,o),
(471,472,o),
(471,508,cs),
(471,547,o),
(440,578,o),
(400,578,cs)
);
},
{
closed = 1;
nodes = (
(290,710,l),
(234,710,l),
(153,542,l),
(248,542,l)
);
},
{
closed = 1;
nodes = (
(175,578,o),
(145,547,o),
(145,508,cs),
(145,472,o),
(175,440,o),
(211,440,cs),
(251,440,o),
(282,472,o),
(282,508,cs),
(282,547,o),
(251,578,o),
(211,578,cs)
);
}
);
width = 620;
}
);
unicode = 8220;
},
{
glyphname = quotedblright;
layers = (
{
layerId = m01;
shapes = (
{
closed = 1;
nodes = (
(163,456,l),
(219,456,l),
(300,624,l),
(205,624,l)
);
},
{
closed = 1;
nodes = (
(278,588,o),
(308,619,o),
(308,658,cs),
(308,694,o),
(278,726,o),
(242,726,cs),
(202,726,o),
(171,694,o),
(171,658,cs),
(171,619,o),
(202,588,o),
(242,588,cs)
);
},
{
closed = 1;
nodes = (
(352,456,l),
(408,456,l),
(489,624,l),
(394,624,l)
);
},
{
closed = 1;
nodes = (
(467,588,o),
(497,619,o),
(497,658,cs),
(497,694,o),
(467,726,o),
(431,726,cs),
(391,726,o),
(360,694,o),
(360,658,cs),
(360,619,o),
(391,588,o),
(431,588,cs)
);
}
);
width = 620;
}
);
unicode = 8221;
},
{
glyphname = quoteleft;
layers = (
{
layerId = m01;
shapes = (
{
closed = 1;
nodes = (
(380,710,l),
(324,710,l),
(243,542,l),
(338,542,l)
);
},
{
closed = 1;
nodes = (
(265,578,o),
(235,547,o),
(235,508,cs),
(235,472,o),
(265,440,o),
(301,440,cs),
(341,440,o),
(372,472,o),
(372,508,cs),
(372,547,o),
(341,578,o),
(301,578,cs)
);
}
);
width = 620;
}
);
unicode = 8216;
},
{
glyphname = quoteright;
layers = (
{
layerId = m01;
shapes = (
{
closed = 1;
nodes = (
(235,456,l),
(291,456,l),
(372,624,l),
(277,624,l)
);
},
{
closed = 1;
nodes = (
(350,588,o),
(380,619,o),
(380,658,cs),
(380,694,o),
(350,726,o),
(314,726,cs),
(274,726,o),
(243,694,o),
(243,658,cs),
(243,619,o),
(274,588,o),
(314,588,cs)
);
}
);
width = 620;
}
);
unicode = 8217;
},
{
glyphname = quotedbl;
layers = (
{
layerId = m01;
shapes = (
{
closed = 1;
nodes = (
(180,438,l),
(232,438,l),
(269,710,l),
(143,710,l)
);
},
{
closed = 1;
nodes = (
(388,438,l),
(440,438,l),
(477,710,l),
(351,710,l)
);
}
);
width = 620;
}
);
unicode = 34;
},
{
glyphname = quotesingle;
layers = (
{
layerId = m01;
shapes = (
{
closed = 1;
nodes = (
(284,438,l),
(336,438,l),
(373,710,l),
(247,710,l)
);
}
);
width = 620;
}
);
unicode = 39;
},
{
glyphname = ampersand_ampersand;
layers = (
{
layerId = m01;
name = Regular;
shapes = (
{
closed = 1;
nodes = (
(-448,512,o),
(-412,458,o),
(-384,421,cs),
(-51,-16,l),
(16,40,l),
(-294,442,ls),
(-323,479,o),
(-350,517,o),
(-350,557,cs),
(-350,609,o),
(-312,637,o),
(-266,637,cs),
(-206,637,o),
(-183,587,o),
(-183,550,c),
(-85,550,l),
(-85,640,o),
(-148,725,o),
(-263,725,cs),
(-388,725,o),
(-448,654,o),
(-448,565,cs)
);
},
{
closed = 1;
nodes = (
(-147,191,ls),
(-169,123,o),
(-221,73,o),
(-291,72,cs),
(-372,71,o),
(-423,119,o),
(-423,198,cs),
(-423,277,o),
(-352,343,o),
(-272,343,c),
(-281,412,l),
(-410,410,o),
(-520,312,o),
(-520,198,cs),
(-520,63,o),
(-431,-16,o),
(-290,-16,cs),
(-168,-16,o),
(-101,54,o),
(-76,128,cs),
(12,394,l),
(12,404,l),
(-77,404,l)
);
},
{
closed = 1;
nodes = (
(56,512,o),
(92,458,o),
(120,421,cs),
(453,-16,l),
(520,40,l),
(208,442,ls),
(180,478,o),
(154,517,o),
(154,557,cs),
(154,609,o),
(192,637,o),
(238,637,cs),
(298,637,o),
(321,587,o),
(321,550,c),
(419,550,l),
(419,640,o),
(356,725,o),
(241,725,cs),
(116,725,o),
(56,654,o),
(56,565,cs)
);
},
{
closed = 1;
nodes = (
(357,191,ls),
(335,123,o),
(281,73,o),
(211,72,cs),
(132,71,o),
(81,119,o),
(81,198,cs),
(81,277,o),
(152,343,o),
(232,343,c),
(221,412,l),
(94,410,o),
(-16,312,o),
(-16,198,cs),
(-16,63,o),
(73,-16,o),
(212,-16,cs),
(334,-16,o),
(398,54,o),
(423,128,cs),
(512,394,l),
(512,404,l),
(427,404,l)
);
}
);
width = 620;
}
);
},
{
glyphname = bar_bracketright;
layers = (
{
layerId = m01;
shapes = (
{
closed = 1;
nodes = (
(185,750,l),
(185,-120,l),
(280,-120,l),
(280,750,l)
);
},
{
closed = 1;
nodes = (
(-74,665,l),
(256,665,l),
(256,750,l),
(-74,750,l)
);
},
{
closed = 1;
nodes = (
(-74,-120,l),
(256,-120,l),
(256,-35,l),
(-74,-35,l)
);
},
{
closed = 1;
nodes = (
(-308,-120,l),
(-212,-120,l),
(-212,750,l),
(-308,750,l)
);
}
);
width = 620;
}
);
},
{
glyphname = bar_bar;
layers = (
{
layerId = m01;
shapes = (
{
closed = 1;
nodes = (
(-260,766,l),
(-260,-160,l),
(-162,-160,l),
(-162,766,l)
);
},
{
closed = 1;
nodes = (
(162,766,l),
(162,-160,l),
(260,-160,l),
(260,766,l)
);
}
);
width = 620;
}
);
},
{
glyphname = bar_bar_bar_greater;
layers = (
{
layerId = m01;
shapes = (
{
closed = 1;
nodes = (
(-1288,632,l),
(-1288,-24,l),
(-1202,-24,l),
(-1202,632,l)
);
},
{
closed = 1;
nodes = (
(-463,632,l),
(-463,-24,l),
(-377,-24,l),
(-377,632,l)
);
},
{
closed = 1;
nodes = (
(-314,532,l),
(140,262,l),
(140,358,l),
(-304,632,l),
(-314,632,l)
);
},
{
closed = 1;
nodes = (
(-304,-24,l),
(140,255,l),
(140,351,l),
(-314,76,l),
(-314,-24,l)
);
},
{
closed = 1;
nodes = (
(-868,632,l),
(-868,-24,l),
(-782,-24,l),
(-782,632,l)
);
}
);
width = 620;
}
);
},
{
glyphname = bar_bar_greater;
layers = (
{
layerId = m01;
shapes = (
{
closed = 1;
nodes = (
(-375,632,l),
(-375,-24,l),
(-289,-24,l),
(-289,632,l)
);
},
{
closed = 1;
nodes = (
(-226,532,l),
(228,262,l),
(228,358,l),
(-216,632,l),
(-226,632,l)
);
},
{
closed = 1;
nodes = (
(-216,-24,l),
(228,255,l),
(228,351,l),
(-226,76,l),
(-226,-24,l)
);
},
{
closed = 1;
nodes = (
(-780,632,l),
(-780,-24,l),
(-694,-24,l),
(-694,632,l)
);
}
);
width = 620;
}
);
},
{
glyphname = bar_greater;
layers = (
{
layerId = m01;
shapes = (
{
closed = 1;
nodes = (
(-283,632,l),
(-283,-24,l),
(-197,-24,l),
(-197,632,l)
);
},
{
closed = 1;
nodes = (
(-134,532,l),
(320,262,l),
(320,358,l),
(-124,632,l),
(-134,632,l)
);
},
{
closed = 1;
nodes = (
(-124,-24,l),
(320,255,l),
(320,351,l),
(-134,76,l),
(-134,-24,l)
);
}
);
width = 620;
}
);
},
{
glyphname = dollar_greater;
layers = (
{
layerId = m01;
shapes = (
{
closed = 1;
nodes = (
(-369,764,l),
(-369,-61,l),
(-301,-61,l),
(-301,764,l)
);
},
{
closed = 1;
nodes = (
(-348,396,l),
(-423,425,o),
(-487,446,o),
(-487,509,cs),
(-487,570,o),
(-412,600,o),
(-326,598,cs),
(-248,596,o),
(-187,553,o),
(-186,498,c),
(-100,498,l),
(-100,624,o),
(-225,683,o),
(-326,684,cs),
(-474,685,o),
(-582,623,o),
(-582,514,cs),
(-582,399,o),
(-473,361,o),
(-348,316,c)
);
},
{
closed = 1;
nodes = (
(-327,312,l),
(-252,290,o),
(-185,260,o),
(-185,196,cs),
(-185,138,o),
(-255,108,o),
(-345,108,cs),
(-421,108,o),
(-500,149,o),
(-500,217,c),
(-598,217,l),
(-598,86,o),
(-442,22,o),
(-347,22,cs),
(-195,22,o),
(-90,86,o),
(-90,191,cs),
(-90,312,o),
(-210,352,o),
(-327,394,c)
);
},
{
closed = 1;
nodes = (
(-14,498,l),
(406,263,l),
(406,356,l),
(-4,597,l),
(-14,597,l)
);
},
{
closed = 1;
nodes = (
(-4,11,l),
(406,257,l),
(406,350,l),
(-14,110,l),
(-14,11,l)
);
}
);
width = 620;
}
);
},
{
glyphname = plus_greater;
layers = (
{
layerId = m01;
shapes = (
{
closed = 1;
nodes = (
(52,498,l),
(472,263,l),
(472,356,l),
(62,597,l),
(52,597,l)
);
},
{
closed = 1;
nodes = (
(62,11,l),
(472,257,l),
(472,350,l),
(52,110,l),
(52,11,l)
);
},
{
closed = 1;
nodes = (
(-466,264,l),
(4,264,l),
(4,350,l),
(-466,350,l)
);
},
{
closed = 1;
nodes = (
(-186,56,l),
(-186,558,l),
(-276,558,l),
(-276,56,l)
);
}
);
width = 620;
}
);
},
{
glyphname = equal_colon_equal;
layers = (
{
layerId = m01;
shapes = (
{
closed = 1;
nodes = (
(-269,97,o),
(-235,131,o),
(-235,172,cs),
(-235,213,o),
(-269,247,o),
(-310,247,cs),
(-351,247,o),
(-385,213,o),
(-385,172,cs),
(-385,131,o),
(-351,97,o),
(-310,97,cs)
);
},
{
closed = 1;
nodes = (
(-269,359,o),
(-235,393,o),
(-235,434,cs),
(-235,475,o),
(-269,509,o),
(-310,509,cs),
(-351,509,o),
(-385,475,o),
(-385,434,cs),
(-385,393,o),
(-351,359,o),
(-310,359,cs)
);
},
{
closed = 1;
nodes = (
(-50,247,l),
(-50,159,l),
(440,159,l),
(440,247,l)
);
},
{
closed = 1;
nodes = (
(-50,447,l),
(-50,359,l),
(440,359,l),
(440,447,l)
);
},
{
closed = 1;
nodes = (
(-1060,247,l),
(-1060,159,l),
(-570,159,l),
(-570,247,l)
);
},
{
closed = 1;
nodes = (
(-1060,447,l),
(-1060,359,l),
(-570,359,l),
(-570,447,l)
);
}
);
width = 620;
}
);
},
{
glyphname = equal_exclam_equal;
layers = (
{
layerId = m01;
shapes = (
{
closed = 1;
nodes = (
(-50,247,l),
(-50,159,l),
(440,159,l),
(440,247,l)
);
},
{
closed = 1;
nodes = (
(-50,447,l),
(-50,359,l),
(440,359,l),
(440,447,l)
);
},
{
closed = 1;
nodes = (
(-1060,247,l),
(-1060,159,l),
(-570,159,l),
(-570,247,l)
);
},
{
closed = 1;
nodes = (
(-1060,447,l),
(-1060,359,l),
(-570,359,l),
(-570,447,l)
);
},
{
closed = 1;
nodes = (
(-269,-27,o),
(-234,8,o),
(-234,49,cs),
(-234,90,o),
(-269,125,o),
(-310,125,cs),
(-351,125,o),
(-386,90,o),
(-386,49,cs),
(-386,8,o),
(-351,-27,o),
(-310,-27,cs)
);
},
{
closed = 1;
nodes = (
(-385,560,o),
(-365,375,o),
(-357,210,c),
(-263,210,l),
(-255,375,o),
(-235,560,o),
(-228,725,c),
(-392,725,l)
);
}
);
width = 620;
},
{
associatedMasterId = m01;
layerId = "B7342ECE-9117-46F5-895D-1A491BEB4061";
name = "Sep 29, 23 15:53";
shapes = (
{
closed = 1;
nodes = (
(-269,-16,o),
(-235,18,o),
(-235,59,cs),
(-235,100,o),
(-269,134,o),
(-310,134,cs),
(-351,134,o),
(-385,100,o),
(-385,59,cs),
(-385,18,o),
(-351,-16,o),
(-310,-16,cs)
);
},
{
closed = 1;
nodes = (
(-382,545,o),
(-367,375,o),
(-359,210,c),
(-261,210,l),
(-253,375,o),
(-238,545,o),
(-231,710,c),
(-389,710,l)
);
},
{
closed = 1;
nodes = (
(-50,247,l),
(-50,159,l),
(440,159,l),
(440,247,l)
);
},
{
closed = 1;
nodes = (
(-50,447,l),
(-50,359,l),
(440,359,l),
(440,447,l)
);
},
{
closed = 1;
nodes = (
(-1060,247,l),
(-1060,159,l),
(-570,159,l),
(-570,247,l)
);
},
{
closed = 1;
nodes = (
(-1060,447,l),
(-1060,359,l),
(-570,359,l),
(-570,447,l)
);
}
);
width = 620;
}
);
},
{
glyphname = equal_equal;
layers = (
{
layerId = m01;
shapes = (
{
closed = 1;
nodes = (
(-504,250,l),
(-504,164,l),
(-34,164,l),
(-34,250,l)
);
},
{
closed = 1;
nodes = (
(-504,452,l),
(-504,366,l),
(-34,366,l),
(-34,452,l)
);
},
{
closed = 1;
nodes = (
(34,250,l),
(34,164,l),
(504,164,l),
(504,250,l)
);
},
{
closed = 1;
nodes = (
(34,452,l),
(34,366,l),
(504,366,l),
(504,452,l)
);
}
);
width = 620;
}
);
},
{
glyphname = equal_equal_equal;
layers = (
{
layerId = m01;
shapes = (
{
closed = 1;
nodes = (
(-1094,250,l),
(-1094,164,l),
(-614,164,l),
(-614,250,l)
);
},
{
closed = 1;
nodes = (
(-1094,452,l),
(-1094,366,l),
(-614,366,l),
(-614,452,l)
);
},
{
closed = 1;
nodes = (
(-550,250,l),
(-550,164,l),
(-70,164,l),
(-70,250,l)
);
},
{
closed = 1;
nodes = (
(-550,452,l),
(-550,366,l),
(-70,366,l),
(-70,452,l)
);
},
{
closed = 1;
nodes = (
(-6,250,l),
(-6,164,l),
(474,164,l),
(474,250,l)
);
},
{
closed = 1;
nodes = (
(-6,452,l),
(-6,366,l),
(474,366,l),
(474,452,l)
);
}
);
width = 620;
}
);
},
{
glyphname = equal_greater;
layers = (
{
layerId = m01;
shapes = (
{
closed = 1;
nodes = (
(-500,258,l),
(-500,186,l),
(110,186,l),
(110,258,l)
);
},
{
closed = 1;
nodes = (
(-500,428,l),
(-500,356,l),
(110,356,l),
(110,428,l)
);
},
{
closed = 1;
nodes = (
(70,523,l),
(500,263,l),
(500,356,l),
(80,620,l),
(70,620,l)
);
},
{
closed = 1;
nodes = (
(80,-7,l),
(500,257,l),
(500,350,l),
(70,90,l),
(70,-7,l)
);
}
);
width = 620;
}
);
},
{
glyphname = equal_greater_equal;
layers = (
{
layerId = m01;
shapes = (
{
closed = 1;
nodes = (
(-50,258,l),
(-50,186,l),
(430,186,l),
(430,258,l)
);
},
{
closed = 1;
nodes = (
(-50,428,l),
(-50,356,l),
(430,356,l),
(430,428,l)
);
},
{
closed = 1;
nodes = (
(-549,523,l),
(-119,263,l),
(-119,356,l),
(-539,620,l),
(-549,620,l)
);
},
{
closed = 1;
nodes = (
(-539,-7,l),
(-119,257,l),
(-119,350,l),
(-549,90,l),
(-549,-7,l)
);
},
{
closed = 1;
nodes = (
(-1050,258,l),
(-1050,186,l),
(-520,186,l),
(-520,258,l)
);
},
{
closed = 1;
nodes = (
(-1050,428,l),
(-1050,356,l),
(-520,356,l),
(-520,428,l)
);
}
);
width = 620;
}
);
},
{
glyphname = equal_greater_greater;
layers = (
{
layerId = m01;
shapes = (
{
closed = 1;
nodes = (
(-1050,258,l),
(-1050,186,l),
(-340,186,l),
(-340,258,l)
);
},
{
closed = 1;
nodes = (
(-1050,428,l),
(-1050,356,l),
(-340,356,l),
(-340,428,l)
);
},
{
closed = 1;
nodes = (
(-368,523,l),
(62,263,l),
(62,356,l),
(-358,620,l),
(-368,620,l)
);
},
{
closed = 1;
nodes = (
(-358,-7,l),
(62,257,l),
(62,350,l),
(-368,90,l),
(-368,-7,l)
);
},
{
closed = 1;
nodes = (
(0,528,l),
(430,262,l),
(430,356,l),
(10,625,l),
(0,625,l)
);
},
{
closed = 1;
nodes = (
(10,-12,l),
(430,257,l),
(430,351,l),
(0,85,l),
(0,-12,l)
);
}
);
width = 620;
}
);
},
{
glyphname = equal_less_equal;
layers = (
{
layerId = m01;
shapes = (
{
closed = 1;
nodes = (
(-1050,186,l),
(-570,186,l),
(-570,258,l),
(-1050,258,l)
);
},
{
closed = 1;
nodes = (
(-1050,356,l),
(-570,356,l),
(-570,428,l),
(-1050,428,l)
);
},
{
closed = 1;
nodes = (
(-81,620,l),
(-501,356,l),
(-501,263,l),
(-71,523,l),
(-71,620,l)
);
},
{
closed = 1;
nodes = (
(-71,90,l),
(-501,350,l),
(-501,257,l),
(-81,-7,l),
(-71,-7,l)
);
},
{
closed = 1;
nodes = (
(-100,186,l),
(430,186,l),
(430,258,l),
(-100,258,l)
);
},
{
closed = 1;
nodes = (
(-100,356,l),
(430,356,l),
(430,428,l),
(-100,428,l)
);
}
);
width = 620;
}
);
},
{
glyphname = equal_less_less;
layers = (
{
layerId = m01;
shapes = (
{
closed = 1;
nodes = (
(-1050,258,l),
(-1050,186,l),
(-450,186,l),
(-450,258,l)
);
},
{
closed = 1;
nodes = (
(-1050,428,l),
(-1050,356,l),
(-450,356,l),
(-450,428,l)
);
},
{
closed = 1;
nodes = (
(420,620,l),
(0,356,l),
(0,263,l),
(430,523,l),
(430,620,l)
);
},
{
closed = 1;
nodes = (
(430,90,l),
(0,350,l),
(0,257,l),
(420,-7,l),
(430,-7,l)
);
},
{
closed = 1;
nodes = (
(50,625,l),
(-370,356,l),
(-370,262,l),
(60,528,l),
(60,625,l)
);
},
{
closed = 1;
nodes = (
(60,85,l),
(-370,351,l),
(-370,257,l),
(50,-12,l),
(60,-12,l)
);
}
);
width = 620;
}
);
},
{
glyphname = greater_equal_greater;
layers = (
{
layerId = m01;
shapes = (
{
closed = 1;
nodes = (
(-542,258,l),
(-542,186,l),
(29,186,l),
(29,258,l)
);
},
{
closed = 1;
nodes = (
(-542,428,l),
(-542,356,l),
(29,356,l),
(29,428,l)
);
},
{
closed = 1;
nodes = (
(0,523,l),
(430,263,l),
(430,356,l),
(10,620,l),
(0,620,l)
);
},
{
closed = 1;
nodes = (
(10,-7,l),
(430,257,l),
(430,350,l),
(0,90,l),
(0,-7,l)
);
},
{
closed = 1;
nodes = (
(-1050,528,l),
(-620,262,l),
(-620,356,l),
(-1040,625,l),
(-1050,625,l)
);
},
{
closed = 1;
nodes = (
(-1040,-12,l),
(-620,257,l),
(-620,351,l),
(-1050,85,l),
(-1050,-12,l)
);
}
);
width = 620;
}
);
},
{
glyphname = greater_greater;
layers = (
{
layerId = m01;
shapes = (
{
closed = 1;
nodes = (
(-447,492,l),
(-31,262,l),
(-31,356,l),
(-437,592,l),
(-447,592,l)
);
},
{
closed = 1;
nodes = (
(-437,16,l),
(-31,257,l),
(-31,351,l),
(-447,116,l),
(-447,16,l)
);
},
{
closed = 1;
nodes = (
(41,492,l),
(457,262,l),
(457,356,l),
(51,592,l),
(41,592,l)
);
},
{
closed = 1;
nodes = (
(51,16,l),
(457,257,l),
(457,351,l),
(41,116,l),
(41,16,l)
);
}
);
width = 620;
}
);
},
{
glyphname = greater_greater_greater;
layers = (
{
layerId = m01;
shapes = (
{
closed = 1;
nodes = (
(-528,492,l),
(-92,262,l),
(-92,356,l),
(-518,592,l),
(-528,592,l)
);
},
{
closed = 1;
nodes = (
(-518,16,l),
(-92,257,l),
(-92,351,l),
(-528,116,l),
(-528,16,l)
);
},
{
closed = 1;
nodes = (
(-20,492,l),
(416,262,l),
(416,356,l),
(-10,592,l),
(-20,592,l)
);
},
{
closed = 1;
nodes = (
(-10,16,l),
(416,257,l),
(416,351,l),
(-20,116,l),
(-20,16,l)
);
},
{
closed = 1;
nodes = (
(-1036,492,l),
(-600,262,l),
(-600,356,l),
(-1026,592,l),
(-1036,592,l)
);
},
{
closed = 1;
nodes = (
(-1026,16,l),
(-600,257,l),
(-600,351,l),
(-1036,116,l),
(-1036,16,l)
);
}
);
width = 620;
}
);
},
{
glyphname = less_hyphen;
layers = (
{
layerId = m01;
shapes = (
{
closed = 1;
nodes = (
(-162,261,l),
(490,261,l),
(490,349,l),
(-162,349,l)
);
},
{
closed = 1;
nodes = (
(-46,632,l),
(-490,358,l),
(-490,262,l),
(-36,532,l),
(-36,632,l)
);
},
{
closed = 1;
nodes = (
(-36,76,l),
(-490,351,l),
(-490,255,l),
(-46,-24,l),
(-36,-24,l)
);
}
);
width = 620;
}
);
},
{
glyphname = less_asterisk;
layers = (
{
layerId = m01;
shapes = (
{
closed = 1;
nodes = (
(-62,597,l),
(-472,356,l),
(-472,263,l),
(-52,498,l),
(-52,597,l)
);
},
{
closed = 1;
nodes = (
(-52,110,l),
(-472,350,l),
(-472,257,l),
(-62,11,l),
(-52,11,l)
);
},
{
closed = 1;
nodes = (
(181,534,l),
(203,292,l),
(259,292,l),
(281,534,l)
);
},
{
closed = 1;
nodes = (
(-13,317,l),
(221,263,l),
(239,317,l),
(17,411,l)
);
},
{
closed = 1;
nodes = (
(223,317,l),
(241,263,l),
(475,317,l),
(445,411,l)
);
},
{
closed = 1;
nodes = (
(253,309,l),
(207,275,l),
(353,58,l),
(415,117,l)
);
},
{
closed = 1;
nodes = (
(148,58,l),
(254,275,l),
(208,309,l),
(46,117,l)
);
}
);
width = 620;
}
);
},
{
glyphname = less_asterisk_greater;
layers = (
{
layerId = m01;
shapes = (
{
closed = 1;
nodes = (
(-360,534,l),
(-338,292,l),
(-282,292,l),
(-260,534,l)
);
},
{
closed = 1;
nodes = (
(-554,317,l),
(-320,263,l),
(-302,317,l),
(-524,411,l)
);
},
{
closed = 1;
nodes = (
(-318,317,l),
(-300,263,l),
(-66,317,l),
(-96,411,l)
);
},
{
closed = 1;
nodes = (
(-288,309,l),
(-334,275,l),
(-208,58,l),
(-126,117,l)
);
},
{
closed = 1;
nodes = (
(-413,58,l),
(-287,275,l),
(-333,309,l),
(-495,117,l)
);
},
{
closed = 1;
nodes = (
(-603,597,l),
(-1013,356,l),
(-1013,263,l),
(-593,498,l),
(-593,597,l)
);
},
{
closed = 1;
nodes = (
(-593,110,l),
(-1013,350,l),
(-1013,257,l),
(-603,11,l),
(-593,11,l)
);
},
{
closed = 1;
nodes = (
(-27,498,l),
(393,263,l),
(393,356,l),
(-17,597,l),
(-27,597,l)
);
},
{
closed = 1;
nodes = (
(-17,11,l),
(393,257,l),
(393,350,l),
(-27,110,l),
(-27,11,l)
);
}
);
width = 620;
}
);
},
{
glyphname = less_bar;
layers = (
{
layerId = m01;
shapes = (
{
closed = 1;
nodes = (
(197,-24,l),
(283,-24,l),
(283,632,l),
(197,632,l)
);
},
{
closed = 1;
nodes = (
(124,632,l),
(-320,358,l),
(-320,262,l),
(134,532,l),
(134,632,l)
);
},
{
closed = 1;
nodes = (
(134,76,l),
(-320,351,l),
(-320,255,l),
(124,-24,l),
(134,-24,l)
);
}
);
width = 620;
}
);
},
{
glyphname = less_bar_bar;
layers = (
{
layerId = m01;
shapes = (
{
closed = 1;
nodes = (
(-331,-24,l),
(-245,-24,l),
(-245,632,l),
(-331,632,l)
);
},
{
closed = 1;
nodes = (
(-404,632,l),
(-848,358,l),
(-848,262,l),
(-394,532,l),
(-394,632,l)
);
},
{
closed = 1;
nodes = (
(-394,76,l),
(-848,351,l),
(-848,255,l),
(-404,-24,l),
(-394,-24,l)
);
},
{
closed = 1;
nodes = (
(74,-24,l),
(160,-24,l),
(160,632,l),
(74,632,l)
);
}
);
width = 620;
}
);
},
{
glyphname = less_bar_bar_bar;
layers = (
{
layerId = m01;
shapes = (
{
closed = 1;
nodes = (
(-38,-24,l),
(48,-24,l),
(48,632,l),
(-38,632,l)
);
},
{
closed = 1;
nodes = (
(-863,-24,l),
(-777,-24,l),
(-777,632,l),
(-863,632,l)
);
},
{
closed = 1;
nodes = (
(-936,632,l),
(-1380,358,l),
(-1380,262,l),
(-926,532,l),
(-926,632,l)
);
},
{
closed = 1;
nodes = (
(-926,76,l),
(-1380,351,l),
(-1380,255,l),
(-936,-24,l),
(-926,-24,l)
);
},
{
closed = 1;
nodes = (
(-458,-24,l),
(-372,-24,l),
(-372,632,l),
(-458,632,l)
);
}
);
width = 620;
}
);
},
{
glyphname = less_bar_greater;
layers = (
{
layerId = m01;
shapes = (
{
closed = 1;
nodes = (
(-358,-98,l),
(-262,-98,l),
(-262,709,l),
(-358,709,l)
);
},
{
closed = 1;
nodes = (
(-530,645,l),
(-1020,362,l),
(-1020,255,l),
(-520,547,l),
(-520,645,l)
);
},
{
closed = 1;
nodes = (
(-520,64,l),
(-1020,356,l),
(-1020,249,l),
(-530,-34,l),
(-520,-34,l)
);
},
{
closed = 1;
nodes = (
(-100,547,l),
(400,255,l),
(400,362,l),
(-90,645,l),
(-100,645,l)
);
},
{
closed = 1;
nodes = (
(-90,-34,l),
(400,249,l),
(400,356,l),
(-100,64,l),
(-100,-34,l)
);
}
);
width = 620;
}
);
},
{
glyphname = less_dollar;
layers = (
{
layerId = m01;
shapes = (
{
closed = 1;
nodes = (
(219,764,l),
(219,-61,l),
(287,-61,l),
(287,764,l)
);
},
{
closed = 1;
nodes = (
(240,396,l),
(165,425,o),
(101,446,o),
(101,509,cs),
(101,570,o),
(176,600,o),
(262,598,cs),
(340,596,o),
(401,553,o),
(402,498,c),
(488,498,l),
(488,624,o),
(363,683,o),
(262,684,cs),
(114,685,o),
(6,623,o),
(6,514,cs),
(6,399,o),
(115,361,o),
(240,316,c)
);
},
{
closed = 1;
nodes = (
(261,312,l),
(336,290,o),
(403,260,o),
(403,196,cs),
(403,138,o),
(333,108,o),
(243,108,cs),
(167,108,o),
(88,149,o),
(88,217,c),
(-10,217,l),
(-10,86,o),
(146,22,o),
(241,22,cs),
(393,22,o),
(498,86,o),
(498,191,cs),
(498,312,o),
(378,352,o),
(261,394,c)
);
},
{
closed = 1;
nodes = (
(-96,597,l),
(-506,356,l),
(-506,263,l),
(-86,498,l),
(-86,597,l)
);
},
{
closed = 1;
nodes = (
(-86,110,l),
(-506,350,l),
(-506,257,l),
(-96,11,l),
(-86,11,l)
);
}
);
width = 620;
}
);
},
{
glyphname = less_dollar_greater;
layers = (
{
layerId = m01;
shapes = (
{
closed = 1;
nodes = (
(-335,764,l),
(-335,-61,l),
(-267,-61,l),
(-267,764,l)
);
},
{
closed = 1;
nodes = (
(-314,396,l),
(-389,425,o),
(-453,446,o),
(-453,509,cs),
(-453,570,o),
(-378,600,o),
(-292,598,cs),
(-214,596,o),
(-153,553,o),
(-152,498,c),
(-66,498,l),
(-66,624,o),
(-191,683,o),
(-292,684,cs),
(-440,685,o),
(-548,623,o),
(-548,514,cs),
(-548,399,o),
(-439,361,o),
(-314,316,c)
);
},
{
closed = 1;
nodes = (
(-293,312,l),
(-218,290,o),
(-151,260,o),
(-151,196,cs),
(-151,138,o),
(-221,108,o),
(-311,108,cs),
(-387,108,o),
(-466,149,o),
(-466,217,c),
(-564,217,l),
(-564,86,o),
(-408,22,o),
(-313,22,cs),
(-161,22,o),
(-56,86,o),
(-56,191,cs),
(-56,312,o),
(-176,352,o),
(-293,394,c)
);
},
{
closed = 1;
nodes = (
(-650,597,l),
(-1060,356,l),
(-1060,263,l),
(-640,498,l),
(-640,597,l)
);
},
{
closed = 1;
nodes = (
(-640,110,l),
(-1060,350,l),
(-1060,257,l),
(-650,11,l),
(-640,11,l)
);
},
{
closed = 1;
nodes = (
(20,498,l),
(440,263,l),
(440,356,l),
(30,597,l),
(20,597,l)
);
},
{
closed = 1;
nodes = (
(30,11,l),
(440,257,l),
(440,350,l),
(20,110,l),
(20,11,l)
);
}
);
width = 620;
}
);
},
{
glyphname = less_plus;
layers = (
{
layerId = m01;
shapes = (
{
closed = 1;
nodes = (
(-62,597,l),
(-472,356,l),
(-472,263,l),
(-52,498,l),
(-52,597,l)
);
},
{
closed = 1;
nodes = (
(-52,110,l),
(-472,350,l),
(-472,257,l),
(-62,11,l),
(-52,11,l)
);
},
{
closed = 1;
nodes = (
(-4,350,l),
(-4,264,l),
(466,264,l),
(466,350,l)
);
},
{
closed = 1;
nodes = (
(276,558,l),
(186,558,l),
(186,56,l),
(276,56,l)
);
}
);
width = 620;
}
);
},
{
glyphname = less_plus_greater;
layers = (
{
layerId = m01;
shapes = (
{
closed = 1;
nodes = (
(-545,350,l),
(-545,264,l),
(-75,264,l),
(-75,350,l)
);
},
{
closed = 1;
nodes = (
(-265,558,l),
(-355,558,l),
(-355,56,l),
(-265,56,l)
);
},
{
closed = 1;
nodes = (
(-603,597,l),
(-1013,356,l),
(-1013,263,l),
(-593,498,l),
(-593,597,l)
);
},
{
closed = 1;
nodes = (
(-593,110,l),
(-1013,350,l),
(-1013,257,l),
(-603,11,l),
(-593,11,l)
);
},
{
closed = 1;
nodes = (
(-27,498,l),
(393,263,l),
(393,356,l),
(-17,597,l),
(-27,597,l)
);
},
{
closed = 1;
nodes = (
(-17,11,l),
(393,257,l),
(393,350,l),
(-27,110,l),
(-27,11,l)
);
}
);
width = 620;
}
);
},
{
glyphname = less_equal_greater;
layers = (
{
layerId = m01;
shapes = (
{
closed = 1;
nodes = (
(-675,258,l),
(-675,186,l),
(55,186,l),
(55,258,l)
);
},
{
closed = 1;
nodes = (
(-675,428,l),
(-675,356,l),
(55,356,l),
(55,428,l)
);
},
{
closed = 1;
nodes = (
(0,523,l),
(450,263,l),
(450,356,l),
(10,620,l),
(0,620,l)
);
},
{
closed = 1;
nodes = (
(10,-7,l),
(450,257,l),
(450,350,l),
(0,90,l),
(0,-7,l)
);
},
{
closed = 1;
nodes = (
(-630,620,l),
(-1070,356,l),
(-1070,263,l),
(-620,523,l),
(-620,620,l)
);
},
{
closed = 1;
nodes = (
(-620,90,l),
(-1070,350,l),
(-1070,257,l),
(-630,-7,l),
(-620,-7,l)
);
}
);
width = 620;
}
);
},
{
glyphname = less_equal_less;
layers = (
{
layerId = m01;
shapes = (
{
closed = 1;
nodes = (
(-649,186,l),
(-78,186,l),
(-78,258,l),
(-649,258,l)
);
},
{
closed = 1;
nodes = (
(-649,356,l),
(-78,356,l),
(-78,428,l),
(-649,428,l)
);
},
{
closed = 1;
nodes = (
(-630,620,l),
(-1050,356,l),
(-1050,263,l),
(-620,523,l),
(-620,620,l)
);
},
{
closed = 1;
nodes = (
(-620,90,l),
(-1050,350,l),
(-1050,257,l),
(-630,-7,l),
(-620,-7,l)
);
},
{
closed = 1;
nodes = (
(420,625,l),
(0,356,l),
(0,262,l),
(430,528,l),
(430,625,l)
);
},
{
closed = 1;
nodes = (
(430,85,l),
(0,351,l),
(0,257,l),
(420,-12,l),
(430,-12,l)
);
}
);
width = 620;
}
);
},
{
glyphname = less_greater;
layers = (
{
layerId = m01;
shapes = (
{
closed = 1;
nodes = (
(-45,597,l),
(-455,356,l),
(-455,263,l),
(-35,498,l),
(-35,597,l)
);
},
{
closed = 1;
nodes = (
(-35,110,l),
(-455,350,l),
(-455,257,l),
(-45,11,l),
(-35,11,l)
);
},
{
closed = 1;
nodes = (
(35,498,l),
(455,263,l),
(455,356,l),
(45,597,l),
(35,597,l)
);
},
{
closed = 1;
nodes = (
(45,11,l),
(455,257,l),
(455,350,l),
(35,110,l),
(35,11,l)
);
}
);
width = 620;
}
);
},
{
glyphname = less_less;
layers = (
{
layerId = m01;
shapes = (
{
closed = 1;
nodes = (
(437,592,l),
(31,356,l),
(31,262,l),
(447,492,l),
(447,592,l)
);
},
{
closed = 1;
nodes = (
(447,116,l),
(31,351,l),
(31,257,l),
(437,16,l),
(447,16,l)
);
},
{
closed = 1;
nodes = (
(-51,592,l),
(-457,356,l),
(-457,262,l),
(-41,492,l),
(-41,592,l)
);
},
{
closed = 1;
nodes = (
(-41,116,l),
(-457,351,l),
(-457,257,l),
(-51,16,l),
(-41,16,l)
);
}
);
width = 620;
}
);
},
{
glyphname = less_less_less;
layers = (
{
layerId = m01;
shapes = (
{
closed = 1;
nodes = (
(-102,592,l),
(-528,356,l),
(-528,262,l),
(-92,492,l),
(-92,592,l)
);
},
{
closed = 1;
nodes = (
(-92,116,l),
(-528,351,l),
(-528,257,l),
(-102,16,l),
(-92,16,l)
);
},
{
closed = 1;
nodes = (
(-610,592,l),
(-1036,356,l),
(-1036,262,l),
(-600,492,l),
(-600,592,l)
);
},
{
closed = 1;
nodes = (
(-600,116,l),
(-1036,351,l),
(-1036,257,l),
(-610,16,l),
(-600,16,l)
);
},
{
closed = 1;
nodes = (
(406,592,l),
(-20,356,l),
(-20,262,l),
(416,492,l),
(416,592,l)
);
},
{
closed = 1;
nodes = (
(416,116,l),
(-20,351,l),
(-20,257,l),
(406,16,l),
(416,16,l)
);
}
);
width = 620;
}
);
},
{
glyphname = percent_percent;
layers = (
{
layerId = m01;
shapes = (
{
closed = 1;
nodes = (
(-95,710,l),
(-529,10,l),
(-528,0,l),
(-460,0,l),
(-26,700,l),
(-27,710,l)
);
},
{
closed = 1;
nodes = (
(-308,403,o),
(-260,467,o),
(-260,564,cs),
(-260,661,o),
(-308,726,o),
(-407,726,cs),
(-506,726,o),
(-554,661,o),
(-554,564,cs),
(-554,467,o),
(-506,403,o),
(-407,403,cs)
);
},
{
closed = 1;
nodes = (
(-460,469,o),
(-476,515,o),
(-476,564,cs),
(-476,614,o),
(-460,659,o),
(-407,659,cs),
(-355,659,o),
(-339,614,o),
(-339,564,cs),
(-339,515,o),
(-355,469,o),
(-407,469,cs)
);
},
{
closed = 1;
nodes = (
(-242,307,o),
(-290,243,o),
(-290,146,cs),
(-290,49,o),
(-242,-16,o),
(-143,-16,cs),
(-44,-16,o),
(4,49,o),
(4,146,cs),
(4,243,o),
(-44,307,o),
(-143,307,cs)
);
},
{
closed = 1;
nodes = (
(-91,241,o),
(-75,195,o),
(-75,146,cs),
(-75,96,o),
(-91,51,o),
(-143,51,cs),
(-196,51,o),
(-212,96,o),
(-212,146,cs),
(-212,195,o),
(-196,241,o),
(-143,241,cs)
);
},
{
closed = 1;
nodes = (
(455,710,l),
(21,10,l),
(22,0,l),
(90,0,l),
(524,700,l),
(523,710,l)
);
},
{
closed = 1;
nodes = (
(242,403,o),
(290,467,o),
(290,564,cs),
(290,661,o),
(242,726,o),
(143,726,cs),
(44,726,o),
(-4,661,o),
(-4,564,cs),
(-4,467,o),
(44,403,o),
(143,403,cs)
);
},
{
closed = 1;
nodes = (
(90,469,o),
(74,515,o),
(74,564,cs),
(74,614,o),
(90,659,o),
(143,659,cs),
(195,659,o),
(211,614,o),
(211,564,cs),
(211,515,o),
(195,469,o),
(143,469,cs)
);
},
{
closed = 1;
nodes = (
(305,307,o),
(260,243,o),
(260,146,cs),
(260,49,o),
(308,-16,o),
(407,-16,cs),
(506,-16,o),
(554,49,o),
(554,146,cs),
(554,243,o),
(503,307,o),
(407,307,cs)
);
},
{
closed = 1;
nodes = (
(459,241,o),
(475,195,o),
(475,146,cs),
(475,96,o),
(459,51,o),
(407,51,cs),
(354,51,o),
(338,96,o),
(338,146,cs),
(338,195,o),
(354,241,o),
(407,241,cs)
);
}
);
width = 620;
}
);
},
{
glyphname = at;
layers = (
{
layerId = m01;
name = Regular;
shapes = (
{
closed = 1;
nodes = (
(300,-14,o),
(359,123,o),
(359,222,cs),
(359,357,o),
(335,494,o),
(221,494,cs),
(102,494,o),
(42,361,o),
(32,236,cs),
(23,119,o),
(51,-14,o),
(176,-14,cs)
);
},
{
closed = 1;
nodes = (
(114,71,o),
(104,159,o),
(109,232,cs),
(114,311,o),
(152,408,o),
(225,408,cs),
(314,408,o),
(328,297,o),
(328,220,cs),
(328,141,o),
(258,71,o),
(188,71,cs)
);
},
{
closed = 1;
nodes = (
(380,491,l),
(312,492,l),
(301,461,l),
(288,48,l),
(326,84,l),
(364,143,l)
);
},
{
closed = 1;
nodes = (
(304,71,l),
(315,31,o),
(351,-16,o),
(416,-16,cs),
(552,-16,o),
(577,182,o),
(573,323,cs),
(567,542,o),
(500,726,o),
(284,726,cs),
(200,726,o),
(106,693,o),
(29,627,c),
(83,557,l),
(142,601,o),
(215,637,o),
(287,636,cs),
(433,634,o),
(480,477,o),
(484,322,cs),
(489,136,o),
(457,68,o),
(412,68,cs),
(388,68,o),
(364,86,o),
(364,143,c)
);
}
);
width = 620;
}
);
unicode = 64;
},
{
glyphname = ampersand;
layers = (
{
layerId = m01;
name = Regular;
shapes = (
{
closed = 1;
nodes = (
(114,512,o),
(149,458,o),
(178,421,cs),
(519,-16,l),
(586,40,l),
(268,442,ls),
(238,479,o),
(212,517,o),
(212,557,cs),
(212,609,o),
(250,637,o),
(300,637,cs),
(364,637,o),
(387,587,o),
(387,550,c),
(485,550,l),
(485,640,o),
(422,725,o),
(303,725,cs),
(174,725,o),
(114,654,o),
(114,565,cs)
);
},
{
closed = 1;
nodes = (
(423,191,ls),
(401,123,o),
(347,73,o),
(273,72,cs),
(190,71,o),
(139,119,o),
(139,198,cs),
(139,277,o),
(210,343,o),
(294,343,c),
(283,412,l),
(152,410,o),
(42,312,o),
(42,198,cs),
(42,63,o),
(131,-16,o),
(274,-16,cs),
(400,-16,o),
(467,54,o),
(492,128,cs),
(583,394,l),
(583,404,l),
(493,404,l)
);
}
);
width = 620;
}
);
unicode = 38;
},
{
glyphname = bar;
layers = (
{
layerId = m01;
shapes = (
{
closed = 1;
nodes = (
(261,766,l),
(261,-160,l),
(359,-160,l),
(359,766,l)
);
}
);
width = 620;
}
);
unicode = 124;
},
{
glyphname = dollar;
layers = (
{
layerId = m01;
shapes = (
{
closed = 1;
nodes = (
(276,764,l),
(276,-61,l),
(344,-61,l),
(344,764,l)
);
},
{
closed = 1;
nodes = (
(297,396,l),
(222,425,o),
(158,446,o),
(158,509,cs),
(158,570,o),
(233,600,o),
(319,598,cs),
(397,596,o),
(458,553,o),
(459,498,c),
(545,498,l),
(545,624,o),
(420,683,o),
(319,684,cs),
(171,685,o),
(63,623,o),
(63,514,cs),
(63,399,o),
(172,361,o),
(297,316,c)
);
},
{
closed = 1;
nodes = (
(318,312,l),
(393,290,o),
(460,260,o),
(460,196,cs),
(460,138,o),
(390,108,o),
(300,108,cs),
(224,108,o),
(145,149,o),
(145,217,c),
(47,217,l),
(47,86,o),
(203,22,o),
(298,22,cs),
(450,22,o),
(555,86,o),
(555,191,cs),
(555,312,o),
(435,352,o),
(318,394,c)
);
}
);
width = 620;
}
);
unicode = 36;
},
{
glyphname = plus;
layers = (
{
layerId = m01;
shapes = (
{
closed = 1;
nodes = (
(75,350,l),
(75,264,l),
(545,264,l),
(545,350,l)
);
},
{
closed = 1;
nodes = (
(355,558,l),
(265,558,l),
(265,56,l),
(355,56,l)
);
}
);
width = 620;
}
);
unicode = 43;
},
{
glyphname = minus;
layers = (
{
layerId = m01;
shapes = (
{
closed = 1;
nodes = (
(70,347,l),
(70,258,l),
(550,258,l),
(550,347,l)
);
}
);
width = 620;
}
);
unicode = 8722;
},
{
glyphname = equal;
layers = (
{
layerId = m01;
shapes = (
{
closed = 1;
nodes = (
(75,250,l),
(75,164,l),
(545,164,l),
(545,250,l)
);
},
{
closed = 1;
nodes = (
(75,452,l),
(75,366,l),
(545,366,l),
(545,452,l)
);
}
);
width = 620;
}
);
unicode = 61;
},
{
glyphname = greater;
layers = (
{
layerId = m01;
shapes = (
{
closed = 1;
nodes = (
(110,498,l),
(530,263,l),
(530,356,l),
(120,597,l),
(110,597,l)
);
},
{
closed = 1;
nodes = (
(120,11,l),
(530,257,l),
(530,350,l),
(110,110,l),
(110,11,l)
);
}
);
width = 620;
}
);
unicode = 62;
},
{
glyphname = less;
layers = (
{
layerId = m01;
shapes = (
{
closed = 1;
nodes = (
(500,597,l),
(90,356,l),
(90,263,l),
(510,498,l),
(510,597,l)
);
},
{
closed = 1;
nodes = (
(510,110,l),
(90,350,l),
(90,257,l),
(500,11,l),
(510,11,l)
);
}
);
width = 620;
}
);
unicode = 60;
},
{
glyphname = asciitilde;
layers = (
{
layerId = m01;
name = Regular;
shapes = (
{
closed = 1;
nodes = (
(401,180,o),
(439,169,o),
(580,345,c),
(520,394,l),
(420,276,o),
(416,271,o),
(335,346,cs),
(219,451,o),
(181,462,o),
(40,286,c),
(100,237,l),
(200,355,o),
(204,360,o),
(285,285,cs)
);
}
);
width = 620;
},
{
associatedMasterId = m01;
layerId = "008F162E-99A6-4172-B48C-F0B018320FE0";
name = "Sep 16, 23 15:39";
shapes = (
{
closed = 1;
nodes = (
(488,328,o),
(464,304,o),
(414,304,cs),
(353,304,o),
(288,385,o),
(214,385,cs),
(142,385,o),
(100,349,o),
(44,289,c),
(104,238,l),
(142,278,o),
(169,305,o),
(210,305,cs),
(274,305,o),
(331,224,o),
(417,224,cs),
(494,224,o),
(536,259,o),
(577,308,c),
(520,360,l)
);
}
);
width = 620;
}
);
unicode = 126;
},
{
glyphname = asciicircum;
layers = (
{
layerId = m01;
shapes = (
{
closed = 1;
nodes = (
(180,420,l),
(344,750,l),
(255,750,l),
(85,430,l),
(85,420,l)
);
},
{
closed = 1;
nodes = (
(519,430,l),
(349,750,l),
(260,750,l),
(424,420,l),
(519,420,l)
);
}
);
width = 620;
}
);
unicode = 94;
},
{
glyphname = percent;
layers = (
{
layerId = m01;
shapes = (
{
closed = 1;
nodes = (
(490,710,l),
(56,10,l),
(57,0,l),
(125,0,l),
(559,700,l),
(558,710,l)
);
},
{
closed = 1;
nodes = (
(272,403,o),
(320,467,o),
(320,564,cs),
(320,661,o),
(272,726,o),
(173,726,cs),
(74,726,o),
(26,661,o),
(26,564,cs),
(26,467,o),
(74,403,o),
(173,403,cs)
);
},
{
closed = 1;
nodes = (
(120,469,o),
(104,515,o),
(104,564,cs),
(104,614,o),
(120,659,o),
(173,659,cs),
(225,659,o),
(241,614,o),
(241,564,cs),
(241,515,o),
(225,469,o),
(173,469,cs)
);
},
{
closed = 1;
nodes = (
(348,307,o),
(300,243,o),
(300,146,cs),
(300,49,o),
(348,-16,o),
(447,-16,cs),
(546,-16,o),
(594,49,o),
(594,146,cs),
(594,243,o),
(546,307,o),
(447,307,cs)
);
},
{
closed = 1;
nodes = (
(499,241,o),
(515,195,o),
(515,146,cs),
(515,96,o),
(499,51,o),
(447,51,cs),
(394,51,o),
(378,96,o),
(378,146,cs),
(378,195,o),
(394,241,o),
(447,241,cs)
);
}
);
width = 620;
}
);
unicode = 37;
},
{
glyphname = boxDoubleDownAndHorizontal;
layers = (
{
layerId = m01;
shapes = (
{
closed = 1;
nodes = (
(-10,450,l),
(-10,382,l),
(630,382,l),
(630,450,l)
);
},
{
closed = 1;
nodes = (
(-10,314,l),
(-10,246,l),
(276,246,l),
(276,314,l)
);
},
{
closed = 1;
nodes = (
(276,314,l),
(208,314,l),
(208,-430,l),
(276,-430,l)
);
},
{
closed = 1;
nodes = (
(412,314,l),
(344,314,l),
(344,-430,l),
(412,-430,l)
);
},
{
closed = 1;
nodes = (
(344,314,l),
(344,246,l),
(630,246,l),
(630,314,l)
);
}
);
width = 620;
}
);
unicode = 9574;
},
{
glyphname = boxDoubleDownAndLeft;
layers = (
{
layerId = m01;
shapes = (
{
closed = 1;
nodes = (
(-10,450,l),
(-10,382,l),
(412,382,l),
(412,450,l)
);
},
{
closed = 1;
nodes = (
(-10,314,l),
(-10,246,l),
(276,246,l),
(276,314,l)
);
},
{
closed = 1;
nodes = (
(276,314,l),
(208,314,l),
(208,-430,l),
(276,-430,l)
);
},
{
closed = 1;
nodes = (
(412,450,l),
(344,450,l),
(344,-430,l),
(412,-430,l)
);
}
);
width = 620;
}
);
unicode = 9559;
},
{
glyphname = boxDoubleDownAndRight;
layers = (
{
layerId = m01;
shapes = (
{
closed = 1;
nodes = (
(208,450,l),
(208,382,l),
(630,382,l),
(630,450,l)
);
},
{
closed = 1;
nodes = (
(344,314,l),
(344,246,l),
(630,246,l),
(630,314,l)
);
},
{
closed = 1;
nodes = (
(276,450,l),
(208,450,l),
(208,-428,l),
(276,-428,l)
);
},
{
closed = 1;
nodes = (
(412,314,l),
(344,314,l),
(344,-430,l),
(412,-430,l)
);
}
);
width = 620;
}
);
unicode = 9556;
},
{
glyphname = boxDoubleHorizontal;
layers = (
{
layerId = m01;
shapes = (
{
closed = 1;
nodes = (
(-10,450,l),
(-10,382,l),
(630,382,l),
(630,450,l)
);
},
{
closed = 1;
nodes = (
(-10,314,l),
(-10,246,l),
(630,246,l),
(630,314,l)
);
}
);
width = 620;
}
);
unicode = 9552;
},
{
glyphname = boxDoubleUpAndHorizontal;
layers = (
{
layerId = m01;
shapes = (
{
closed = 1;
nodes = (
(630,314,l),
(-10,314,l),
(-10,246,l),
(630,246,l)
);
},
{
closed = 1;
nodes = (
(276,450,l),
(-10,450,l),
(-10,382,l),
(276,382,l)
);
},
{
closed = 1;
nodes = (
(208,1130,l),
(208,382,l),
(276,382,l),
(276,1130,l)
);
},
{
closed = 1;
nodes = (
(344,1130,l),
(344,382,l),
(412,382,l),
(412,1130,l)
);
},
{
closed = 1;
nodes = (
(630,450,l),
(344,450,l),
(344,382,l),
(630,382,l)
);
}
);
width = 620;
}
);
unicode = 9577;
},
{
glyphname = boxDoubleUpAndLeft;
layers = (
{
layerId = m01;
shapes = (
{
closed = 1;
nodes = (
(276,1130,l),
(208,1130,l),
(208,382,l),
(276,382,l)
);
},
{
closed = 1;
nodes = (
(412,1130,l),
(344,1130,l),
(344,246,l),
(412,246,l)
);
},
{
closed = 1;
nodes = (
(412,314,l),
(-10,314,l),
(-10,246,l),
(412,246,l)
);
},
{
closed = 1;
nodes = (
(276,450,l),
(-10,450,l),
(-10,382,l),
(276,382,l)
);
}
);
width = 620;
}
);
unicode = 9565;
},
{
glyphname = boxDoubleUpAndRight;
layers = (
{
layerId = m01;
shapes = (
{
closed = 1;
nodes = (
(412,382,l),
(412,1130,l),
(344,1130,l),
(344,382,l)
);
},
{
closed = 1;
nodes = (
(276,246,l),
(276,1130,l),
(208,1130,l),
(208,246,l)
);
},
{
closed = 1;
nodes = (
(630,314,l),
(208,314,l),
(208,246,l),
(630,246,l)
);
},
{
closed = 1;
nodes = (
(630,450,l),
(344,450,l),
(344,382,l),
(630,382,l)
);
}
);
width = 620;
}
);
unicode = 9562;
},
{
glyphname = boxDoubleVertical;
layers = (
{
layerId = m01;
shapes = (
{
closed = 1;
nodes = (
(276,1130,l),
(208,1130,l),
(208,-430,l),
(276,-430,l)
);
},
{
closed = 1;
nodes = (
(412,1130,l),
(344,1130,l),
(344,-430,l),
(412,-430,l)
);
}
);
width = 620;
}
);
unicode = 9553;
},
{
glyphname = boxDoubleVerticalAndHorizontal;
layers = (
{
layerId = m01;
shapes = (
{
closed = 1;
nodes = (
(276,450,l),
(-10,450,l),
(-10,382,l),
(276,382,l)
);
},
{
closed = 1;
nodes = (
(208,1130,l),
(208,382,l),
(276,382,l),
(276,1130,l)
);
},
{
closed = 1;
nodes = (
(344,1130,l),
(344,382,l),
(412,382,l),
(412,1130,l)
);
},
{
closed = 1;
nodes = (
(630,450,l),
(344,450,l),
(344,382,l),
(630,382,l)
);
},
{
closed = 1;
nodes = (
(-10,314,l),
(-10,246,l),
(276,246,l),
(276,314,l)
);
},
{
closed = 1;
nodes = (
(276,314,l),
(208,314,l),
(208,-430,l),
(276,-430,l)
);
},
{
closed = 1;
nodes = (
(412,314,l),
(344,314,l),
(344,-430,l),
(412,-430,l)
);
},
{
closed = 1;
nodes = (
(344,314,l),
(344,246,l),
(630,246,l),
(630,314,l)
);
}
);
width = 620;
}
);
unicode = 9580;
},
{
glyphname = boxDoubleVerticalAndLeft;
layers = (
{
layerId = m01;
shapes = (
{
closed = 1;
nodes = (
(276,450,l),
(-10,450,l),
(-10,382,l),
(276,382,l)
);
},
{
closed = 1;
nodes = (
(208,1130,l),
(208,382,l),
(276,382,l),
(276,1130,l)
);
},
{
closed = 1;
nodes = (
(344,1130,l),
(344,-430,l),
(412,-430,l),
(412,1130,l)
);
},
{
closed = 1;
nodes = (
(-10,314,l),
(-10,246,l),
(276,246,l),
(276,314,l)
);
},
{
closed = 1;
nodes = (
(276,314,l),
(208,314,l),
(208,-430,l),
(276,-430,l)
);
}
);
width = 620;
}
);
unicode = 9571;
},
{
glyphname = boxDoubleVerticalAndRight;
layers = (
{
layerId = m01;
shapes = (
{
closed = 1;
nodes = (
(630,450,l),
(344,450,l),
(344,382,l),
(630,382,l)
);
},
{
closed = 1;
nodes = (
(344,382,l),
(412,382,l),
(412,1130,l),
(344,1130,l)
);
},
{
closed = 1;
nodes = (
(208,-430,l),
(276,-430,l),
(276,1130,l),
(208,1130,l)
);
},
{
closed = 1;
nodes = (
(344,314,l),
(344,246,l),
(630,246,l),
(630,314,l)
);
},
{
closed = 1;
nodes = (
(412,-430,l),
(412,314,l),
(344,314,l),
(344,-430,l)
);
}
);
width = 620;
}
);
unicode = 9568;
},
{
glyphname = boxDownDoubleAndHorizontalSingle;
layers = (
{
layerId = m01;
shapes = (
{
closed = 1;
nodes = (
(-10,382,l),
(-10,314,l),
(630,314,l),
(630,382,l)
);
},
{
closed = 1;
nodes = (
(276,382,l),
(208,382,l),
(208,-430,l),
(276,-430,l)
);
},
{
closed = 1;
nodes = (
(412,382,l),
(344,382,l),
(344,-430,l),
(412,-430,l)
);
}
);
width = 620;
}
);
unicode = 9573;
},
{
glyphname = boxDownDoubleAndLeftSingle;
layers = (
{
layerId = m01;
shapes = (
{
closed = 1;
nodes = (
(-10,382,l),
(-10,314,l),
(412,314,l),
(412,382,l)
);
},
{
closed = 1;
nodes = (
(276,382,l),
(208,382,l),
(208,-430,l),
(276,-430,l)
);
},
{
closed = 1;
nodes = (
(412,382,l),
(344,382,l),
(344,-430,l),
(412,-430,l)
);
}
);
width = 620;
}
);
unicode = 9558;
},
{
glyphname = boxDownDoubleAndRightSingle;
layers = (
{
layerId = m01;
shapes = (
{
closed = 1;
nodes = (
(208,382,l),
(208,314,l),
(630,314,l),
(630,382,l)
);
},
{
closed = 1;
nodes = (
(276,382,l),
(208,382,l),
(208,-430,l),
(276,-430,l)
);
},
{
closed = 1;
nodes = (
(412,382,l),
(344,382,l),
(344,-430,l),
(412,-430,l)
);
}
);
width = 620;
}
);
unicode = 9555;
},
{
glyphname = boxDownHeavyAndHorizontalLight;
layers = (
{
layerId = m01;
shapes = (
{
closed = 1;
nodes = (
(-10,382,l),
(-10,314,l),
(630,314,l),
(630,382,l)
);
},
{
closed = 1;
nodes = (
(395,382,l),
(225,382,l),
(225,-430,l),
(395,-430,l)
);
}
);
width = 620;
}
);
unicode = 9520;
},
{
glyphname = boxDownHeavyAndLeftLight;
layers = (
{
layerId = m01;
shapes = (
{
closed = 1;
nodes = (
(395,382,l),
(225,382,l),
(225,-430,l),
(395,-430,l)
);
},
{
closed = 1;
nodes = (
(-10,382,l),
(-10,314,l),
(344,314,l),
(344,382,l)
);
}
);
width = 620;
}
);
unicode = 9490;
},
{
glyphname = boxDownHeavyAndLeftUpLight;
layers = (
{
layerId = m01;
shapes = (
{
closed = 1;
nodes = (
(344,1130,l),
(276,1130,l),
(276,-430,l),
(344,-430,l)
);
},
{
closed = 1;
nodes = (
(344,1130,l),
(276,1130,l),
(276,-430,l),
(344,-430,l)
);
},
{
closed = 1;
nodes = (
(-10,382,l),
(-10,314,l),
(344,314,l),
(344,382,l)
);
},
{
closed = 1;
nodes = (
(395,382,l),
(225,382,l),
(225,-430,l),
(395,-430,l)
);
}
);
width = 620;
}
);
unicode = 9511;
},
{
glyphname = boxDownHeavyAndRightLight;
layers = (
{
layerId = m01;
shapes = (
{
closed = 1;
nodes = (
(395,382,l),
(225,382,l),
(225,-430,l),
(395,-430,l)
);
},
{
closed = 1;
nodes = (
(276,382,l),
(276,314,l),
(630,314,l),
(630,382,l)
);
}
);
width = 620;
}
);
unicode = 9486;
},
{
glyphname = boxDownHeavyAndRightUpLight;
layers = (
{
layerId = m01;
shapes = (
{
closed = 1;
nodes = (
(344,1130,l),
(276,1130,l),
(276,-430,l),
(344,-430,l)
);
},
{
closed = 1;
nodes = (
(276,382,l),
(276,314,l),
(540,314,l),
(540,382,l)
);
},
{
closed = 1;
nodes = (
(395,382,l),
(225,382,l),
(225,-430,l),
(395,-430,l)
);
}
);
width = 620;
}
);
unicode = 9503;
},
{
glyphname = boxDownHeavyAndUpHorizontalLight;
layers = (
{
layerId = m01;
shapes = (
{
closed = 1;
nodes = (
(-10,382,l),
(-10,314,l),
(630,314,l),
(630,382,l)
);
},
{
closed = 1;
nodes = (
(344,1130,l),
(276,1130,l),
(276,-430,l),
(344,-430,l)
);
},
{
closed = 1;
nodes = (
(395,382,l),
(225,382,l),
(225,-430,l),
(395,-430,l)
);
}
);
width = 620;
}
);
unicode = 9537;
},
{
glyphname = boxDownLightAndHorizontalHeavy;
layers = (
{
layerId = m01;
shapes = (
{
closed = 1;
nodes = (
(344,382,l),
(276,382,l),
(276,-430,l),
(344,-430,l)
);
},
{
closed = 1;
nodes = (
(-10,433,l),
(-10,263,l),
(630,263,l),
(630,433,l)
);
}
);
width = 620;
}
);
unicode = 9519;
},
{
glyphname = boxDownLightAndLeftHeavy;
layers = (
{
layerId = m01;
shapes = (
{
closed = 1;
nodes = (
(344,382,l),
(276,382,l),
(276,-430,l),
(344,-430,l)
);
},
{
closed = 1;
nodes = (
(-10,433,l),
(-10,263,l),
(344,263,l),
(344,433,l)
);
}
);
width = 620;
}
);
unicode = 9489;
},
{
glyphname = boxDownLightAndLeftUpHeavy;
layers = (
{
layerId = m01;
shapes = (
{
closed = 1;
nodes = (
(-10,433,l),
(-10,263,l),
(395,263,l),
(395,433,l)
);
},
{
closed = 1;
nodes = (
(344,1130,l),
(276,1130,l),
(276,-430,l),
(344,-430,l)
);
},
{
closed = 1;
nodes = (
(395,1130,l),
(225,1130,l),
(225,314,l),
(395,314,l)
);
}
);
width = 620;
}
);
unicode = 9513;
},
{
glyphname = boxDownLightAndRightHeavy;
layers = (
{
layerId = m01;
shapes = (
{
closed = 1;
nodes = (
(344,382,l),
(276,382,l),
(276,-430,l),
(344,-430,l)
);
},
{
closed = 1;
nodes = (
(276,433,l),
(276,263,l),
(630,263,l),
(630,433,l)
);
}
);
width = 620;
}
);
unicode = 9485;
},
{
glyphname = boxDownLightAndRightUpHeavy;
layers = (
{
layerId = m01;
shapes = (
{
closed = 1;
nodes = (
(344,1130,l),
(276,1130,l),
(276,-430,l),
(344,-430,l)
);
},
{
closed = 1;
nodes = (
(395,1130,l),
(225,1130,l),
(225,314,l),
(395,314,l)
);
},
{
closed = 1;
nodes = (
(225,433,l),
(225,263,l),
(630,263,l),
(630,433,l)
);
}
);
width = 620;
}
);
unicode = 9505;
},
{
glyphname = boxDownLightAndUpHorizontalHeavy;
layers = (
{
layerId = m01;
shapes = (
{
closed = 1;
nodes = (
(344,1130,l),
(276,1130,l),
(276,-430,l),
(344,-430,l)
);
},
{
closed = 1;
nodes = (
(395,1130,l),
(225,1130,l),
(225,314,l),
(395,314,l)
);
},
{
closed = 1;
nodes = (
(-10,433,l),
(-10,263,l),
(630,263,l),
(630,433,l)
);
}
);
width = 620;
}
);
unicode = 9543;
},
{
glyphname = boxDownSingleAndHorizontalDouble;
layers = (
{
layerId = m01;
shapes = (
{
closed = 1;
nodes = (
(-10,450,l),
(-10,382,l),
(630,382,l),
(630,450,l)
);
},
{
closed = 1;
nodes = (
(-10,314,l),
(-10,246,l),
(630,246,l),
(630,314,l)
);
},
{
closed = 1;
nodes = (
(344,314,l),
(276,314,l),
(276,-430,l),
(344,-430,l)
);
}
);
width = 620;
}
);
unicode = 9572;
},
{
glyphname = boxDownSingleAndLeftDouble;
layers = (
{
layerId = m01;
shapes = (
{
closed = 1;
nodes = (
(-10,450,l),
(-10,382,l),
(344,382,l),
(344,450,l)
);
},
{
closed = 1;
nodes = (
(-10,314,l),
(-10,246,l),
(344,246,l),
(344,314,l)
);
},
{
closed = 1;
nodes = (
(344,450,l),
(276,450,l),
(276,-430,l),
(344,-430,l)
);
}
);
width = 620;
}
);
unicode = 9557;
},
{
glyphname = boxDownSingleAndRightDouble;
layers = (
{
layerId = m01;
shapes = (
{
closed = 1;
nodes = (
(276,450,l),
(276,382,l),
(630,382,l),
(630,450,l)
);
},
{
closed = 1;
nodes = (
(276,314,l),
(276,246,l),
(630,246,l),
(630,314,l)
);
},
{
closed = 1;
nodes = (
(344,450,l),
(276,450,l),
(276,-430,l),
(344,-430,l)
);
}
);
width = 620;
}
);
unicode = 9554;
},
{
glyphname = boxHeavyDoubleDashHorizontal;
layers = (
{
layerId = m01;
shapes = (
{
closed = 1;
nodes = (
(390,433,l),
(390,263,l),
(630,263,l),
(630,433,l)
);
},
{
closed = 1;
nodes = (
(-10,433,l),
(-10,263,l),
(230,263,l),
(230,433,l)
);
}
);
width = 620;
}
);
unicode = 9549;
},
{
glyphname = boxHeavyDoubleDashVertical;
layers = (
{
layerId = m01;
shapes = (
{
closed = 1;
nodes = (
(395,1130,l),
(225,1130,l),
(225,500,l),
(395,500,l)
);
},
{
closed = 1;
nodes = (
(395,200,l),
(225,200,l),
(225,-430,l),
(395,-430,l)
);
}
);
width = 620;
}
);
unicode = 9551;
},
{
glyphname = boxHeavyDown;
layers = (
{
layerId = m01;
shapes = (
{
closed = 1;
nodes = (
(395,314,l),
(225,314,l),
(225,-430,l),
(395,-430,l)
);
}
);
width = 620;
}
);
unicode = 9595;
},
{
glyphname = boxHeavyDownAndHorizontal;
layers = (
{
layerId = m01;
shapes = (
{
closed = 1;
nodes = (
(395,382,l),
(225,382,l),
(225,-430,l),
(395,-430,l)
);
},
{
closed = 1;
nodes = (
(-10,433,l),
(-10,263,l),
(630,263,l),
(630,433,l)
);
}
);
width = 620;
}
);
unicode = 9523;
},
{
glyphname = boxHeavyDownAndLeft;
layers = (
{
layerId = m01;
shapes = (
{
closed = 1;
nodes = (
(395,382,l),
(225,382,l),
(225,-430,l),
(395,-430,l)
);
},
{
closed = 1;
nodes = (
(-10,433,l),
(-10,263,l),
(395,263,l),
(395,433,l)
);
}
);
width = 620;
}
);
unicode = 9491;
},
{
glyphname = boxHeavyDownAndRight;
layers = (
{
layerId = m01;
shapes = (
{
closed = 1;
nodes = (
(395,382,l),
(225,382,l),
(225,-430,l),
(395,-430,l)
);
},
{
closed = 1;
nodes = (
(225,433,l),
(225,263,l),
(630,263,l),
(630,433,l)
);
}
);
width = 620;
}
);
unicode = 9487;
},
{
glyphname = boxHeavyHorizontal;
layers = (
{
layerId = m01;
shapes = (
{
closed = 1;
nodes = (
(-10,433,l),
(-10,263,l),
(630,263,l),
(630,433,l)
);
}
);
width = 620;
}
);
unicode = 9473;
},
{
glyphname = boxHeavyLeft;
layers = (
{
layerId = m01;
shapes = (
{
closed = 1;
nodes = (
(-10,433,l),
(-10,263,l),
(276,263,l),
(276,433,l)
);
}
);
width = 620;
}
);
unicode = 9592;
},
{
glyphname = boxHeavyLeftAndLightRight;
layers = (
{
layerId = m01;
shapes = (
{
closed = 1;
nodes = (
(-10,433,l),
(-10,263,l),
(344,263,l),
(344,433,l)
);
},
{
closed = 1;
nodes = (
(208,382,l),
(208,314,l),
(630,314,l),
(630,382,l)
);
}
);
width = 620;
}
);
unicode = 9598;
},
{
glyphname = boxHeavyQuadrupleDashHorizontal;
layers = (
{
layerId = m01;
shapes = (
{
closed = 1;
nodes = (
(565,433,l),
(565,263,l),
(630,263,l),
(630,433,l)
);
},
{
closed = 1;
nodes = (
(358,433,l),
(358,263,l),
(468,263,l),
(468,433,l)
);
},
{
closed = 1;
nodes = (
(152,433,l),
(152,263,l),
(262,263,l),
(262,433,l)
);
},
{
closed = 1;
nodes = (
(-10,433,l),
(-10,263,l),
(55,263,l),
(55,433,l)
);
}
);
width = 620;
}
);
unicode = 9481;
},
{
glyphname = boxHeavyQuadrupleDashVertical;
layers = (
{
layerId = m01;
shapes = (
{
closed = 1;
nodes = (
(394,760,l),
(226,760,l),
(226,460,l),
(394,460,l)
);
},
{
closed = 1;
nodes = (
(394,240,l),
(226,240,l),
(226,-60,l),
(394,-60,l)
);
},
{
closed = 1;
nodes = (
(394,1130,l),
(226,1130,l),
(226,980,l),
(394,980,l)
);
},
{
closed = 1;
nodes = (
(394,-280,l),
(226,-280,l),
(226,-430,l),
(394,-430,l)
);
}
);
width = 620;
}
);
unicode = 9483;
},
{
glyphname = boxHeavyRight;
layers = (
{
layerId = m01;
shapes = (
{
closed = 1;
nodes = (
(344,433,l),
(344,263,l),
(630,263,l),
(630,433,l)
);
}
);
width = 620;
}
);
unicode = 9594;
},
{
glyphname = boxHeavyTripleDashHorizontal;
layers = (
{
layerId = m01;
shapes = (
{
closed = 1;
nodes = (
(510,433,l),
(510,263,l),
(630,263,l),
(630,433,l)
);
},
{
closed = 1;
nodes = (
(-10,433,l),
(-10,263,l),
(110,263,l),
(110,433,l)
);
},
{
closed = 1;
nodes = (
(200,433,l),
(200,263,l),
(420,263,l),
(420,433,l)
);
}
);
width = 620;
}
);
unicode = 9477;
},
{
glyphname = boxHeavyTripleDashVertical;
layers = (
{
layerId = m01;
shapes = (
{
closed = 1;
nodes = (
(394,1130,l),
(226,1130,l),
(226,825,l),
(394,825,l)
);
},
{
closed = 1;
nodes = (
(394,-125,l),
(226,-125,l),
(226,-430,l),
(394,-430,l)
);
},
{
closed = 1;
nodes = (
(394,620,l),
(226,620,l),
(226,80,l),
(394,80,l)
);
}
);
width = 620;
}
);
unicode = 9479;
},
{
glyphname = boxHeavyUp;
layers = (
{
layerId = m01;
shapes = (
{
closed = 1;
nodes = (
(395,1130,l),
(225,1130,l),
(225,382,l),
(395,382,l)
);
}
);
width = 620;
}
);
unicode = 9593;
},
{
glyphname = boxHeavyUpAndHorizontal;
layers = (
{
layerId = m01;
shapes = (
{
closed = 1;
nodes = (
(395,1130,l),
(225,1130,l),
(225,314,l),
(395,314,l)
);
},
{
closed = 1;
nodes = (
(-10,433,l),
(-10,263,l),
(630,263,l),
(630,433,l)
);
}
);
width = 620;
}
);
unicode = 9531;
},
{
glyphname = boxHeavyUpAndLeft;
layers = (
{
layerId = m01;
shapes = (
{
closed = 1;
nodes = (
(-10,433,l),
(-10,263,l),
(395,263,l),
(395,433,l)
);
},
{
closed = 1;
nodes = (
(395,1130,l),
(225,1130,l),
(225,314,l),
(395,314,l)
);
}
);
width = 620;
}
);
unicode = 9499;
},
{
glyphname = boxHeavyUpAndLightDown;
layers = (
{
layerId = m01;
shapes = (
{
closed = 1;
nodes = (
(395,1130,l),
(225,1130,l),
(225,314,l),
(395,314,l)
);
},
{
closed = 1;
nodes = (
(344,428,l),
(276,428,l),
(276,-430,l),
(344,-430,l)
);
}
);
width = 620;
}
);
unicode = 9599;
},
{
glyphname = boxHeavyUpAndRight;
layers = (
{
layerId = m01;
shapes = (
{
closed = 1;
nodes = (
(225,433,l),
(225,263,l),
(630,263,l),
(630,433,l)
);
},
{
closed = 1;
nodes = (
(395,1130,l),
(225,1130,l),
(225,314,l),
(395,314,l)
);
}
);
width = 620;
}
);
unicode = 9495;
},
{
glyphname = boxHeavyVertical;
layers = (
{
layerId = m01;
shapes = (
{
closed = 1;
nodes = (
(395,1130,l),
(225,1130,l),
(225,-430,l),
(395,-430,l)
);
}
);
width = 620;
}
);
unicode = 9475;
},
{
glyphname = boxHeavyVerticalAndHorizontal;
layers = (
{
layerId = m01;
shapes = (
{
closed = 1;
nodes = (
(-10,382,l),
(-10,314,l),
(630,314,l),
(630,382,l)
);
},
{
closed = 1;
nodes = (
(-10,433,l),
(-10,263,l),
(630,263,l),
(630,433,l)
);
},
{
closed = 1;
nodes = (
(395,1130,l),
(225,1130,l),
(225,-430,l),
(395,-430,l)
);
}
);
width = 620;
}
);
unicode = 9547;
},
{
glyphname = boxHeavyVerticalAndLeft;
layers = (
{
layerId = m01;
shapes = (
{
closed = 1;
nodes = (
(-10,433,l),
(-10,263,l),
(395,263,l),
(395,433,l)
);
},
{
closed = 1;
nodes = (
(395,1130,l),
(225,1130,l),
(225,-430,l),
(395,-430,l)
);
}
);
width = 620;
}
);
unicode = 9515;
},
{
glyphname = boxHeavyVerticalAndRight;
layers = (
{
layerId = m01;
shapes = (
{
closed = 1;
nodes = (
(395,1130,l),
(225,1130,l),
(225,-430,l),
(395,-430,l)
);
},
{
closed = 1;
nodes = (
(225,433,l),
(225,263,l),
(630,263,l),
(630,433,l)
);
}
);
width = 620;
}
);
unicode = 9507;
},
{
glyphname = boxLeftDownHeavyAndRightUpLight;
layers = (
{
layerId = m01;
shapes = (
{
closed = 1;
nodes = (
(-10,382,l),
(-10,314,l),
(630,314,l),
(630,382,l)
);
},
{
closed = 1;
nodes = (
(344,1130,l),
(276,1130,l),
(276,314,l),
(344,314,l)
);
}
);
width = 620;
}
);
unicode = 9524;
},
{
glyphname = boxLeftHeavyAndRightDownLight;
layers = (
{
layerId = m01;
shapes = (
{
closed = 1;
nodes = (
(344,382,l),
(276,382,l),
(276,-430,l),
(344,-430,l)
);
},
{
closed = 1;
nodes = (
(-10,382,l),
(-10,314,l),
(630,314,l),
(630,382,l)
);
},
{
closed = 1;
nodes = (
(-10,433,l),
(-10,263,l),
(345,263,l),
(345,433,l)
);
}
);
width = 620;
}
);
unicode = 9517;
},
{
glyphname = boxLeftHeavyAndRightUpLight;
layers = (
{
layerId = m01;
shapes = (
{
closed = 1;
nodes = (
(-10,382,l),
(-10,314,l),
(630,314,l),
(630,382,l)
);
},
{
closed = 1;
nodes = (
(344,1130,l),
(276,1130,l),
(276,314,l),
(344,314,l)
);
},
{
closed = 1;
nodes = (
(-10,433,l),
(-10,263,l),
(344,263,l),
(344,433,l)
);
}
);
width = 620;
}
);
unicode = 9525;
},
{
glyphname = boxLeftHeavyAndRightVerticalLight;
layers = (
{
layerId = m01;
shapes = (
{
closed = 1;
nodes = (
(-10,382,l),
(-10,314,l),
(630,314,l),
(630,382,l)
);
},
{
closed = 1;
nodes = (
(344,1130,l),
(276,1130,l),
(276,-430,l),
(344,-430,l)
);
},
{
closed = 1;
nodes = (
(-10,433,l),
(-10,263,l),
(344,263,l),
(344,433,l)
);
}
);
width = 620;
}
);
unicode = 9533;
},
{
glyphname = boxLeftLightAndRightDownHeavy;
layers = (
{
layerId = m01;
shapes = (
{
closed = 1;
nodes = (
(-10,382,l),
(-10,314,l),
(630,314,l),
(630,382,l)
);
},
{
closed = 1;
nodes = (
(395,382,l),
(225,382,l),
(225,-430,l),
(395,-430,l)
);
},
{
closed = 1;
nodes = (
(225,433,l),
(225,263,l),
(630,263,l),
(630,433,l)
);
}
);
width = 620;
}
);
unicode = 9522;
},
{
glyphname = boxLeftLightAndRightUpHeavy;
layers = (
{
layerId = m01;
shapes = (
{
closed = 1;
nodes = (
(-10,382,l),
(-10,314,l),
(630,314,l),
(630,382,l)
);
},
{
closed = 1;
nodes = (
(395,1130,l),
(225,1130,l),
(225,314,l),
(395,314,l)
);
},
{
closed = 1;
nodes = (
(225,433,l),
(225,263,l),
(630,263,l),
(630,433,l)
);
}
);
width = 620;
}
);
unicode = 9530;
},
{
glyphname = boxLeftLightAndRightVerticalHeavy;
layers = (
{
layerId = m01;
shapes = (
{
closed = 1;
nodes = (
(-10,382,l),
(-10,314,l),
(630,314,l),
(630,382,l)
);
},
{
closed = 1;
nodes = (
(395,1130,l),
(225,1130,l),
(225,-430,l),
(395,-430,l)
);
},
{
closed = 1;
nodes = (
(225,433,l),
(225,263,l),
(630,263,l),
(630,433,l)
);
}
);
width = 620;
}
);
unicode = 9546;
},
{
glyphname = boxLeftUpHeavyAndRightDownLight;
layers = (
{
layerId = m01;
shapes = (
{
closed = 1;
nodes = (
(-10,382,l),
(-10,314,l),
(630,314,l),
(630,382,l)
);
},
{
closed = 1;
nodes = (
(344,1130,l),
(276,1130,l),
(276,-430,l),
(344,-430,l)
);
},
{
closed = 1;
nodes = (
(395,1130,l),
(225,1130,l),
(225,314,l),
(395,314,l)
);
},
{
closed = 1;
nodes = (
(-10,433,l),
(-10,263,l),
(395,263,l),
(395,433,l)
);
}
);
width = 620;
}
);
unicode = 9539;
},
{
glyphname = boxLightArcDownAndLeft;
layers = (
{
layerId = m01;
shapes = (
{
closed = 1;
nodes = (
(344,57,ls),
(344,265,o),
(269,382,o),
(74,382,cs),
(-10,382,l),
(-10,314,l),
(54,314,ls),
(222,314,o),
(276,250,o),
(276,38,cs),
(276,-430,l),
(344,-430,l)
);
}
);
width = 620;
}
);
unicode = 9582;
},
{
glyphname = boxLightArcDownAndRight;
layers = (
{
layerId = m01;
shapes = (
{
closed = 1;
nodes = (
(344,-430,l),
(344,38,ls),
(344,250,o),
(398,314,o),
(566,314,cs),
(630,314,l),
(630,382,l),
(546,382,ls),
(351,382,o),
(276,265,o),
(276,57,cs),
(276,-430,l)
);
}
);
width = 620;
}
);
unicode = 9581;
},
{
glyphname = boxLightArcUpAndLeft;
layers = (
{
layerId = m01;
shapes = (
{
closed = 1;
nodes = (
(276,1130,l),
(276,658,ls),
(276,446,o),
(222,382,o),
(54,382,cs),
(-10,382,l),
(-10,314,l),
(74,314,ls),
(269,314,o),
(344,431,o),
(344,639,cs),
(344,1130,l)
);
}
);
width = 620;
}
);
unicode = 9583;
},
{
glyphname = boxLightArcUpAndRight;
layers = (
{
layerId = m01;
shapes = (
{
closed = 1;
nodes = (
(276,639,ls),
(276,431,o),
(351,314,o),
(546,314,cs),
(630,314,l),
(630,382,l),
(566,382,ls),
(398,382,o),
(344,446,o),
(344,658,cs),
(344,1130,l),
(276,1130,l)
);
}
);
width = 620;
}
);
unicode = 9584;
},
{
glyphname = boxLightDiagonalCross;
layers = (
{
layerId = m01;
shapes = (
{
closed = 1;
nodes = (
(0,-10,l),
(668,658,l),
(620,706,l),
(-48,38,l)
);
},
{
closed = 1;
nodes = (
(668,38,l),
(0,706,l),
(-48,658,l),
(620,-10,l)
);
}
);
width = 620;
}
);
unicode = 9587;
},
{
glyphname = boxLightDiagonalUpperLeftToLowerRight;
layers = (
{
layerId = m01;
shapes = (
{
closed = 1;
nodes = (
(-48,658,l),
(620,-10,l),
(668,38,l),
(0,706,l)
);
}
);
width = 620;
}
);
unicode = 9586;
},
{
glyphname = boxLightDiagonalUpperRightToLowerLeft;
layers = (
{
layerId = m01;
shapes = (
{
closed = 1;
nodes = (
(0,-10,l),
(668,658,l),
(620,706,l),
(-48,38,l)
);
}
);
width = 620;
}
);
unicode = 9585;
},
{
glyphname = boxLightDoubleDashHorizontal;
layers = (
{
layerId = m01;
shapes = (
{
closed = 1;
nodes = (
(390,382,l),
(390,314,l),
(630,314,l),
(630,382,l)
);
},
{
closed = 1;
nodes = (
(-10,382,l),
(-10,314,l),
(230,314,l),
(230,382,l)
);
}
);
width = 620;
}
);
unicode = 9548;
},
{
glyphname = boxLightDoubleDashVertical;
layers = (
{
layerId = m01;
shapes = (
{
closed = 1;
nodes = (
(344,1130,l),
(276,1130,l),
(276,500,l),
(344,500,l)
);
},
{
closed = 1;
nodes = (
(344,200,l),
(276,200,l),
(276,-430,l),
(344,-430,l)
);
}
);
width = 620;
}
);
unicode = 9550;
},
{
glyphname = boxLightDown;
layers = (
{
layerId = m01;
shapes = (
{
closed = 1;
nodes = (
(344,314,l),
(276,314,l),
(276,-430,l),
(344,-430,l)
);
}
);
width = 620;
}
);
unicode = 9591;
},
{
glyphname = boxLightDownAndHorizontal;
layers = (
{
layerId = m01;
shapes = (
{
closed = 1;
nodes = (
(344,382,l),
(276,382,l),
(276,-430,l),
(344,-430,l)
);
},
{
closed = 1;
nodes = (
(-10,382,l),
(-10,314,l),
(630,314,l),
(630,382,l)
);
}
);
width = 620;
}
);
unicode = 9516;
},
{
glyphname = boxLightDownAndLeft;
layers = (
{
layerId = m01;
shapes = (
{
closed = 1;
nodes = (
(344,382,l),
(276,382,l),
(276,-430,l),
(344,-430,l)
);
},
{
closed = 1;
nodes = (
(-10,382,l),
(-10,314,l),
(344,314,l),
(344,382,l)
);
}
);
width = 620;
}
);
unicode = 9488;
},
{
glyphname = boxLightDownAndRight;
layers = (
{
layerId = m01;
shapes = (
{
closed = 1;
nodes = (
(344,382,l),
(276,382,l),
(276,-430,l),
(344,-430,l)
);
},
{
closed = 1;
nodes = (
(276,382,l),
(276,314,l),
(630,314,l),
(630,382,l)
);
}
);
width = 620;
}
);
unicode = 9484;
},
{
glyphname = boxLightHorizontal;
layers = (
{
layerId = m01;
shapes = (
{
closed = 1;
nodes = (
(-10,382,l),
(-10,314,l),
(630,314,l),
(630,382,l)
);
}
);
width = 620;
}
);
unicode = 9472;
},
{
glyphname = boxLightLeft;
layers = (
{
layerId = m01;
shapes = (
{
closed = 1;
nodes = (
(-10,382,l),
(-10,314,l),
(276,314,l),
(276,382,l)
);
}
);
width = 620;
}
);
unicode = 9588;
},
{
glyphname = boxLightLeftAndHeavyRight;
layers = (
{
layerId = m01;
shapes = (
{
closed = 1;
nodes = (
(276,263,l),
(630,263,l),
(630,433,l),
(276,433,l)
);
},
{
closed = 1;
nodes = (
(-10,314,l),
(412,314,l),
(412,382,l),
(-10,382,l)
);
}
);
width = 620;
}
);
unicode = 9596;
},
{
glyphname = boxLightQuadrupleDashHorizontal;
layers = (
{
layerId = m01;
shapes = (
{
closed = 1;
nodes = (
(565,382,l),
(565,314,l),
(630,314,l),
(630,382,l)
);
},
{
closed = 1;
nodes = (
(358,382,l),
(358,314,l),
(468,314,l),
(468,382,l)
);
},
{
closed = 1;
nodes = (
(152,382,l),
(152,314,l),
(262,314,l),
(262,382,l)
);
},
{
closed = 1;
nodes = (
(-10,382,l),
(-10,314,l),
(55,314,l),
(55,382,l)
);
}
);
width = 620;
}
);
unicode = 9480;
},
{
glyphname = boxLightQuadrupleDashVertical;
layers = (
{
layerId = m01;
shapes = (
{
closed = 1;
nodes = (
(344,760,l),
(276,760,l),
(276,460,l),
(344,460,l)
);
},
{
closed = 1;
nodes = (
(344,240,l),
(276,240,l),
(276,-60,l),
(344,-60,l)
);
},
{
closed = 1;
nodes = (
(344,1130,l),
(276,1130,l),
(276,980,l),
(344,980,l)
);
},
{
closed = 1;
nodes = (
(344,-280,l),
(276,-280,l),
(276,-430,l),
(344,-430,l)
);
}
);
width = 620;
}
);
unicode = 9482;
},
{
glyphname = boxLightRight;
layers = (
{
layerId = m01;
shapes = (
{
closed = 1;
nodes = (
(344,382,l),
(344,314,l),
(630,314,l),
(630,382,l)
);
}
);
width = 620;
}
);
unicode = 9590;
},
{
glyphname = boxLightTripleDashHorizontal;
layers = (
{
layerId = m01;
shapes = (
{
closed = 1;
nodes = (
(510,382,l),
(510,314,l),
(630,314,l),
(630,382,l)
);
},
{
closed = 1;
nodes = (
(-10,382,l),
(-10,314,l),
(110,314,l),
(110,382,l)
);
},
{
closed = 1;
nodes = (
(200,382,l),
(200,314,l),
(420,314,l),
(420,382,l)
);
}
);
width = 620;
}
);
unicode = 9476;
},
{
glyphname = boxLightTripleDashVertical;
layers = (
{
layerId = m01;
shapes = (
{
closed = 1;
nodes = (
(344,1130,l),
(276,1130,l),
(276,825,l),
(344,825,l)
);
},
{
closed = 1;
nodes = (
(344,-125,l),
(276,-125,l),
(276,-430,l),
(344,-430,l)
);
},
{
closed = 1;
nodes = (
(344,620,l),
(276,620,l),
(276,80,l),
(344,80,l)
);
}
);
width = 620;
}
);
unicode = 9478;
},
{
glyphname = boxLightUp;
layers = (
{
layerId = m01;
shapes = (
{
closed = 1;
nodes = (
(344,1130,l),
(276,1130,l),
(276,382,l),
(344,382,l)
);
}
);
width = 620;
}
);
unicode = 9589;
},
{
glyphname = boxLightUpAndHeavyDown;
layers = (
{
layerId = m01;
shapes = (
{
closed = 1;
nodes = (
(225,386,l),
(225,-430,l),
(395,-430,l),
(395,386,l)
);
},
{
closed = 1;
nodes = (
(276,1130,l),
(276,272,l),
(344,272,l),
(344,1130,l)
);
}
);
width = 620;
}
);
unicode = 9597;
},
{
glyphname = boxLightUpAndLeft;
layers = (
{
layerId = m01;
shapes = (
{
closed = 1;
nodes = (
(-10,382,l),
(-10,314,l),
(344,314,l),
(344,382,l)
);
},
{
closed = 1;
nodes = (
(344,1130,l),
(276,1130,l),
(276,314,l),
(344,314,l)
);
},
{
closed = 1;
nodes = (
(344,1130,l),
(276,1130,l),
(276,314,l),
(344,314,l)
);
}
);
width = 620;
}
);
unicode = 9496;
},
{
glyphname = boxLightUpAndRight;
layers = (
{
layerId = m01;
shapes = (
{
closed = 1;
nodes = (
(276,382,l),
(276,314,l),
(630,314,l),
(630,382,l)
);
},
{
closed = 1;
nodes = (
(344,1130,l),
(276,1130,l),
(276,314,l),
(344,314,l)
);
},
{
closed = 1;
nodes = (
(344,1130,l),
(276,1130,l),
(276,314,l),
(344,314,l)
);
}
);
width = 620;
}
);
unicode = 9492;
},
{
glyphname = boxLightVertical;
layers = (
{
layerId = m01;
shapes = (
{
closed = 1;
nodes = (
(344,1130,l),
(276,1130,l),
(276,-430,l),
(344,-430,l)
);
}
);
width = 620;
}
);
unicode = 9474;
},
{
glyphname = boxLightVerticalAndHorizontal;
layers = (
{
layerId = m01;
shapes = (
{
closed = 1;
nodes = (
(-10,382,l),
(-10,314,l),
(630,314,l),
(630,382,l)
);
},
{
closed = 1;
nodes = (
(344,1130,l),
(276,1130,l),
(276,-430,l),
(344,-430,l)
);
}
);
width = 620;
}
);
unicode = 9532;
},
{
glyphname = boxLightVerticalAndLeft;
layers = (
{
layerId = m01;
shapes = (
{
closed = 1;
nodes = (
(-10,382,l),
(-10,314,l),
(344,314,l),
(344,382,l)
);
},
{
closed = 1;
nodes = (
(344,1130,l),
(276,1130,l),
(276,-430,l),
(344,-430,l)
);
}
);
width = 620;
}
);
unicode = 9508;
},
{
glyphname = boxLightVerticalAndRight;
layers = (
{
layerId = m01;
shapes = (
{
closed = 1;
nodes = (
(276,382,l),
(276,314,l),
(630,314,l),
(630,382,l)
);
},
{
closed = 1;
nodes = (
(344,1130,l),
(276,1130,l),
(276,-430,l),
(344,-430,l)
);
}
);
width = 620;
}
);
unicode = 9500;
},
{
glyphname = boxRightDownHeavyAndLeftUpLight;
layers = (
{
layerId = m01;
shapes = (
{
closed = 1;
nodes = (
(-10,382,l),
(-10,314,l),
(630,314,l),
(630,382,l)
);
},
{
closed = 1;
nodes = (
(344,1130,l),
(276,1130,l),
(276,-430,l),
(344,-430,l)
);
},
{
closed = 1;
nodes = (
(276,433,l),
(276,263,l),
(630,263,l),
(630,433,l)
);
},
{
closed = 1;
nodes = (
(395,433,l),
(225,433,l),
(225,-430,l),
(395,-430,l)
);
}
);
width = 620;
}
);
unicode = 9542;
},
{
glyphname = boxRightHeavyAndLeftDownLight;
layers = (
{
layerId = m01;
shapes = (
{
closed = 1;
nodes = (
(344,382,l),
(276,382,l),
(276,-430,l),
(344,-430,l)
);
},
{
closed = 1;
nodes = (
(-10,382,l),
(-10,314,l),
(630,314,l),
(630,382,l)
);
},
{
closed = 1;
nodes = (
(275,433,l),
(275,263,l),
(630,263,l),
(630,433,l)
);
}
);
width = 620;
}
);
unicode = 9518;
},
{
glyphname = boxRightHeavyAndLeftUpLight;
layers = (
{
layerId = m01;
shapes = (
{
closed = 1;
nodes = (
(-10,382,l),
(-10,314,l),
(630,314,l),
(630,382,l)
);
},
{
closed = 1;
nodes = (
(344,1130,l),
(276,1130,l),
(276,314,l),
(344,314,l)
);
},
{
closed = 1;
nodes = (
(276,433,l),
(276,263,l),
(630,263,l),
(630,433,l)
);
}
);
width = 620;
}
);
unicode = 9526;
},
{
glyphname = boxRightHeavyAndLeftVerticalLight;
layers = (
{
layerId = m01;
shapes = (
{
closed = 1;
nodes = (
(-10,382,l),
(-10,314,l),
(630,314,l),
(630,382,l)
);
},
{
closed = 1;
nodes = (
(344,1130,l),
(276,1130,l),
(276,-430,l),
(344,-430,l)
);
},
{
closed = 1;
nodes = (
(276,433,l),
(276,263,l),
(630,263,l),
(630,433,l)
);
}
);
width = 620;
}
);
unicode = 9534;
},
{
glyphname = boxRightLightAndLeftDownHeavy;
layers = (
{
layerId = m01;
shapes = (
{
closed = 1;
nodes = (
(-10,382,l),
(-10,314,l),
(630,314,l),
(630,382,l)
);
},
{
closed = 1;
nodes = (
(395,382,l),
(225,382,l),
(225,-430,l),
(395,-430,l)
);
},
{
closed = 1;
nodes = (
(-10,433,l),
(-10,263,l),
(395,263,l),
(395,433,l)
);
}
);
width = 620;
}
);
unicode = 9521;
},
{
glyphname = boxRightLightAndLeftUpHeavy;
layers = (
{
layerId = m01;
shapes = (
{
closed = 1;
nodes = (
(-10,382,l),
(-10,314,l),
(630,314,l),
(630,382,l)
);
},
{
closed = 1;
nodes = (
(395,1130,l),
(225,1130,l),
(225,314,l),
(395,314,l)
);
},
{
closed = 1;
nodes = (
(-10,433,l),
(-10,263,l),
(395,263,l),
(395,433,l)
);
}
);
width = 620;
}
);
unicode = 9529;
},
{
glyphname = boxRightLightAndLeftVerticalHeavy;
layers = (
{
layerId = m01;
shapes = (
{
closed = 1;
nodes = (
(-10,382,l),
(-10,314,l),
(630,314,l),
(630,382,l)
);
},
{
closed = 1;
nodes = (
(-10,433,l),
(-10,263,l),
(344,263,l),
(344,433,l)
);
},
{
closed = 1;
nodes = (
(395,1130,l),
(225,1130,l),
(225,-430,l),
(395,-430,l)
);
}
);
width = 620;
}
);
unicode = 9545;
},
{
glyphname = boxRightUpHeavyAndLeftDownLight;
layers = (
{
layerId = m01;
shapes = (
{
closed = 1;
nodes = (
(-10,382,l),
(-10,314,l),
(630,314,l),
(630,382,l)
);
},
{
closed = 1;
nodes = (
(344,1130,l),
(276,1130,l),
(276,-430,l),
(344,-430,l)
);
},
{
closed = 1;
nodes = (
(395,1130,l),
(225,1130,l),
(225,314,l),
(395,314,l)
);
},
{
closed = 1;
nodes = (
(225,433,l),
(225,263,l),
(630,263,l),
(630,433,l)
);
}
);
width = 620;
}
);
unicode = 9540;
},
{
glyphname = boxUpDoubleAndHorizontalSingle;
layers = (
{
layerId = m01;
shapes = (
{
closed = 1;
nodes = (
(-10,382,l),
(-10,314,l),
(630,314,l),
(630,382,l)
);
},
{
closed = 1;
nodes = (
(276,1130,l),
(208,1130,l),
(208,314,l),
(276,314,l)
);
},
{
closed = 1;
nodes = (
(412,1130,l),
(344,1130,l),
(344,314,l),
(412,314,l)
);
}
);
width = 620;
}
);
unicode = 9576;
},
{
glyphname = boxUpDoubleAndLeftSingle;
layers = (
{
layerId = m01;
shapes = (
{
closed = 1;
nodes = (
(-10,382,l),
(-10,314,l),
(412,314,l),
(412,382,l)
);
},
{
closed = 1;
nodes = (
(276,1130,l),
(208,1130,l),
(208,314,l),
(276,314,l)
);
},
{
closed = 1;
nodes = (
(412,1130,l),
(344,1130,l),
(344,314,l),
(412,314,l)
);
}
);
width = 620;
}
);
unicode = 9564;
},
{
glyphname = boxUpDoubleAndRightSingle;
layers = (
{
layerId = m01;
shapes = (
{
closed = 1;
nodes = (
(208,382,l),
(208,314,l),
(630,314,l),
(630,382,l)
);
},
{
closed = 1;
nodes = (
(276,1130,l),
(208,1130,l),
(208,314,l),
(276,314,l)
);
},
{
closed = 1;
nodes = (
(412,1130,l),
(344,1130,l),
(344,314,l),
(412,314,l)
);
}
);
width = 620;
}
);
unicode = 9561;
},
{
glyphname = boxUpHeavyAndDownHorizontalLight;
layers = (
{
layerId = m01;
shapes = (
{
closed = 1;
nodes = (
(-10,382,l),
(-10,314,l),
(630,314,l),
(630,382,l)
);
},
{
closed = 1;
nodes = (
(344,1130,l),
(276,1130,l),
(276,-430,l),
(344,-430,l)
);
},
{
closed = 1;
nodes = (
(395,1130,l),
(225,1130,l),
(225,314,l),
(395,314,l)
);
}
);
width = 620;
}
);
unicode = 9536;
},
{
glyphname = boxUpHeavyAndHorizontalLight;
layers = (
{
layerId = m01;
shapes = (
{
closed = 1;
nodes = (
(-10,382,l),
(-10,314,l),
(630,314,l),
(630,382,l)
);
},
{
closed = 1;
nodes = (
(395,1130,l),
(225,1130,l),
(225,314,l),
(395,314,l)
);
}
);
width = 620;
}
);
unicode = 9528;
},
{
glyphname = boxUpHeavyAndLeftDownLight;
layers = (
{
layerId = m01;
shapes = (
{
closed = 1;
nodes = (
(344,1130,l),
(276,1130,l),
(276,-430,l),
(344,-430,l)
);
},
{
closed = 1;
nodes = (
(344,1130,l),
(276,1130,l),
(276,-430,l),
(344,-430,l)
);
},
{
closed = 1;
nodes = (
(-10,382,l),
(-10,314,l),
(344,314,l),
(344,382,l)
);
},
{
closed = 1;
nodes = (
(395,1130,l),
(225,1130,l),
(225,314,l),
(395,314,l)
);
}
);
width = 620;
}
);
unicode = 9510;
},
{
glyphname = boxUpHeavyAndLeftLight;
layers = (
{
layerId = m01;
shapes = (
{
closed = 1;
nodes = (
(-10,382,l),
(-10,314,l),
(344,314,l),
(344,382,l)
);
},
{
closed = 1;
nodes = (
(395,1130,l),
(225,1130,l),
(225,314,l),
(395,314,l)
);
}
);
width = 620;
}
);
unicode = 9498;
},
{
glyphname = boxUpHeavyAndRightDownLight;
layers = (
{
layerId = m01;
shapes = (
{
closed = 1;
nodes = (
(344,1130,l),
(276,1130,l),
(276,-430,l),
(344,-430,l)
);
},
{
closed = 1;
nodes = (
(276,382,l),
(276,314,l),
(630,314,l),
(630,382,l)
);
},
{
closed = 1;
nodes = (
(395,1130,l),
(225,1130,l),
(225,314,l),
(395,314,l)
);
}
);
width = 620;
}
);
unicode = 9502;
},
{
glyphname = boxUpHeavyAndRightLight;
layers = (
{
layerId = m01;
shapes = (
{
closed = 1;
nodes = (
(276,382,l),
(276,314,l),
(630,314,l),
(630,382,l)
);
},
{
closed = 1;
nodes = (
(395,1130,l),
(225,1130,l),
(225,314,l),
(395,314,l)
);
}
);
width = 620;
}
);
unicode = 9494;
},
{
glyphname = boxUpLightAndDownHorizontalHeavy;
layers = (
{
layerId = m01;
shapes = (
{
closed = 1;
nodes = (
(344,1130,l),
(276,1130,l),
(276,-430,l),
(344,-430,l)
);
},
{
closed = 1;
nodes = (
(-10,433,l),
(-10,263,l),
(630,263,l),
(630,433,l)
);
},
{
closed = 1;
nodes = (
(395,433,l),
(225,433,l),
(225,-430,l),
(395,-430,l)
);
}
);
width = 620;
}
);
unicode = 9544;
},
{
glyphname = boxUpLightAndHorizontalHeavy;
layers = (
{
layerId = m01;
shapes = (
{
closed = 1;
nodes = (
(344,1130,l),
(276,1130,l),
(276,314,l),
(344,314,l)
);
},
{
closed = 1;
nodes = (
(-10,433,l),
(-10,263,l),
(630,263,l),
(630,433,l)
);
}
);
width = 620;
}
);
unicode = 9527;
},
{
glyphname = boxUpLightAndLeftDownHeavy;
layers = (
{
layerId = m01;
shapes = (
{
closed = 1;
nodes = (
(-10,433,l),
(-10,263,l),
(395,263,l),
(395,433,l)
);
},
{
closed = 1;
nodes = (
(344,1130,l),
(276,1130,l),
(276,-430,l),
(344,-430,l)
);
},
{
closed = 1;
nodes = (
(395,386,l),
(225,386,l),
(225,-430,l),
(395,-430,l)
);
}
);
width = 620;
}
);
unicode = 9514;
},
{
glyphname = boxUpLightAndLeftHeavy;
layers = (
{
layerId = m01;
shapes = (
{
closed = 1;
nodes = (
(344,1130,l),
(276,1130,l),
(276,314,l),
(344,314,l)
);
},
{
closed = 1;
nodes = (
(344,1130,l),
(276,1130,l),
(276,314,l),
(344,314,l)
);
},
{
closed = 1;
nodes = (
(-10,433,l),
(-10,263,l),
(344,263,l),
(344,433,l)
);
}
);
width = 620;
}
);
unicode = 9497;
},
{
glyphname = boxUpLightAndRightDownHeavy;
layers = (
{
layerId = m01;
shapes = (
{
closed = 1;
nodes = (
(344,1130,l),
(276,1130,l),
(276,-430,l),
(344,-430,l)
);
},
{
closed = 1;
nodes = (
(395,386,l),
(225,386,l),
(225,-430,l),
(395,-430,l)
);
},
{
closed = 1;
nodes = (
(225,433,l),
(225,263,l),
(630,263,l),
(630,433,l)
);
}
);
width = 620;
}
);
unicode = 9506;
},
{
glyphname = boxUpLightAndRightHeavy;
layers = (
{
layerId = m01;
shapes = (
{
closed = 1;
nodes = (
(344,1130,l),
(276,1130,l),
(276,314,l),
(344,314,l)
);
},
{
closed = 1;
nodes = (
(344,1130,l),
(276,1130,l),
(276,314,l),
(344,314,l)
);
},
{
closed = 1;
nodes = (
(276,433,l),
(276,263,l),
(630,263,l),
(630,433,l)
);
}
);
width = 620;
}
);
unicode = 9493;
},
{
glyphname = boxUpSingleAndHorizontalDouble;
layers = (
{
layerId = m01;
shapes = (
{
closed = 1;
nodes = (
(-10,450,l),
(-10,382,l),
(630,382,l),
(630,450,l)
);
},
{
closed = 1;
nodes = (
(-10,314,l),
(-10,246,l),
(630,246,l),
(630,314,l)
);
},
{
closed = 1;
nodes = (
(344,1130,l),
(276,1130,l),
(276,382,l),
(344,382,l)
);
}
);
width = 620;
}
);
unicode = 9575;
},
{
glyphname = boxUpSingleAndLeftDouble;
layers = (
{
layerId = m01;
shapes = (
{
closed = 1;
nodes = (
(344,1130,l),
(276,1130,l),
(276,246,l),
(344,246,l)
);
},
{
closed = 1;
nodes = (
(-10,450,l),
(-10,382,l),
(344,382,l),
(344,450,l)
);
},
{
closed = 1;
nodes = (
(-10,314,l),
(-10,246,l),
(344,246,l),
(344,314,l)
);
}
);
width = 620;
}
);
unicode = 9563;
},
{
glyphname = boxUpSingleAndRightDouble;
layers = (
{
layerId = m01;
shapes = (
{
closed = 1;
nodes = (
(344,1130,l),
(276,1130,l),
(276,246,l),
(344,246,l)
);
},
{
closed = 1;
nodes = (
(276,450,l),
(276,382,l),
(630,382,l),
(630,450,l)
);
},
{
closed = 1;
nodes = (
(276,314,l),
(276,246,l),
(630,246,l),
(630,314,l)
);
}
);
width = 620;
}
);
unicode = 9560;
},
{
glyphname = boxVerticalDoubleAndHorizontalSingle;
layers = (
{
layerId = m01;
shapes = (
{
closed = 1;
nodes = (
(276,1130,l),
(208,1130,l),
(208,-430,l),
(276,-430,l)
);
},
{
closed = 1;
nodes = (
(412,1130,l),
(344,1130,l),
(344,-430,l),
(412,-430,l)
);
},
{
closed = 1;
nodes = (
(-10,382,l),
(-10,314,l),
(630,314,l),
(630,382,l)
);
}
);
width = 620;
}
);
unicode = 9579;
},
{
glyphname = boxVerticalDoubleAndLeftSingle;
layers = (
{
layerId = m01;
shapes = (
{
closed = 1;
nodes = (
(276,1130,l),
(208,1130,l),
(208,-430,l),
(276,-430,l)
);
},
{
closed = 1;
nodes = (
(412,1130,l),
(344,1130,l),
(344,-430,l),
(412,-430,l)
);
},
{
closed = 1;
nodes = (
(-10,382,l),
(-10,314,l),
(276,314,l),
(276,382,l)
);
}
);
width = 620;
}
);
unicode = 9570;
},
{
glyphname = boxVerticalDoubleAndRightSingle;
layers = (
{
layerId = m01;
shapes = (
{
closed = 1;
nodes = (
(276,1130,l),
(208,1130,l),
(208,-430,l),
(276,-430,l)
);
},
{
closed = 1;
nodes = (
(412,1130,l),
(344,1130,l),
(344,-430,l),
(412,-430,l)
);
},
{
closed = 1;
nodes = (
(344,382,l),
(344,314,l),
(631,314,l),
(631,382,l)
);
}
);
width = 620;
}
);
unicode = 9567;
},
{
glyphname = boxVerticalHeavyAndHorizontalLight;
layers = (
{
layerId = m01;
shapes = (
{
closed = 1;
nodes = (
(-10,382,l),
(-10,314,l),
(630,314,l),
(630,382,l)
);
},
{
closed = 1;
nodes = (
(395,1130,l),
(225,1130,l),
(225,-430,l),
(395,-430,l)
);
}
);
width = 620;
}
);
unicode = 9538;
},
{
glyphname = boxVerticalHeavyAndLeftLight;
layers = (
{
layerId = m01;
shapes = (
{
closed = 1;
nodes = (
(395,1130,l),
(225,1130,l),
(225,-430,l),
(395,-430,l)
);
},
{
closed = 1;
nodes = (
(-10,382,l),
(-10,314,l),
(344,314,l),
(344,382,l)
);
}
);
width = 620;
}
);
unicode = 9512;
},
{
glyphname = boxVerticalHeavyAndRightLight;
layers = (
{
layerId = m01;
shapes = (
{
closed = 1;
nodes = (
(276,382,l),
(276,314,l),
(630,314,l),
(630,382,l)
);
},
{
closed = 1;
nodes = (
(395,1130,l),
(225,1130,l),
(225,-430,l),
(395,-430,l)
);
}
);
width = 620;
}
);
unicode = 9504;
},
{
glyphname = boxVerticalLightAndHorizontalHeavy;
layers = (
{
layerId = m01;
shapes = (
{
closed = 1;
nodes = (
(344,1130,l),
(276,1130,l),
(276,-430,l),
(344,-430,l)
);
},
{
closed = 1;
nodes = (
(-10,433,l),
(-10,263,l),
(630,263,l),
(630,433,l)
);
}
);
width = 620;
}
);
unicode = 9535;
},
{
glyphname = boxVerticalLightAndLeftHeavy;
layers = (
{
layerId = m01;
shapes = (
{
closed = 1;
nodes = (
(344,1130,l),
(276,1130,l),
(276,-430,l),
(344,-430,l)
);
},
{
closed = 1;
nodes = (
(344,1130,l),
(276,1130,l),
(276,-430,l),
(344,-430,l)
);
},
{
closed = 1;
nodes = (
(-10,433,l),
(-10,263,l),
(344,263,l),
(344,433,l)
);
}
);
width = 620;
}
);
unicode = 9509;
},
{
glyphname = boxVerticalLightAndRightHeavy;
layers = (
{
layerId = m01;
shapes = (
{
closed = 1;
nodes = (
(276,433,l),
(276,263,l),
(630,263,l),
(630,433,l)
);
},
{
closed = 1;
nodes = (
(344,1130,l),
(276,1130,l),
(276,-430,l),
(344,-430,l)
);
}
);
width = 620;
}
);
unicode = 9501;
},
{
glyphname = boxVerticalSingleAndHorizontalDouble;
layers = (
{
layerId = m01;
shapes = (
{
closed = 1;
nodes = (
(-10,450,l),
(-10,382,l),
(630,382,l),
(630,450,l)
);
},
{
closed = 1;
nodes = (
(-10,314,l),
(-10,246,l),
(630,246,l),
(630,314,l)
);
},
{
closed = 1;
nodes = (
(344,1130,l),
(276,1130,l),
(276,-430,l),
(344,-430,l)
);
}
);
width = 620;
}
);
unicode = 9578;
},
{
glyphname = boxVerticalSingleAndLeftDouble;
layers = (
{
layerId = m01;
shapes = (
{
closed = 1;
nodes = (
(-10,450,l),
(-10,382,l),
(344,382,l),
(344,450,l)
);
},
{
closed = 1;
nodes = (
(-10,314,l),
(-10,246,l),
(344,246,l),
(344,314,l)
);
},
{
closed = 1;
nodes = (
(344,1130,l),
(276,1130,l),
(276,-430,l),
(344,-430,l)
);
}
);
width = 620;
}
);
unicode = 9569;
},
{
glyphname = boxVerticalSingleAndRightDouble;
layers = (
{
layerId = m01;
shapes = (
{
closed = 1;
nodes = (
(276,450,l),
(276,382,l),
(630,382,l),
(630,450,l)
);
},
{
closed = 1;
nodes = (
(276,314,l),
(276,246,l),
(630,246,l),
(630,314,l)
);
},
{
closed = 1;
nodes = (
(344,1130,l),
(276,1130,l),
(276,-430,l),
(344,-430,l)
);
}
);
width = 620;
}
);
unicode = 9566;
},
{
glyphname = boxLeftDownHeavyAndRightUpLight.001;
layers = (
{
layerId = m01;
shapes = (
{
closed = 1;
nodes = (
(-10,382,l),
(-10,314,l),
(630,314,l),
(630,382,l)
);
},
{
closed = 1;
nodes = (
(344,1130,l),
(276,1130,l),
(276,-430,l),
(344,-430,l)
);
},
{
closed = 1;
nodes = (
(-10,433,l),
(-10,263,l),
(344,263,l),
(344,433,l)
);
},
{
closed = 1;
nodes = (
(395,433,l),
(225,433,l),
(225,-430,l),
(395,-430,l)
);
}
);
width = 620;
}
);
unicode = 9541;
},
{
glyphname = dieresiscomb;
layers = (
{
anchors = (
{
name = _top;
pos = (310,550);
},
{
name = top;
pos = (310,760);
}
);
layerId = m01;
shapes = (
{
closed = 1;
nodes = (
(158,654,l),
(264,654,l),
(264,760,l),
(158,760,l)
);
},
{
closed = 1;
nodes = (
(356,654,l),
(462,654,l),
(462,760,l),
(356,760,l)
);
}
);
width = 620;
}
);
unicode = 776;
},
{
glyphname = dotaccentcomb;
layers = (
{
anchors = (
{
name = _top;
pos = (310,550);
},
{
name = top;
pos = (310,766);
}
);
layerId = m01;
shapes = (
{
closed = 1;
nodes = (
(355,606,o),
(390,641,o),
(390,686,cs),
(390,730,o),
(355,766,o),
(310,766,cs),
(267,766,o),
(230,730,o),
(230,686,cs),
(230,641,o),
(267,606,o),
(310,606,cs)
);
}
);
width = 620;
}
);
unicode = 775;
},
{
glyphname = gravecomb;
layers = (
{
anchors = (
{
name = _top;
pos = (310,550);
},
{
name = top;
pos = (310,786);
}
);
layerId = m01;
shapes = (
{
closed = 1;
nodes = (
(172,786,l),
(172,780,l),
(277,628,l),
(348,628,l),
(286,786,l)
);
}
);
width = 620;
}
);
unicode = 768;
},
{
glyphname = acutecomb;
layers = (
{
anchors = (
{
name = _top;
pos = (310,550);
},
{
name = top;
pos = (310,786);
}
);
layerId = m01;
shapes = (
{
closed = 1;
nodes = (
(272,628,l),
(343,628,l),
(448,780,l),
(448,786,l),
(334,786,l)
);
}
);
width = 620;
}
);
unicode = 769;
},
{
glyphname = circumflexcomb;
layers = (
{
anchors = (
{
name = _top;
pos = (310,550);
},
{
name = top;
pos = (310,786);
}
);
layerId = m01;
shapes = (
{
closed = 1;
nodes = (
(263,786,l),
(263,780,l),
(394,628,l),
(479,628,l),
(357,786,l)
);
},
{
closed = 1;
nodes = (
(141,628,l),
(226,628,l),
(357,780,l),
(357,786,l),
(263,786,l)
);
}
);
width = 620;
}
);
unicode = 770;
},
{
glyphname = caroncomb;
layers = (
{
anchors = (
{
name = _top;
pos = (310,550);
},
{
name = top;
pos = (310,786);
}
);
layerId = m01;
shapes = (
{
closed = 1;
nodes = (
(357,628,l),
(357,634,l),
(226,786,l),
(141,786,l),
(263,628,l)
);
},
{
closed = 1;
nodes = (
(479,786,l),
(394,786,l),
(263,634,l),
(263,628,l),
(357,628,l)
);
}
);
width = 620;
}
);
unicode = 780;
},
{
glyphname = brevecomb;
layers = (
{
anchors = (
{
name = _top;
pos = (310,550);
},
{
name = top;
pos = (310,787);
}
);
layerId = m01;
shapes = (
{
closed = 1;
nodes = (
(395,787,l),
(394,728,o),
(360,691,o),
(310,691,cs),
(259,691,o),
(226,728,o),
(225,787,c),
(148,787,l),
(149,691,o),
(211,621,o),
(310,620,cs),
(406,619,o),
(471,691,o),
(472,787,c)
);
}
);
width = 620;
},
{
anchors = (
{
name = _top;
pos = (310,620);
},
{
name = top;
pos = (310,787);
}
);
associatedMasterId = m01;
layerId = "4793374D-CB6D-4D2D-8405-3D1BB23526E2";
name = "Nov 10, 23 at 16:26";
shapes = (
{
closed = 1;
nodes = (
(397,787,l),
(396,727,o),
(362,694,o),
(310,694,cs),
(257,694,o),
(224,727,o),
(223,787,c),
(141,787,l),
(142,689,o),
(208,620,o),
(310,620,cs),
(409,620,o),
(478,689,o),
(479,787,c)
);
}
);
width = 620;
}
);
unicode = 774;
},
{
glyphname = ringcomb;
layers = (
{
anchors = (
{
name = _top;
pos = (310,550);
},
{
name = top;
pos = (310,815);
}
);
layerId = m01;
shapes = (
{
closed = 1;
nodes = (
(378,611,o),
(416,659,o),
(416,712,cs),
(416,768,o),
(379,815,o),
(310,815,cs),
(240,815,o),
(204,768,o),
(204,713,cs),
(204,659,o),
(241,611,o),
(310,611,cs)
);
},
{
closed = 1;
nodes = (
(282,666,o),
(263,687,o),
(263,713,cs),
(263,739,o),
(282,760,o),
(310,760,cs),
(338,760,o),
(357,739,o),
(357,713,cs),
(357,687,o),
(338,666,o),
(310,666,cs)
);
}
);
width = 620;
}
);
unicode = 778;
},
{
glyphname = tildecomb;
layers = (
{
anchors = (
{
name = _top;
pos = (310,550);
},
{
name = top;
pos = (310,776);
}
);
layerId = m01;
shapes = (
{
closed = 1;
nodes = (
(262,783,o),
(232,814,o),
(125,689,c),
(177,647,l),
(243,721,o),
(246,715,o),
(308,666,cs),
(380,610,o),
(399,606,o),
(495,721,c),
(444,760,l),
(386,694,o),
(381,685,o),
(330,727,cs)
);
}
);
width = 620;
},
{
associatedMasterId = m01;
layerId = "1BBDF00C-EB6C-4E64-B2C8-BDE32526FA7D";
name = "Oct 31, 23 at 16:47";
shapes = (
{
closed = 1;
nodes = (
(362,593,o),
(387,585,o),
(483,705,c),
(442,738,l),
(374,658,o),
(372,655,o),
(317,705,cs),
(238,776,o),
(212,784,o),
(117,664,c),
(158,631,l),
(226,711,o),
(228,714,o),
(283,664,cs)
);
}
);
width = 620;
},
{
associatedMasterId = m01;
layerId = "DD4C2753-9BA7-4192-9FB2-77BBBCFD02D8";
name = "Nov 1, 23 at 15:47";
shapes = (
{
closed = 1;
nodes = (
(467,573,o),
(505,562,o),
(646,738,c),
(586,787,l),
(486,669,o),
(482,664,o),
(401,739,cs),
(285,844,o),
(247,855,o),
(106,679,c),
(166,630,l),
(266,748,o),
(270,753,o),
(351,678,cs)
);
}
);
width = 620;
}
);
unicode = 771;
},
{
glyphname = hookabovecomb;
layers = (
{
anchors = (
{
name = _top;
pos = (310,550);
},
{
name = top;
pos = (310,811);
}
);
layerId = m01;
name = Regular;
shapes = (
{
closed = 1;
nodes = (
(274,631,o),
(274,640,o),
(274,628,c),
(342,628,l),
(344,637,ls),
(346,646,o),
(351,651,o),
(358,655,cs),
(378,668,o),
(390,673,o),
(411,691,cs),
(435,711,o),
(433,743,o),
(419,762,cs),
(394,796,o),
(318,814,o),
(196,811,c),
(196,752,l),
(246,753,o),
(335,751,o),
(359,736,cs),
(366,731,o),
(365,721,o),
(360,717,cs),
(341,702,o),
(319,696,o),
(288,674,cs),
(279,668,o),
(274,656,o),
(274,647,cs)
);
}
);
visible = 1;
width = 620;
}
);
unicode = 777;
},
{
glyphname = horncomb;
layers = (
{
anchors = (
{
name = _topright;
pos = (243,550);
},
{
name = topright;
pos = (360,680);
}
);
associatedMasterId = m01;
layerId = "C45FF35F-A04E-4898-A088-A856337CC03B";
name = "Nov 11, 23 at 14:07";
shapes = (
{
closed = 1;
nodes = (
(241,506,l),
(307,505,o),
(337,512,o),
(359,534,cs),
(386,560,o),
(384,631,o),
(343,696,c),
(268,666,l),
(302,618,o),
(320,583,o),
(302,563,cs),
(289,549,o),
(257,550,o),
(241,550,c)
);
}
);
width = 620;
},
{
anchors = (
{
name = _topright;
pos = (243,550);
},
{
name = topright;
pos = (383,666);
}
);
associatedMasterId = m01;
layerId = "CF9C11DD-A48A-46B7-ACA6-3C67EFA76CE0";
name = "Nov 11, 23 at 19:25";
shapes = (
{
closed = 1;
nodes = (
(241,508,l),
(307,507,o),
(337,512,o),
(359,534,cs),
(386,560,o),
(386,616,o),
(383,666,c),
(308,666,l),
(310,640,o),
(317,583,o),
(299,563,cs),
(286,549,o),
(257,550,o),
(241,550,c)
);
}
);
width = 620;
},
{
anchors = (
{
name = _topright;
pos = (243,550);
},
{
name = topright;
pos = (385,667);
}
);
layerId = m01;
name = Regular;
shapes = (
{
closed = 1;
nodes = (
(241,500,l),
(311,499,o),
(341,513,o),
(363,535,cs),
(389,562,o),
(395,608,o),
(386,668,c),
(302,652,l),
(302,646,l),
(315,617,o),
(319,587,o),
(305,569,cs),
(289,549,o),
(265,550,o),
(241,550,c)
);
}
);
width = 620;
},
{
anchors = (
{
name = _topright;
pos = (243,550);
},
{
name = topright;
pos = (385,666);
}
);
associatedMasterId = m01;
layerId = "FC2B75D7-43E2-445C-A8CA-572E405B377A";
name = "Nov 11, 23 at 19:34";
shapes = (
{
closed = 1;
nodes = (
(241,502,l),
(311,501,o),
(344,513,o),
(364,537,cs),
(385,562,o),
(391,610,o),
(385,667,c),
(304,654,l),
(313,629,o),
(326,589,o),
(311,569,cs),
(296,550,o),
(257,550,o),
(241,550,c)
);
}
);
width = 620;
}
);
unicode = 795;
},
{
glyphname = dotbelowcomb;
layers = (
{
anchors = (
{
name = _bottom;
pos = (310,0);
},
{
name = bottom;
pos = (310,-200);
}
);
layerId = m01;
shapes = (
{
closed = 1;
nodes = (
(355,-216,o),
(390,-181,o),
(390,-136,cs),
(390,-92,o),
(355,-56,o),
(310,-56,cs),
(267,-56,o),
(230,-92,o),
(230,-136,cs),
(230,-181,o),
(267,-216,o),
(310,-216,cs)
);
}
);
width = 620;
}
);
unicode = 803;
},
{
glyphname = cedillacomb;
layers = (
{
anchors = (
{
name = _bottom;
pos = (310,0);
},
{
name = bottom;
pos = (310,-238);
}
);
layerId = m01;
shapes = (
{
closed = 1;
nodes = (
(339,-77,o),
(375,-97,o),
(374,-129,cs),
(373,-163,o),
(332,-178,o),
(302,-178,cs),
(276,-178,o),
(237,-170,o),
(203,-149,c),
(178,-202,l),
(210,-223,o),
(254,-238,o),
(300,-238,cs),
(378,-238,o),
(439,-198,o),
(441,-126,cs),
(442,-82,o),
(402,-28,o),
(319,-40,c),
(366,41,l),
(297,41,l),
(242,-67,l),
(267,-101,l)
);
}
);
width = 620;
},
{
associatedMasterId = m01;
layerId = "C1319835-1BEC-40EC-8000-5C6A6127892E";
name = "Nov 2, 23 at 15:54";
shapes = (
{
closed = 1;
nodes = (
(289,-96,l),
(334,-96,o),
(374,-102,o),
(374,-126,cs),
(374,-151,o),
(342,-158,o),
(307,-158,cs),
(270,-158,o),
(236,-143,o),
(211,-129,c),
(183,-180,l),
(215,-201,o),
(261,-216,o),
(307,-216,cs),
(383,-216,o),
(436,-183,o),
(436,-124,cs),
(436,-87,o),
(400,-46,o),
(317,-46,c),
(268,-45,l),
(268,-96,l)
);
},
{
closed = 1;
nodes = (
(309,51,l),
(228,-90,l),
(228,-96,l),
(289,-96,l),
(382,51,l)
);
}
);
width = 620;
},
{
associatedMasterId = m01;
layerId = "04E3E119-9486-4EE1-A817-4CBB4D2E612A";
name = "Nov 2, 23 at 16:04";
shapes = (
{
closed = 1;
nodes = (
(229,-98,l),
(314,-84,o),
(378,-98,o),
(377,-125,cs),
(376,-149,o),
(349,-158,o),
(307,-158,cs),
(270,-158,o),
(236,-143,o),
(211,-129,c),
(183,-180,l),
(215,-201,o),
(261,-216,o),
(307,-216,cs),
(378,-216,o),
(441,-195,o),
(441,-126,cs),
(441,-74,o),
(393,-48,o),
(327,-44,c),
(382,51,l),
(309,51,l),
(229,-92,l)
);
}
);
width = 620;
},
{
associatedMasterId = m01;
layerId = "F850E069-D7E3-4896-BA2B-E21FB873FE83";
name = "Nov 5, 23 at 16:48";
shapes = (
{
closed = 1;
nodes = (
(333,-90,o),
(371,-102,o),
(370,-134,cs),
(369,-165,o),
(332,-183,o),
(296,-183,cs),
(265,-183,o),
(241,-175,o),
(203,-154,c),
(178,-205,l),
(210,-226,o),
(254,-241,o),
(300,-241,cs),
(369,-241,o),
(434,-202,o),
(436,-133,cs),
(437,-90,o),
(404,-39,o),
(316,-51,c),
(369,51,l),
(302,51,l),
(242,-77,l),
(265,-110,l)
);
}
);
width = 620;
},
{
associatedMasterId = m01;
layerId = "09E9260D-AE90-4EEC-9A2F-673609A5CE43";
name = "Nov 5, 23 at 16:56";
shapes = (
{
closed = 1;
nodes = (
(333,-90,o),
(371,-102,o),
(370,-134,cs),
(369,-165,o),
(332,-183,o),
(296,-183,cs),
(265,-183,o),
(241,-175,o),
(203,-154,c),
(178,-205,l),
(210,-226,o),
(254,-241,o),
(300,-241,cs),
(369,-241,o),
(434,-202,o),
(436,-133,cs),
(437,-90,o),
(404,-39,o),
(316,-51,c),
(369,51,l),
(302,51,l),
(242,-77,l),
(265,-110,l)
);
}
);
width = 620;
}
);
unicode = 807;
},
{
glyphname = brevecomb.case;
layers = (
{
anchors = (
{
name = _top;
pos = (310,710);
},
{
name = top;
pos = (310,934);
}
);
layerId = m01;
shapes = (
{
pos = (0,147);
ref = brevecomb;
}
);
width = 620;
},
{
anchors = (
{
name = _top;
pos = (310,710);
},
{
name = top;
pos = (310,934);
}
);
associatedMasterId = m01;
layerId = "A08588B1-5E53-4952-B235-FE07F1259A13";
name = "Nov 10, 23 at 16:07";
shapes = (
{
closed = 1;
nodes = (
(397,934,l),
(396,874,o),
(362,841,o),
(310,841,cs),
(257,841,o),
(224,874,o),
(223,934,c),
(141,934,l),
(142,836,o),
(208,767,o),
(310,767,cs),
(409,767,o),
(478,836,o),
(479,934,c)
);
}
);
width = 620;
}
);
},
{
glyphname = tildecomb.case;
layers = (
{
anchors = (
{
name = _top;
pos = (310,710);
},
{
name = top;
pos = (310,924);
}
);
layerId = m01;
shapes = (
{
pos = (0,148);
ref = tildecomb;
}
);
width = 620;
},
{
associatedMasterId = m01;
layerId = "1BBDF00C-EB6C-4E64-B2C8-BDE32526FA7D";
name = "Oct 31, 23 at 16:47";
shapes = (
{
closed = 1;
nodes = (
(362,593,o),
(387,585,o),
(483,705,c),
(442,738,l),
(374,658,o),
(372,655,o),
(317,705,cs),
(238,776,o),
(212,784,o),
(117,664,c),
(158,631,l),
(226,711,o),
(228,714,o),
(283,664,cs)
);
}
);
width = 620;
},
{
associatedMasterId = m01;
layerId = "DD4C2753-9BA7-4192-9FB2-77BBBCFD02D8";
name = "Nov 1, 23 at 15:47";
shapes = (
{
closed = 1;
nodes = (
(467,573,o),
(505,562,o),
(646,738,c),
(586,787,l),
(486,669,o),
(482,664,o),
(401,739,cs),
(285,844,o),
(247,855,o),
(106,679,c),
(166,630,l),
(266,748,o),
(270,753,o),
(351,678,cs)
);
}
);
width = 620;
}
);
},
{
glyphname = cedillacomb.case;
layers = (
{
anchors = (
{
name = _bottom;
pos = (310,0);
},
{
name = bottom;
pos = (310,-238);
}
);
layerId = m01;
shapes = (
{
ref = cedillacomb;
}
);
width = 620;
},
{
associatedMasterId = m01;
layerId = "C1319835-1BEC-40EC-8000-5C6A6127892E";
name = "Nov 2, 23 at 15:54";
shapes = (
{
closed = 1;
nodes = (
(289,-96,l),
(334,-96,o),
(374,-102,o),
(374,-126,cs),
(374,-151,o),
(342,-158,o),
(307,-158,cs),
(270,-158,o),
(236,-143,o),
(211,-129,c),
(183,-180,l),
(215,-201,o),
(261,-216,o),
(307,-216,cs),
(383,-216,o),
(436,-183,o),
(436,-124,cs),
(436,-87,o),
(400,-46,o),
(317,-46,c),
(268,-45,l),
(268,-96,l)
);
},
{
closed = 1;
nodes = (
(309,51,l),
(228,-90,l),
(228,-96,l),
(289,-96,l),
(382,51,l)
);
}
);
width = 620;
},
{
associatedMasterId = m01;
layerId = "04E3E119-9486-4EE1-A817-4CBB4D2E612A";
name = "Nov 2, 23 at 16:04";
shapes = (
{
closed = 1;
nodes = (
(229,-98,l),
(314,-84,o),
(378,-98,o),
(377,-125,cs),
(376,-149,o),
(349,-158,o),
(307,-158,cs),
(270,-158,o),
(236,-143,o),
(211,-129,c),
(183,-180,l),
(215,-201,o),
(261,-216,o),
(307,-216,cs),
(378,-216,o),
(441,-195,o),
(441,-126,cs),
(441,-74,o),
(393,-48,o),
(327,-44,c),
(382,51,l),
(309,51,l),
(229,-92,l)
);
}
);
width = 620;
},
{
associatedMasterId = m01;
layerId = "F850E069-D7E3-4896-BA2B-E21FB873FE83";
name = "Nov 5, 23 at 16:48";
shapes = (
{
closed = 1;
nodes = (
(333,-90,o),
(371,-102,o),
(370,-134,cs),
(369,-165,o),
(332,-183,o),
(296,-183,cs),
(265,-183,o),
(241,-175,o),
(203,-154,c),
(178,-205,l),
(210,-226,o),
(254,-241,o),
(300,-241,cs),
(369,-241,o),
(434,-202,o),
(436,-133,cs),
(437,-90,o),
(404,-39,o),
(316,-51,c),
(369,51,l),
(302,51,l),
(242,-77,l),
(265,-110,l)
);
}
);
width = 620;
},
{
associatedMasterId = m01;
layerId = "09E9260D-AE90-4EEC-9A2F-673609A5CE43";
name = "Nov 5, 23 at 16:56";
shapes = (
{
closed = 1;
nodes = (
(333,-90,o),
(371,-102,o),
(370,-134,cs),
(369,-165,o),
(332,-183,o),
(296,-183,cs),
(265,-183,o),
(241,-175,o),
(203,-154,c),
(178,-205,l),
(210,-226,o),
(254,-241,o),
(300,-241,cs),
(369,-241,o),
(434,-202,o),
(436,-133,cs),
(437,-90,o),
(404,-39,o),
(316,-51,c),
(369,51,l),
(302,51,l),
(242,-77,l),
(265,-110,l)
);
}
);
width = 620;
}
);
},
{
glyphname = grave;
layers = (
{
layerId = m01;
shapes = (
{
closed = 1;
nodes = (
(158,710,l),
(158,701,l),
(323,462,l),
(389,462,l),
(300,710,l)
);
}
);
width = 620;
}
);
unicode = 96;
},
{
glyphname = breveacutecomb;
layers = (
{
anchors = (
{
name = _top;
pos = (310,550);
},
{
name = top;
pos = (310,906);
}
);
layerId = m01;
shapes = (
{
closed = 1;
nodes = (
(273,788,l),
(343,788,l),
(425,900,l),
(425,906,l),
(328,906,l)
);
},
{
closed = 1;
nodes = (
(397,787,l),
(396,727,o),
(362,694,o),
(310,694,cs),
(257,694,o),
(224,727,o),
(223,787,c),
(141,787,l),
(142,689,o),
(208,620,o),
(310,620,cs),
(409,620,o),
(478,689,o),
(479,787,c)
);
}
);
width = 620;
},
{
anchors = (
{
name = bottom;
pos = (310,620);
},
{
name = top;
pos = (310,787);
}
);
associatedMasterId = m01;
layerId = "308F31EC-7020-4FDD-973A-EEA0F15BA69E";
name = "Nov 10, 23 at 10:33";
shapes = (
{
closed = 1;
nodes = (
(397,787,l),
(396,727,o),
(362,694,o),
(310,694,cs),
(257,694,o),
(224,727,o),
(223,787,c),
(141,787,l),
(142,689,o),
(208,620,o),
(310,620,cs),
(409,620,o),
(478,689,o),
(479,787,c)
);
},
{
closed = 1;
nodes = (
(272,787,l),
(343,787,l),
(448,939,l),
(448,945,l),
(334,945,l)
);
}
);
width = 620;
}
);
},
{
glyphname = brevegravecomb;
layers = (
{
anchors = (
{
name = _top;
pos = (310,550);
},
{
name = top;
pos = (310,906);
}
);
layerId = m01;
shapes = (
{
closed = 1;
nodes = (
(195,906,l),
(195,900,l),
(277,788,l),
(347,788,l),
(292,906,l)
);
},
{
ref = brevecomb;
}
);
width = 620;
}
);
},
